<svg xmlns="http://www.w3.org/2000/svg" xmlns:xlink="http://www.w3.org/1999/xlink" contentStyleType="text/css" height="982px" preserveAspectRatio="none" style="width:1958px;height:982px;background:#FFFFFF;" version="1.1" viewBox="0 0 1958 982" width="1958px" zoomAndPan="magnify"><defs/><g><line style="stroke:#181818;stroke-width:1.5;" x1="46.3467" x2="46.3467" y1="65.0938" y2="85.0938"/><rect fill="#F1F1F1" height="35.0938" style="stroke:#181818;stroke-width:1.5;" width="72.6934" x="10" y="85.0938"/><text fill="#000000" font-family="sans-serif" font-size="12" lengthAdjust="spacing" textLength="52.6934" x="20" y="107.5508">statement</text><line style="stroke:#181818;stroke-width:1.5;" x1="46.3467" x2="56.3467" y1="152.7344" y2="152.7344"/><rect fill="#F1F1F1" height="35.0938" style="stroke:#181818;stroke-width:1.5;" width="118.7246" x="56.3467" y="135.1875"/><text fill="#000000" font-family="sans-serif" font-size="12" lengthAdjust="spacing" textLength="98.7246" x="66.3467" y="157.6445">looping -statement</text><line style="stroke:#181818;stroke-width:1.5;" x1="46.3467" x2="56.3467" y1="202.8281" y2="202.8281"/><rect fill="#F1F1F1" height="35.0938" style="stroke:#181818;stroke-width:1.5;" width="98.0293" x="56.3467" y="185.2813"/><text fill="#000000" font-family="sans-serif" font-size="12" lengthAdjust="spacing" textLength="78.0293" x="66.3467" y="207.7383">wait-statement</text><line style="stroke:#181818;stroke-width:1.5;" x1="46.3467" x2="56.3467" y1="252.9219" y2="252.9219"/><rect fill="#F1F1F1" height="35.0938" style="stroke:#181818;stroke-width:1.5;" width="201.4355" x="56.3467" y="235.375"/><text fill="#000000" font-family="sans-serif" font-size="12" lengthAdjust="spacing" textLength="181.4355" x="66.3467" y="257.832">branching-and-decision-statement</text><line style="stroke:#181818;stroke-width:1.5;" x1="46.3467" x2="56.3467" y1="303.0156" y2="303.0156"/><rect fill="#F1F1F1" height="35.0938" style="stroke:#181818;stroke-width:1.5;" width="177.4297" x="56.3467" y="285.4688"/><text fill="#000000" font-family="sans-serif" font-size="12" lengthAdjust="spacing" textLength="157.4297" x="66.3467" y="307.9258">exception-handling-statement</text><line style="stroke:#181818;stroke-width:1.5;" x1="46.3467" x2="56.3467" y1="353.1094" y2="353.1094"/><rect fill="#F1F1F1" height="35.0938" style="stroke:#181818;stroke-width:1.5;" width="190.0742" x="56.3467" y="335.5625"/><text fill="#000000" font-family="sans-serif" font-size="12" lengthAdjust="spacing" textLength="170.0742" x="66.3467" y="358.0195">variable-assignments-statement</text><line style="stroke:#181818;stroke-width:1.5;" x1="46.3467" x2="56.3467" y1="403.2031" y2="403.2031"/><rect fill="#F1F1F1" height="35.0938" style="stroke:#181818;stroke-width:1.5;" width="216.0898" x="56.3467" y="385.6563"/><text fill="#000000" font-family="sans-serif" font-size="12" lengthAdjust="spacing" textLength="196.0898" x="66.3467" y="408.1133">local-variable-declarations-statement</text><line style="stroke:#181818;stroke-width:1.5;" x1="46.3467" x2="56.3467" y1="453.2969" y2="453.2969"/><rect fill="#F1F1F1" height="35.0938" style="stroke:#181818;stroke-width:1.5;" width="186.0664" x="56.3467" y="435.75"/><text fill="#000000" font-family="sans-serif" font-size="12" lengthAdjust="spacing" textLength="166.0664" x="66.3467" y="458.207">built-in-function-calls-statement</text><line style="stroke:#181818;stroke-width:1.5;" x1="46.3467" x2="56.3467" y1="503.3906" y2="503.3906"/><rect fill="#F1F1F1" height="35.0938" style="stroke:#181818;stroke-width:1.5;" width="217.4258" x="56.3467" y="485.8438"/><text fill="#000000" font-family="sans-serif" font-size="12" lengthAdjust="spacing" textLength="197.4258" x="66.3467" y="508.3008">user-defined-function-calls-statement</text><line style="stroke:#181818;stroke-width:1.5;" x1="46.3467" x2="56.3467" y1="553.4844" y2="553.4844"/><rect fill="#F1F1F1" height="35.0938" style="stroke:#181818;stroke-width:1.5;" width="210.7402" x="56.3467" y="535.9375"/><text fill="#000000" font-family="sans-serif" font-size="12" lengthAdjust="spacing" textLength="190.7402" x="66.3467" y="558.3945">SimplSharp-method-calls-statement</text><line style="stroke:#181818;stroke-width:1.5;" x1="46.3467" x2="46.3467" y1="120.1875" y2="553.4844"/><line style="stroke:#181818;stroke-width:1.5;" x1="332.7881" x2="332.7881" y1="65.0938" y2="85.0938"/><rect fill="#F1F1F1" height="35.0938" style="stroke:#181818;stroke-width:1.5;" width="78.0313" x="293.7725" y="85.0938"/><text fill="#000000" font-family="sans-serif" font-size="12" lengthAdjust="spacing" textLength="58.0313" x="303.7725" y="107.5508">expression</text><line style="stroke:#181818;stroke-width:1.5;" x1="332.7881" x2="342.7881" y1="152.7344" y2="152.7344"/><rect fill="#F1F1F1" height="35.0938" style="stroke:#181818;stroke-width:1.5;" width="130.7246" x="342.7881" y="135.1875"/><text fill="#000000" font-family="sans-serif" font-size="12" lengthAdjust="spacing" textLength="110.7246" x="352.7881" y="157.6445">relational-expression</text><line style="stroke:#181818;stroke-width:1.5;" x1="332.7881" x2="342.7881" y1="202.8281" y2="202.8281"/><rect fill="#F1F1F1" height="35.0938" style="stroke:#181818;stroke-width:1.5;" width="157.4141" x="342.7881" y="185.2813"/><text fill="#000000" font-family="sans-serif" font-size="12" lengthAdjust="spacing" textLength="137.4141" x="352.7881" y="207.7383">parenthesized-expression</text><line style="stroke:#181818;stroke-width:1.5;" x1="332.7881" x2="342.7881" y1="252.9219" y2="252.9219"/><rect fill="#F1F1F1" height="35.0938" style="stroke:#181818;stroke-width:1.5;" width="143.3926" x="342.7881" y="235.375"/><text fill="#000000" font-family="sans-serif" font-size="12" lengthAdjust="spacing" textLength="123.3926" x="352.7881" y="257.832">assignment-expression</text><line style="stroke:#181818;stroke-width:1.5;" x1="332.7881" x2="342.7881" y1="303.0156" y2="303.0156"/><rect fill="#F1F1F1" height="35.0938" style="stroke:#181818;stroke-width:1.5;" width="134.041" x="342.7881" y="285.4688"/><text fill="#000000" font-family="sans-serif" font-size="12" lengthAdjust="spacing" textLength="114.041" x="352.7881" y="307.9258">arithmetic-expression</text><line style="stroke:#181818;stroke-width:1.5;" x1="332.7881" x2="342.7881" y1="353.1094" y2="353.1094"/><rect fill="#F1F1F1" height="35.0938" style="stroke:#181818;stroke-width:1.5;" width="110.7031" x="342.7881" y="335.5625"/><text fill="#000000" font-family="sans-serif" font-size="12" lengthAdjust="spacing" textLength="90.7031" x="352.7881" y="358.0195">literal-expression</text><line style="stroke:#181818;stroke-width:1.5;" x1="332.7881" x2="342.7881" y1="403.2031" y2="403.2031"/><rect fill="#F1F1F1" height="35.0938" style="stroke:#181818;stroke-width:1.5;" width="118.7188" x="342.7881" y="385.6563"/><text fill="#000000" font-family="sans-serif" font-size="12" lengthAdjust="spacing" textLength="98.7188" x="352.7881" y="408.1133">integer-expression</text><line style="stroke:#181818;stroke-width:1.5;" x1="332.7881" x2="342.7881" y1="453.2969" y2="453.2969"/><rect fill="#F1F1F1" height="35.0938" style="stroke:#181818;stroke-width:1.5;" width="111.3711" x="342.7881" y="435.75"/><text fill="#000000" font-family="sans-serif" font-size="12" lengthAdjust="spacing" textLength="91.3711" x="352.7881" y="458.207">string-expression</text><line style="stroke:#181818;stroke-width:1.5;" x1="332.7881" x2="342.7881" y1="503.3906" y2="503.3906"/><rect fill="#F1F1F1" height="35.0938" style="stroke:#181818;stroke-width:1.5;" width="167.3809" x="342.7881" y="485.8438"/><text fill="#000000" font-family="sans-serif" font-size="12" lengthAdjust="spacing" textLength="147.3809" x="352.7881" y="508.3008">member-access-expression</text><line style="stroke:#181818;stroke-width:1.5;" x1="332.7881" x2="342.7881" y1="553.4844" y2="553.4844"/><rect fill="#F1F1F1" height="35.0938" style="stroke:#181818;stroke-width:1.5;" width="112.0449" x="342.7881" y="535.9375"/><text fill="#000000" font-family="sans-serif" font-size="12" lengthAdjust="spacing" textLength="92.0449" x="352.7881" y="558.3945">unary-expression</text><line style="stroke:#181818;stroke-width:1.5;" x1="332.7881" x2="342.7881" y1="603.5781" y2="603.5781"/><rect fill="#F1F1F1" height="35.0938" style="stroke:#181818;stroke-width:1.5;" width="118.707" x="342.7881" y="586.0313"/><text fill="#000000" font-family="sans-serif" font-size="12" lengthAdjust="spacing" textLength="98.707" x="352.7881" y="608.4883">bitwise-expression</text><line style="stroke:#181818;stroke-width:1.5;" x1="332.7881" x2="332.7881" y1="120.1875" y2="603.5781"/><line style="stroke:#181818;stroke-width:1.5;" x1="565.1885" x2="565.1885" y1="65.0938" y2="85.0938"/><rect fill="#F1F1F1" height="35.0938" style="stroke:#181818;stroke-width:1.5;" width="70.0391" x="530.1689" y="85.0938"/><text fill="#000000" font-family="sans-serif" font-size="12" lengthAdjust="spacing" textLength="50.0391" x="540.1689" y="107.5508">operands</text><line style="stroke:#181818;stroke-width:1.5;" x1="565.1885" x2="575.1885" y1="152.7344" y2="152.7344"/><rect fill="#F1F1F1" height="35.0938" style="stroke:#181818;stroke-width:1.5;" width="130.7363" x="575.1885" y="135.1875"/><text fill="#000000" font-family="sans-serif" font-size="12" lengthAdjust="spacing" textLength="110.7363" x="585.1885" y="157.6445">user define functions</text><line style="stroke:#181818;stroke-width:1.5;" x1="565.1885" x2="575.1885" y1="202.8281" y2="202.8281"/><rect fill="#F1F1F1" height="35.0938" style="stroke:#181818;stroke-width:1.5;" width="106.0508" x="575.1885" y="185.2813"/><text fill="#000000" font-family="sans-serif" font-size="12" lengthAdjust="spacing" textLength="86.0508" x="585.1885" y="207.7383">built in functions</text><line style="stroke:#181818;stroke-width:1.5;" x1="565.1885" x2="575.1885" y1="252.9219" y2="252.9219"/><rect fill="#F1F1F1" height="35.0938" style="stroke:#181818;stroke-width:1.5;" width="109.3848" x="575.1885" y="235.375"/><text fill="#000000" font-family="sans-serif" font-size="12" lengthAdjust="spacing" textLength="89.3848" x="585.1885" y="257.832">built in constants</text><line style="stroke:#181818;stroke-width:1.5;" x1="565.1885" x2="575.1885" y1="303.0156" y2="303.0156"/><rect fill="#F1F1F1" height="35.0938" style="stroke:#181818;stroke-width:1.5;" width="98.041" x="575.1885" y="285.4688"/><text fill="#000000" font-family="sans-serif" font-size="12" lengthAdjust="spacing" textLength="78.041" x="585.1885" y="307.9258">user constants</text><line style="stroke:#181818;stroke-width:1.5;" x1="565.1885" x2="575.1885" y1="353.1094" y2="353.1094"/><rect fill="#F1F1F1" height="35.0938" style="stroke:#181818;stroke-width:1.5;" width="68.0234" x="575.1885" y="335.5625"/><text fill="#000000" font-family="sans-serif" font-size="12" lengthAdjust="spacing" textLength="48.0234" x="585.1885" y="358.0195">variables</text><line style="stroke:#181818;stroke-width:1.5;" x1="565.1885" x2="575.1885" y1="403.2031" y2="403.2031"/><rect fill="#F1F1F1" height="35.0938" style="stroke:#181818;stroke-width:1.5;" width="106.0449" x="575.1885" y="385.6563"/><text fill="#000000" font-family="sans-serif" font-size="12" lengthAdjust="spacing" textLength="86.0449" x="585.1885" y="408.1133">built in variables</text><line style="stroke:#181818;stroke-width:1.5;" x1="565.1885" x2="575.1885" y1="453.2969" y2="453.2969"/><rect fill="#F1F1F1" height="35.0938" style="stroke:#181818;stroke-width:1.5;" width="48.6758" x="575.1885" y="435.75"/><text fill="#000000" font-family="sans-serif" font-size="12" lengthAdjust="spacing" textLength="28.6758" x="585.1885" y="458.207">literal</text><line style="stroke:#181818;stroke-width:1.5;" x1="599.5264" x2="609.5264" y1="503.3906" y2="503.3906"/><rect fill="#F1F1F1" height="35.0938" style="stroke:#181818;stroke-width:1.5;" width="95.3516" x="609.5264" y="485.8438"/><text fill="#000000" font-family="sans-serif" font-size="12" lengthAdjust="spacing" textLength="75.3516" x="619.5264" y="508.3008">numeric-literal</text><line style="stroke:#181818;stroke-width:1.5;" x1="599.5264" x2="609.5264" y1="553.4844" y2="553.4844"/><rect fill="#F1F1F1" height="35.0938" style="stroke:#181818;stroke-width:1.5;" width="76.0156" x="609.5264" y="535.9375"/><text fill="#000000" font-family="sans-serif" font-size="12" lengthAdjust="spacing" textLength="56.0156" x="619.5264" y="558.3945">char-literal</text><line style="stroke:#181818;stroke-width:1.5;" x1="599.5264" x2="609.5264" y1="603.5781" y2="603.5781"/><rect fill="#F1F1F1" height="35.0938" style="stroke:#181818;stroke-width:1.5;" width="82.0156" x="609.5264" y="586.0313"/><text fill="#000000" font-family="sans-serif" font-size="12" lengthAdjust="spacing" textLength="62.0156" x="619.5264" y="608.4883">string-literal</text><line style="stroke:#181818;stroke-width:1.5;" x1="599.5264" x2="599.5264" y1="470.8438" y2="603.5781"/><line style="stroke:#181818;stroke-width:1.5;" x1="565.1885" x2="565.1885" y1="120.1875" y2="453.2969"/><line style="stroke:#181818;stroke-width:1.5;" x1="768.2773" x2="768.2773" y1="65.0938" y2="85.0938"/><rect fill="#F1F1F1" height="35.0938" style="stroke:#181818;stroke-width:1.5;" width="84.7051" x="725.9248" y="85.0938"/><text fill="#000000" font-family="sans-serif" font-size="12" lengthAdjust="spacing" textLength="64.7051" x="735.9248" y="107.5508">declarations</text><line style="stroke:#181818;stroke-width:1.5;" x1="768.2773" x2="778.2773" y1="152.7344" y2="152.7344"/><rect fill="#F1F1F1" height="35.0938" style="stroke:#181818;stroke-width:1.5;" width="108.7227" x="778.2773" y="135.1875"/><text fill="#000000" font-family="sans-serif" font-size="12" lengthAdjust="spacing" textLength="88.7227" x="788.2773" y="157.6445">input-declaration</text><line style="stroke:#181818;stroke-width:1.5;" x1="768.2773" x2="778.2773" y1="202.8281" y2="202.8281"/><rect fill="#F1F1F1" height="35.0938" style="stroke:#181818;stroke-width:1.5;" width="116.0645" x="778.2773" y="185.2813"/><text fill="#000000" font-family="sans-serif" font-size="12" lengthAdjust="spacing" textLength="96.0645" x="788.2773" y="207.7383">output-declaration</text><line style="stroke:#181818;stroke-width:1.5;" x1="768.2773" x2="778.2773" y1="252.9219" y2="252.9219"/><rect fill="#F1F1F1" height="35.0938" style="stroke:#181818;stroke-width:1.5;" width="137.3926" x="778.2773" y="235.375"/><text fill="#000000" font-family="sans-serif" font-size="12" lengthAdjust="spacing" textLength="117.3926" x="788.2773" y="257.832">parameter-declaration</text><line style="stroke:#181818;stroke-width:1.5;" x1="768.2773" x2="778.2773" y1="303.0156" y2="303.0156"/><rect fill="#F1F1F1" height="35.0938" style="stroke:#181818;stroke-width:1.5;" width="124.7246" x="778.2773" y="285.4688"/><text fill="#000000" font-family="sans-serif" font-size="12" lengthAdjust="spacing" textLength="104.7246" x="788.2773" y="307.9258">variable-declaration</text><line style="stroke:#181818;stroke-width:1.5;" x1="768.2773" x2="778.2773" y1="353.1094" y2="353.1094"/><rect fill="#F1F1F1" height="35.0938" style="stroke:#181818;stroke-width:1.5;" width="124.7305" x="778.2773" y="335.5625"/><text fill="#000000" font-family="sans-serif" font-size="12" lengthAdjust="spacing" textLength="104.7305" x="788.2773" y="358.0195">function-declaration</text><line style="stroke:#181818;stroke-width:1.5;" x1="768.2773" x2="778.2773" y1="403.2031" y2="403.2031"/><rect fill="#F1F1F1" height="35.0938" style="stroke:#181818;stroke-width:1.5;" width="128.0645" x="778.2773" y="385.6563"/><text fill="#000000" font-family="sans-serif" font-size="12" lengthAdjust="spacing" textLength="108.0645" x="788.2773" y="408.1133">constant-declaration</text><line style="stroke:#181818;stroke-width:1.5;" x1="768.2773" x2="778.2773" y1="453.2969" y2="453.2969"/><rect fill="#F1F1F1" height="35.0938" style="stroke:#181818;stroke-width:1.5;" width="144.7285" x="778.2773" y="435.75"/><text fill="#000000" font-family="sans-serif" font-size="12" lengthAdjust="spacing" textLength="124.7285" x="788.2773" y="458.207">SimplSharp-declaration</text><line style="stroke:#181818;stroke-width:1.5;" x1="850.6416" x2="860.6416" y1="503.3906" y2="503.3906"/><rect fill="#F1F1F1" height="35.0938" style="stroke:#181818;stroke-width:1.5;" width="127.3789" x="860.6416" y="485.8438"/><text fill="#000000" font-family="sans-serif" font-size="12" lengthAdjust="spacing" textLength="107.3789" x="870.6416" y="508.3008">types-ss-declaration</text><line style="stroke:#181818;stroke-width:1.5;" x1="850.6416" x2="860.6416" y1="553.4844" y2="553.4844"/><rect fill="#F1F1F1" height="35.0938" style="stroke:#181818;stroke-width:1.5;" width="150.7402" x="860.6416" y="535.9375"/><text fill="#000000" font-family="sans-serif" font-size="12" lengthAdjust="spacing" textLength="130.7402" x="870.6416" y="558.3945">delegates-ss-declaration</text><line style="stroke:#181818;stroke-width:1.5;" x1="850.6416" x2="860.6416" y1="603.5781" y2="603.5781"/><rect fill="#F1F1F1" height="35.0938" style="stroke:#181818;stroke-width:1.5;" width="134.0527" x="860.6416" y="586.0313"/><text fill="#000000" font-family="sans-serif" font-size="12" lengthAdjust="spacing" textLength="114.0527" x="870.6416" y="608.4883">events-ss-declaration</text><line style="stroke:#181818;stroke-width:1.5;" x1="850.6416" x2="860.6416" y1="653.6719" y2="653.6719"/><rect fill="#F1F1F1" height="35.0938" style="stroke:#181818;stroke-width:1.5;" width="152.0586" x="860.6416" y="636.125"/><text fill="#000000" font-family="sans-serif" font-size="12" lengthAdjust="spacing" textLength="132.0586" x="870.6416" y="658.582">properties-ss-declaration</text><line style="stroke:#181818;stroke-width:1.5;" x1="850.6416" x2="850.6416" y1="470.8438" y2="653.6719"/><line style="stroke:#181818;stroke-width:1.5;" x1="768.2773" x2="778.2773" y1="703.7656" y2="703.7656"/><rect fill="#F1F1F1" height="35.0938" style="stroke:#181818;stroke-width:1.5;" width="156.0547" x="778.2773" y="686.2188"/><text fill="#000000" font-family="sans-serif" font-size="12" lengthAdjust="spacing" textLength="136.0547" x="788.2773" y="708.6758">parameter-list-declaration</text><line style="stroke:#181818;stroke-width:1.5;" x1="768.2773" x2="778.2773" y1="753.8594" y2="753.8594"/><rect fill="#F1F1F1" height="35.0938" style="stroke:#181818;stroke-width:1.5;" width="65.3574" x="778.2773" y="736.3125"/><text fill="#000000" font-family="sans-serif" font-size="12" lengthAdjust="spacing" textLength="45.3574" x="788.2773" y="758.7695">identifier</text><line style="stroke:#181818;stroke-width:1.5;" x1="768.2773" x2="768.2773" y1="120.1875" y2="753.8594"/><line style="stroke:#181818;stroke-width:1.5;" x1="1077.7158" x2="1077.7158" y1="65.0938" y2="85.0938"/><rect fill="#F1F1F1" height="35.0938" style="stroke:#181818;stroke-width:1.5;" width="90.0313" x="1032.7002" y="85.0938"/><text fill="#000000" font-family="sans-serif" font-size="12" lengthAdjust="spacing" textLength="70.0313" x="1042.7002" y="107.5508">preprocessor</text><line style="stroke:#181818;stroke-width:1.5;" x1="1077.7158" x2="1087.7158" y1="152.7344" y2="152.7344"/><rect fill="#F1F1F1" height="35.0938" style="stroke:#181818;stroke-width:1.5;" width="69.3477" x="1087.7158" y="135.1875"/><text fill="#000000" font-family="sans-serif" font-size="12" lengthAdjust="spacing" textLength="49.3477" x="1097.7158" y="157.6445">comment</text><line style="stroke:#181818;stroke-width:1.5;" x1="1077.7158" x2="1087.7158" y1="202.8281" y2="202.8281"/><rect fill="#F1F1F1" height="35.0938" style="stroke:#181818;stroke-width:1.5;" width="176.082" x="1087.7158" y="185.2813"/><text fill="#000000" font-family="sans-serif" font-size="12" lengthAdjust="spacing" textLength="156.082" x="1097.7158" y="207.7383">preprocessor-define-constant</text><line style="stroke:#181818;stroke-width:1.5;" x1="1077.7158" x2="1087.7158" y1="252.9219" y2="252.9219"/><rect fill="#F1F1F1" height="35.0938" style="stroke:#181818;stroke-width:1.5;" width="170.0703" x="1087.7158" y="235.375"/><text fill="#000000" font-family="sans-serif" font-size="12" lengthAdjust="spacing" textLength="150.0703" x="1097.7158" y="257.832">preprocessor-if-ifnot-defined</text><line style="stroke:#181818;stroke-width:1.5;" x1="1077.7158" x2="1087.7158" y1="303.0156" y2="303.0156"/><rect fill="#F1F1F1" height="35.0938" style="stroke:#181818;stroke-width:1.5;" width="120.0488" x="1087.7158" y="285.4688"/><text fill="#000000" font-family="sans-serif" font-size="12" lengthAdjust="spacing" textLength="100.0488" x="1097.7158" y="307.9258">preprocessor-endif</text><line style="stroke:#181818;stroke-width:1.5;" x1="1077.7158" x2="1087.7158" y1="353.1094" y2="353.1094"/><rect fill="#F1F1F1" height="35.0938" style="stroke:#181818;stroke-width:1.5;" width="140.0527" x="1087.7158" y="335.5625"/><text fill="#000000" font-family="sans-serif" font-size="12" lengthAdjust="spacing" textLength="120.0527" x="1097.7158" y="358.0195">preprocessor-category</text><line style="stroke:#181818;stroke-width:1.5;" x1="1077.7158" x2="1087.7158" y1="403.2031" y2="403.2031"/><rect fill="#F1F1F1" height="35.0938" style="stroke:#181818;stroke-width:1.5;" width="126.6992" x="1087.7158" y="385.6563"/><text fill="#000000" font-family="sans-serif" font-size="12" lengthAdjust="spacing" textLength="106.6992" x="1097.7158" y="408.1133">preprocessor-library</text><line style="stroke:#181818;stroke-width:1.5;" x1="1077.7158" x2="1087.7158" y1="453.2969" y2="453.2969"/><rect fill="#F1F1F1" height="35.0938" style="stroke:#181818;stroke-width:1.5;" width="159.4063" x="1087.7158" y="435.75"/><text fill="#000000" font-family="sans-serif" font-size="12" lengthAdjust="spacing" textLength="139.4063" x="1097.7158" y="458.207">preprocessor-include-path</text><line style="stroke:#181818;stroke-width:1.5;" x1="1077.7158" x2="1087.7158" y1="503.3906" y2="503.3906"/><rect fill="#F1F1F1" height="35.0938" style="stroke:#181818;stroke-width:1.5;" width="166.0508" x="1087.7158" y="485.8438"/><text fill="#000000" font-family="sans-serif" font-size="12" lengthAdjust="spacing" textLength="146.0508" x="1097.7158" y="508.3008">preprocessor-symbol-name</text><line style="stroke:#181818;stroke-width:1.5;" x1="1077.7158" x2="1087.7158" y1="553.4844" y2="553.4844"/><rect fill="#F1F1F1" height="35.0938" style="stroke:#181818;stroke-width:1.5;" width="113.375" x="1087.7158" y="535.9375"/><text fill="#000000" font-family="sans-serif" font-size="12" lengthAdjust="spacing" textLength="93.375" x="1097.7158" y="558.3945">preprocessor-hint</text><line style="stroke:#181818;stroke-width:1.5;" x1="1077.7158" x2="1087.7158" y1="603.5781" y2="603.5781"/><rect fill="#F1F1F1" height="35.0938" style="stroke:#181818;stroke-width:1.5;" width="116.7148" x="1087.7158" y="586.0313"/><text fill="#000000" font-family="sans-serif" font-size="12" lengthAdjust="spacing" textLength="96.7148" x="1097.7158" y="608.4883">preprocessor-help</text><line style="stroke:#181818;stroke-width:1.5;" x1="1077.7158" x2="1087.7158" y1="653.6719" y2="653.6719"/><rect fill="#F1F1F1" height="35.0938" style="stroke:#181818;stroke-width:1.5;" width="232.7773" x="1087.7158" y="636.125"/><text fill="#000000" font-family="sans-serif" font-size="12" lengthAdjust="spacing" textLength="212.7773" x="1097.7158" y="658.582">preprocessor-default-nonvolatile-volatile</text><line style="stroke:#181818;stroke-width:1.5;" x1="1077.7158" x2="1087.7158" y1="703.7656" y2="703.7656"/><rect fill="#F1F1F1" height="35.0938" style="stroke:#181818;stroke-width:1.5;" width="208.7773" x="1087.7158" y="686.2188"/><text fill="#000000" font-family="sans-serif" font-size="12" lengthAdjust="spacing" textLength="188.7773" x="1097.7158" y="708.6758">preprocessor-analog-digital-expand</text><line style="stroke:#181818;stroke-width:1.5;" x1="1077.7158" x2="1087.7158" y1="753.8594" y2="753.8594"/><rect fill="#F1F1F1" height="35.0938" style="stroke:#181818;stroke-width:1.5;" width="153.3945" x="1087.7158" y="736.3125"/><text fill="#000000" font-family="sans-serif" font-size="12" lengthAdjust="spacing" textLength="133.3945" x="1097.7158" y="758.7695">preprocessor-output-shift</text><line style="stroke:#181818;stroke-width:1.5;" x1="1077.7158" x2="1087.7158" y1="803.9531" y2="803.9531"/><rect fill="#F1F1F1" height="35.0938" style="stroke:#181818;stroke-width:1.5;" width="220.0684" x="1087.7158" y="786.4063"/><text fill="#000000" font-family="sans-serif" font-size="12" lengthAdjust="spacing" textLength="200.0684" x="1097.7158" y="808.8633">preprocessor-max-internal-buffer-size</text><line style="stroke:#181818;stroke-width:1.5;" x1="1077.7158" x2="1087.7158" y1="854.0469" y2="854.0469"/><rect fill="#F1F1F1" height="35.0938" style="stroke:#181818;stroke-width:1.5;" width="125.3809" x="1087.7158" y="836.5"/><text fill="#000000" font-family="sans-serif" font-size="12" lengthAdjust="spacing" textLength="105.3809" x="1097.7158" y="858.957">preprocessor-single</text><line style="stroke:#181818;stroke-width:1.5;" x1="1077.7158" x2="1087.7158" y1="904.1406" y2="904.1406"/><rect fill="#F1F1F1" height="35.0938" style="stroke:#181818;stroke-width:1.5;" width="239.4336" x="1087.7158" y="886.5938"/><text fill="#000000" font-family="sans-serif" font-size="12" lengthAdjust="spacing" textLength="219.4336" x="1097.7158" y="909.0508">preprocessor-begin-parameter-properties</text><line style="stroke:#181818;stroke-width:1.5;" x1="1077.7158" x2="1087.7158" y1="954.2344" y2="954.2344"/><rect fill="#F1F1F1" height="35.0938" style="stroke:#181818;stroke-width:1.5;" width="233.375" x="1087.7158" y="936.6875"/><text fill="#000000" font-family="sans-serif" font-size="12" lengthAdjust="spacing" textLength="210.0938" x="1097.7158" y="959.1445">preprocessor-end-parameter-properties</text><line style="stroke:#181818;stroke-width:1.5;" x1="1077.7158" x2="1077.7158" y1="120.1875" y2="954.2344"/><line style="stroke:#181818;stroke-width:1.5;" x1="1388.1748" x2="1388.1748" y1="65.0938" y2="85.0938"/><rect fill="#F1F1F1" height="35.0938" style="stroke:#181818;stroke-width:1.5;" width="82.0508" x="1347.1494" y="85.0938"/><text fill="#000000" font-family="sans-serif" font-size="12" lengthAdjust="spacing" textLength="62.0508" x="1357.1494" y="107.5508">punctuation</text><line style="stroke:#181818;stroke-width:1.5;" x1="1388.1748" x2="1398.1748" y1="152.7344" y2="152.7344"/><rect fill="#F1F1F1" height="35.0938" style="stroke:#181818;stroke-width:1.5;" width="138.0605" x="1398.1748" y="135.1875"/><text fill="#000000" font-family="sans-serif" font-size="12" lengthAdjust="spacing" textLength="118.0605" x="1408.1748" y="157.6445">punctuation-arithmetic</text><line style="stroke:#181818;stroke-width:1.5;" x1="1388.1748" x2="1398.1748" y1="202.8281" y2="202.8281"/><rect fill="#F1F1F1" height="35.0938" style="stroke:#181818;stroke-width:1.5;" width="122.7266" x="1398.1748" y="185.2813"/><text fill="#000000" font-family="sans-serif" font-size="12" lengthAdjust="spacing" textLength="102.7266" x="1408.1748" y="207.7383">punctuation-bitwise</text><line style="stroke:#181818;stroke-width:1.5;" x1="1388.1748" x2="1398.1748" y1="252.9219" y2="252.9219"/><rect fill="#F1F1F1" height="35.0938" style="stroke:#181818;stroke-width:1.5;" width="148.0742" x="1398.1748" y="235.375"/><text fill="#000000" font-family="sans-serif" font-size="12" lengthAdjust="spacing" textLength="128.0742" x="1408.1748" y="257.832">punctuation-comparison</text><line style="stroke:#181818;stroke-width:1.5;" x1="1388.1748" x2="1398.1748" y1="303.0156" y2="303.0156"/><rect fill="#F1F1F1" height="35.0938" style="stroke:#181818;stroke-width:1.5;" width="134.7441" x="1398.1748" y="285.4688"/><text fill="#000000" font-family="sans-serif" font-size="12" lengthAdjust="spacing" textLength="114.7441" x="1408.1748" y="307.9258">punctuation-relational</text><line style="stroke:#181818;stroke-width:1.5;" x1="1388.1748" x2="1398.1748" y1="353.1094" y2="353.1094"/><rect fill="#F1F1F1" height="35.0938" style="stroke:#181818;stroke-width:1.5;" width="147.4121" x="1398.1748" y="335.5625"/><text fill="#000000" font-family="sans-serif" font-size="12" lengthAdjust="spacing" textLength="127.4121" x="1408.1748" y="358.0195">punctuation-assignment</text><line style="stroke:#181818;stroke-width:1.5;" x1="1388.1748" x2="1398.1748" y1="403.2031" y2="403.2031"/><rect fill="#F1F1F1" height="35.0938" style="stroke:#181818;stroke-width:1.5;" width="132.752" x="1398.1748" y="385.6563"/><text fill="#000000" font-family="sans-serif" font-size="12" lengthAdjust="spacing" textLength="112.752" x="1408.1748" y="408.1133">punctuation-grouping</text><line style="stroke:#181818;stroke-width:1.5;" x1="1464.5508" x2="1474.5508" y1="453.2969" y2="453.2969"/><rect fill="#F1F1F1" height="35.0938" style="stroke:#181818;stroke-width:1.5;" width="172.0859" x="1474.5508" y="435.75"/><text fill="#000000" font-family="sans-serif" font-size="12" lengthAdjust="spacing" textLength="152.0859" x="1484.5508" y="458.207">punctuation-square-brackets</text><line style="stroke:#181818;stroke-width:1.5;" x1="1464.5508" x2="1474.5508" y1="503.3906" y2="503.3906"/><rect fill="#F1F1F1" height="35.0938" style="stroke:#181818;stroke-width:1.5;" width="152.0938" x="1474.5508" y="485.8438"/><text fill="#000000" font-family="sans-serif" font-size="12" lengthAdjust="spacing" textLength="132.0938" x="1484.5508" y="508.3008">punctuation-parentheses</text><line style="stroke:#181818;stroke-width:1.5;" x1="1464.5508" x2="1464.5508" y1="420.75" y2="503.3906"/><line style="stroke:#181818;stroke-width:1.5;" x1="1388.1748" x2="1398.1748" y1="553.4844" y2="553.4844"/><rect fill="#F1F1F1" height="35.0938" style="stroke:#181818;stroke-width:1.5;" width="132.7285" x="1398.1748" y="535.9375"/><text fill="#000000" font-family="sans-serif" font-size="12" lengthAdjust="spacing" textLength="112.7285" x="1408.1748" y="558.3945">punctuation-structure</text><line style="stroke:#181818;stroke-width:1.5;" x1="1464.5391" x2="1474.5391" y1="603.5781" y2="603.5781"/><rect fill="#F1F1F1" height="35.0938" style="stroke:#181818;stroke-width:1.5;" width="125.3867" x="1474.5391" y="586.0313"/><text fill="#000000" font-family="sans-serif" font-size="12" lengthAdjust="spacing" textLength="105.3867" x="1484.5391" y="608.4883">punctuation-comma</text><line style="stroke:#181818;stroke-width:1.5;" x1="1464.5391" x2="1474.5391" y1="653.6719" y2="653.6719"/><rect fill="#F1F1F1" height="35.0938" style="stroke:#181818;stroke-width:1.5;" width="140.0703" x="1474.5391" y="636.125"/><text fill="#000000" font-family="sans-serif" font-size="12" lengthAdjust="spacing" textLength="120.0703" x="1484.5391" y="658.582">punctuation-semicolon</text><line style="stroke:#181818;stroke-width:1.5;" x1="1464.5391" x2="1474.5391" y1="703.7656" y2="703.7656"/><rect fill="#F1F1F1" height="35.0938" style="stroke:#181818;stroke-width:1.5;" width="102.7285" x="1474.5391" y="686.2188"/><text fill="#000000" font-family="sans-serif" font-size="12" lengthAdjust="spacing" textLength="82.7285" x="1484.5391" y="708.6758">punctuation-dot</text><line style="stroke:#181818;stroke-width:1.5;" x1="1464.5391" x2="1464.5391" y1="571.0313" y2="703.7656"/><line style="stroke:#181818;stroke-width:1.5;" x1="1388.1748" x2="1388.1748" y1="120.1875" y2="553.4844"/><line style="stroke:#181818;stroke-width:1.5;" x1="1704.3105" x2="1704.3105" y1="65.0938" y2="85.0938"/><rect fill="#F1F1F1" height="35.0938" style="stroke:#181818;stroke-width:1.5;" width="75.3477" x="1666.6367" y="85.0938"/><text fill="#000000" font-family="sans-serif" font-size="12" lengthAdjust="spacing" textLength="55.3477" x="1676.6367" y="107.5508">comments</text><line style="stroke:#181818;stroke-width:1.5;" x1="1704.3105" x2="1714.3105" y1="152.7344" y2="152.7344"/><rect fill="#F1F1F1" height="35.0938" style="stroke:#181818;stroke-width:1.5;" width="92.0234" x="1714.3105" y="135.1875"/><text fill="#000000" font-family="sans-serif" font-size="12" lengthAdjust="spacing" textLength="72.0234" x="1724.3105" y="157.6445">comment-line</text><line style="stroke:#181818;stroke-width:1.5;" x1="1704.3105" x2="1714.3105" y1="202.8281" y2="202.8281"/><rect fill="#F1F1F1" height="35.0938" style="stroke:#181818;stroke-width:1.5;" width="101.3574" x="1714.3105" y="185.2813"/><text fill="#000000" font-family="sans-serif" font-size="12" lengthAdjust="spacing" textLength="81.3574" x="1724.3105" y="207.7383">comment-block</text><line style="stroke:#181818;stroke-width:1.5;" x1="1704.3105" x2="1714.3105" y1="252.9219" y2="252.9219"/><rect fill="#F1F1F1" height="35.0938" style="stroke:#181818;stroke-width:1.5;" width="233.375" x="1714.3105" y="235.375"/><text fill="#000000" font-family="sans-serif" font-size="12" lengthAdjust="spacing" textLength="155.3848" x="1724.3105" y="257.832">comment-block-preprocessor</text><line style="stroke:#181818;stroke-width:1.5;" x1="1704.3105" x2="1704.3105" y1="120.1875" y2="252.9219"/><line style="stroke:#181818;stroke-width:1.5;" x1="46.3467" x2="1704.3105" y1="65.0938" y2="65.0938"/><rect fill="#F1F1F1" height="35.0938" style="stroke:#181818;stroke-width:1.5;" width="64.6895" x="842.9839" y="10"/><text fill="#000000" font-family="sans-serif" font-size="12" lengthAdjust="spacing" textLength="44.6895" x="852.9839" y="32.457">Patterns</text><line style="stroke:#181818;stroke-width:1.5;" x1="875.3286" x2="875.3286" y1="45.0938" y2="65.0938"/><line style="stroke:#181818;stroke-width:1.0;" x1="1157.0635" x2="1666.6367" y1="149.7495" y2="105.8837"/><polygon fill="#181818" points="1666.6367,105.8837,1657.3268,102.6704,1661.6551,106.3125,1658.0129,110.6409,1666.6367,105.8837" style="stroke:#181818;stroke-width:1.0;"/><!--SRC=[VLPDRzim33tNlqBegKMXeWssTSXXABOL6uO6A9PkTrbcRAAovEaZNVRhH_aZiIrlG0xMUvH8aOzKxfqNrh_cBhjYJy9xiDfbPrUCO0yrQ9-TqKePqw0k6P_2hmBz3CgjqB8YMovqmGkGwD3ecH7ybj3uY5TafQBrr60lB8fS0HVEOQaZxlWy92aKFngI9oMiY8VEBVE0odFKV1UqRBtIJZMt2WuidR933SN_BRTODsfR2Tlm6dnbYjGgNh6nuEBTspqML1iRXJnZ6c5fImKE_v3Z6NcwVi9Oz1MvHpbd558HKp-eFPHqnHdil8tfdw4rr3dP2Ya9d9D12tkOWpdwLtGmWQ-OQIWKNRXZXbcNOJOas9qgH17-2vQ4U44QE9qpXGOPpFPDuJunz4qB7MgmbBm9AAceKwHFpn6xOcEXzObjWX_hhqLDy4imLLjGrLgfJPab9RV4KOjpOaX1Gem4EgM8yuS6IAekPGfGK9A2brdOTpsuG3KsbjdZqixnZHMwD5Oiw5pS8TYOt7CI3nqNLMViEScV3cziQtWkJHqRuOZIkdCmsj8tC1zIanhWZdxQ-A7LKmlG1UvIM59gIcCFAQEGXjuIWLggK01lXAzIrXtgt2YkAJifIHDq8VWALBDuPn5emccZzoQE6HBHy95Q2vf1fkG5bkYxAK4Dcfhr-dKLxXO2gSLl7WUAZGCj3xiTbJSEi8LRKliiXP53IHFv98wJY1OhicXvraaczaTe5TLfWzRT6IU2dyPbGlMJAy59N-GKtQ3Z4NMQvgcZuyHEgDAQ45_Hlcj6ZFiLw1NW92Fv0kr8cnaS7uaXFUFDtWPQM4YtnPOH2-wWHcdKiNz7L67QrsjeDjTcTEYq7YJ1QvW0EJt6Bod2nrKaLrdVjepp3-sXzrJP-DSZUrBKh3ysZsmFDhuTxFPwTRDwStrtiHMURQ5XDtVqMz- -Nz_UiOVFpopIbzd5bwT7vaom4bY1SLZd8TxZClicze9z3pHRQbYpkBfutbooxSC0iWUzHskwKdtxkUcCs5VZjutnhV6xD_mZHlUMmc8_DzddhjDegpG5LNBDFZMtgxUhx57eCeYIF87EFXdoO0zhzcFx5m00]--></g></svg>