<svg xmlns="http://www.w3.org/2000/svg" xmlns:xlink="http://www.w3.org/1999/xlink" contentStyleType="text/css" height="1065px" preserveAspectRatio="none" style="width:966px;height:1065px;background:#FFFFFF;" version="1.1" viewBox="0 0 966 1065" width="966px" zoomAndPan="magnify"><defs/><g><rect fill="#F1F1F1" height="37.6094" rx="12.5" ry="12.5" style="stroke:#181818;stroke-width:1.5;" width="135.9238" x="387.1592" y="512.9873"/><text fill="#000000" font-family="sans-serif" font-size="14" lengthAdjust="spacing" textLength="115.9238" x="397.1592" y="537.5205">compiler directives</text><rect fill="#F1F1F1" height="91.7773" rx="12.5" ry="12.5" style="stroke:#181818;stroke-width:1.5;" width="381.2588" x="573.083" y="20"/><text fill="#000000" font-family="sans-serif" font-size="14" lengthAdjust="spacing" textLength="246.6816" x="586.9727" y="44.5332">\#ANALOG_SERIAL_EXPAND &lt;value&gt;</text><text fill="#000000" font-family="monospace" font-size="14" lengthAdjust="spacing" textLength="327.6533" x="583.083" y="61.6846">value:&#160;Separately&#160;|&#160;OutputsWithParams&#160;|</text><text fill="#000000" font-family="monospace" font-size="14" lengthAdjust="spacing" textLength="361.2588" x="583.083" y="79.9639">InputsWithOutputs&#160;|&#160;AllWithAny&#160;|&#160;PWithIxorO</text><text fill="#000000" font-family="sans-serif" font-size="14" lengthAdjust="spacing" textLength="3.8896" x="583.083" y="98.7012">&#160;</text><path d="M523.083,531.792 L533.083,531.792 C548.083,531.792 548.083,65.8887 563.083,65.8887 L573.083,65.8887 " fill="none" style="stroke:#181818;stroke-width:1.0;"/><rect fill="#F1F1F1" height="72.8281" rx="12.5" ry="12.5" style="stroke:#181818;stroke-width:1.5;" width="272.0684" x="573.083" y="131.7773"/><text fill="#000000" font-family="sans-serif" font-size="14" lengthAdjust="spacing" textLength="248.1787" x="583.083" y="156.3105">\#BEGIN_PARAMETER_PROPERTIES</text><text fill="#000000" font-family="sans-serif" font-size="14" lengthAdjust="spacing" textLength="100.3926" x="583.083" y="173.9199">{prop directives}</text><text fill="#000000" font-family="sans-serif" font-size="14" lengthAdjust="spacing" textLength="11.6758" x="583.083" y="191.5293">1.</text><text fill="#000000" font-family="sans-serif" font-size="14" lengthAdjust="spacing" textLength="222.4961" x="598.6484" y="191.5293">END_PARAMETER_PROPERTIES</text><path d="M523.083,531.792 L533.083,531.792 C548.083,531.792 548.083,168.1914 563.083,168.1914 L573.083,168.1914 " fill="none" style="stroke:#181818;stroke-width:1.0;"/><rect fill="#F1F1F1" height="37.6094" rx="12.5" ry="12.5" style="stroke:#181818;stroke-width:1.5;" width="229.125" x="573.083" y="224.6055"/><text fill="#000000" font-family="sans-serif" font-size="14" lengthAdjust="spacing" textLength="209.125" x="583.083" y="249.1387">\#CATEGORY "category number"</text><path d="M523.083,531.792 L533.083,531.792 C548.083,531.792 548.083,243.4102 563.083,243.4102 L573.083,243.4102 " fill="none" style="stroke:#181818;stroke-width:1.0;"/><rect fill="#F1F1F1" height="37.6094" rx="12.5" ry="12.5" style="stroke:#181818;stroke-width:1.5;" width="268.7871" x="573.083" y="282.2148"/><text fill="#000000" font-family="sans-serif" font-size="14" lengthAdjust="spacing" textLength="248.7871" x="583.083" y="306.748">\#CRESTRON_LIBRARY "library name"</text><path d="M523.083,531.792 L533.083,531.792 C548.083,531.792 548.083,301.0195 563.083,301.0195 L573.083,301.0195 " fill="none" style="stroke:#181818;stroke-width:1.0;"/><rect fill="#F1F1F1" height="37.6094" rx="12.5" ry="12.5" style="stroke:#181818;stroke-width:1.5;" width="366.8213" x="573.083" y="339.8242"/><text fill="#000000" font-family="sans-serif" font-size="14" lengthAdjust="spacing" textLength="346.8213" x="583.083" y="364.3574">\#CRESTRON_SIMPLSHARP_LIBRARY "library name"</text><path d="M523.083,531.792 L533.083,531.792 C548.083,531.792 548.083,358.6289 563.083,358.6289 L573.083,358.6289 " fill="none" style="stroke:#181818;stroke-width:1.0;"/><rect fill="#F1F1F1" height="37.6094" rx="12.5" ry="12.5" style="stroke:#181818;stroke-width:1.5;" width="205.165" x="573.083" y="397.4336"/><text fill="#000000" font-family="sans-serif" font-size="14" lengthAdjust="spacing" textLength="181.2754" x="583.083" y="421.9668">\#DEFAULT_NONVOLATILE</text><path d="M523.083,531.792 L533.083,531.792 C548.083,531.792 548.083,416.2383 563.083,416.2383 L573.083,416.2383 " fill="none" style="stroke:#181818;stroke-width:1.0;"/><rect fill="#F1F1F1" height="37.6094" rx="12.5" ry="12.5" style="stroke:#181818;stroke-width:1.5;" width="174.0547" x="573.083" y="455.043"/><text fill="#000000" font-family="sans-serif" font-size="14" lengthAdjust="spacing" textLength="150.165" x="583.083" y="479.5762">\#DEFAULT_VOLATILE</text><path d="M523.083,531.792 L533.083,531.792 C548.083,531.792 548.083,473.8477 563.083,473.8477 L573.083,473.8477 " fill="none" style="stroke:#181818;stroke-width:1.0;"/><rect fill="#F1F1F1" height="37.6094" rx="12.5" ry="12.5" style="stroke:#181818;stroke-width:1.5;" width="294.668" x="573.083" y="512.6523"/><text fill="#000000" font-family="sans-serif" font-size="14" lengthAdjust="spacing" textLength="274.668" x="583.083" y="537.1855">\#DEFINE_CONSTANT &lt;identifier&gt; &lt;value&gt;</text><path d="M523.083,531.792 L533.083,531.792 C548.083,531.792 548.083,531.457 563.083,531.457 L573.083,531.457 " fill="none" style="stroke:#181818;stroke-width:1.0;"/><rect fill="#F1F1F1" height="127.666" rx="12.5" ry="12.5" style="stroke:#181818;stroke-width:1.5;" width="356.0547" x="573.083" y="570.2617"/><text fill="#000000" font-family="sans-serif" font-size="14" lengthAdjust="spacing" textLength="131.4893" x="586.9727" y="594.7949">\#DIGITAL_EXPAND</text><text fill="#000000" font-family="sans-serif" font-size="14" lengthAdjust="spacing" textLength="49.8203" x="583.083" y="612.4043">&lt;value&gt;</text><text fill="#000000" font-family="monospace" font-size="14" lengthAdjust="spacing" textLength="327.6533" x="583.083" y="629.5557">value:&#160;Separately&#160;|&#160;OutputsWithParams&#160;|</text><text fill="#000000" font-family="monospace" font-size="14" lengthAdjust="spacing" textLength="319.252" x="583.083" y="647.835">InputsWithOutputs&#160;|&#160;InputsWithParams&#160;|</text><text fill="#000000" font-family="monospace" font-size="14" lengthAdjust="spacing" textLength="193.2314" x="583.083" y="666.1143">AllWithAny&#160;|&#160;PWithIxorO</text><text fill="#000000" font-family="sans-serif" font-size="14" lengthAdjust="spacing" textLength="3.8896" x="583.083" y="684.8516">&#160;</text><path d="M523.083,531.792 L533.083,531.792 C548.083,531.792 548.083,634.0947 563.083,634.0947 L573.083,634.0947 " fill="none" style="stroke:#181818;stroke-width:1.0;"/><rect fill="#F1F1F1" height="37.6094" rx="12.5" ry="12.5" style="stroke:#181818;stroke-width:1.5;" width="226.958" x="573.083" y="717.9277"/><text fill="#000000" font-family="sans-serif" font-size="14" lengthAdjust="spacing" textLength="203.0684" x="583.083" y="742.4609">\#ENABLE_STACK_CHECKING</text><path d="M523.083,531.792 L533.083,531.792 C548.083,531.792 548.083,736.7324 563.083,736.7324 L573.083,736.7324 " fill="none" style="stroke:#181818;stroke-width:1.0;"/><rect fill="#F1F1F1" height="37.6094" rx="12.5" ry="12.5" style="stroke:#181818;stroke-width:1.5;" width="146.0479" x="573.083" y="775.5371"/><text fill="#000000" font-family="sans-serif" font-size="14" lengthAdjust="spacing" textLength="122.1582" x="583.083" y="800.0703">\#ENABLE_TRACE</text><path d="M523.083,531.792 L533.083,531.792 C548.083,531.792 548.083,794.3418 563.083,794.3418 L573.083,794.3418 " fill="none" style="stroke:#181818;stroke-width:1.0;"/><rect fill="#F1F1F1" height="37.6094" rx="12.5" ry="12.5" style="stroke:#181818;stroke-width:1.5;" width="155.3652" x="573.083" y="833.1465"/><text fill="#000000" font-family="sans-serif" font-size="14" lengthAdjust="spacing" textLength="131.4756" x="583.083" y="857.6797">\#ENCODING_ASCII</text><path d="M523.083,531.792 L533.083,531.792 C548.083,531.792 548.083,851.9512 563.083,851.9512 L573.083,851.9512 " fill="none" style="stroke:#181818;stroke-width:1.0;"/><rect fill="#F1F1F1" height="37.6094" rx="12.5" ry="12.5" style="stroke:#181818;stroke-width:1.5;" width="161.5859" x="573.083" y="890.7559"/><text fill="#000000" font-family="sans-serif" font-size="14" lengthAdjust="spacing" textLength="137.6963" x="583.083" y="915.2891">\#ENCODING_UTF16</text><path d="M523.083,531.792 L533.083,531.792 C548.083,531.792 548.083,909.5605 563.083,909.5605 L573.083,909.5605 " fill="none" style="stroke:#181818;stroke-width:1.0;"/><rect fill="#F1F1F1" height="37.6094" rx="12.5" ry="12.5" style="stroke:#181818;stroke-width:1.5;" width="288.3721" x="573.083" y="948.3652"/><text fill="#000000" font-family="sans-serif" font-size="14" lengthAdjust="spacing" textLength="264.4824" x="583.083" y="972.8984">\#ENCODING_INHERIT_FROM_PARENT</text><path d="M523.083,531.792 L533.083,531.792 C548.083,531.792 548.083,967.1699 563.083,967.1699 L573.083,967.1699 " fill="none" style="stroke:#181818;stroke-width:1.0;"/><rect fill="#F1F1F1" height="37.6094" rx="12.5" ry="12.5" style="stroke:#181818;stroke-width:1.5;" width="303.9238" x="573.083" y="1005.9746"/><text fill="#000000" font-family="sans-serif" font-size="14" lengthAdjust="spacing" textLength="280.0342" x="583.083" y="1030.5078">\#ENCODING_INHERIT_FROM_PROGRAM</text><path d="M523.083,531.792 L533.083,531.792 C548.083,531.792 548.083,1024.7793 563.083,1024.7793 L573.083,1024.7793 " fill="none" style="stroke:#181818;stroke-width:1.0;"/><rect fill="#F1F1F1" height="37.6094" rx="12.5" ry="12.5" style="stroke:#181818;stroke-width:1.5;" width="135.001" x="202.1582" y="80.917"/><text fill="#000000" font-family="sans-serif" font-size="14" lengthAdjust="spacing" textLength="115.001" x="212.1582" y="105.4502">\#HELP "help text"</text><path d="M387.1592,531.792 L377.1592,531.792 C362.1592,531.792 362.1592,99.7217 347.1592,99.7217 L337.1592,99.7217 " fill="none" style="stroke:#181818;stroke-width:1.0;"/><rect fill="#F1F1F1" height="37.6094" rx="12.5" ry="12.5" style="stroke:#181818;stroke-width:1.5;" width="272.123" x="65.0361" y="138.5264"/><text fill="#000000" font-family="sans-serif" font-size="14" lengthAdjust="spacing" textLength="248.2334" x="75.0361" y="163.0596">\#HELP_BEGIN help lines #HELP_END</text><path d="M387.1592,531.792 L377.1592,531.792 C362.1592,531.792 362.1592,157.3311 347.1592,157.3311 L337.1592,157.3311 " fill="none" style="stroke:#181818;stroke-width:1.0;"/><rect fill="#F1F1F1" height="37.6094" rx="12.5" ry="12.5" style="stroke:#181818;stroke-width:1.5;" width="127.1943" x="209.9648" y="196.1357"/><text fill="#000000" font-family="sans-serif" font-size="14" lengthAdjust="spacing" textLength="107.1943" x="219.9648" y="220.6689">\#HINT "hint text"</text><path d="M387.1592,531.792 L377.1592,531.792 C362.1592,531.792 362.1592,214.9404 347.1592,214.9404 L337.1592,214.9404 " fill="none" style="stroke:#181818;stroke-width:1.0;"/><rect fill="#F1F1F1" height="37.6094" rx="12.5" ry="12.5" style="stroke:#181818;stroke-width:1.5;" width="259.6338" x="77.5254" y="253.7451"/><text fill="#000000" font-family="sans-serif" font-size="14" lengthAdjust="spacing" textLength="235.7441" x="87.5254" y="278.2783">\#IF_DEFINED &lt;statements&gt; #ENDIF</text><path d="M387.1592,531.792 L377.1592,531.792 C362.1592,531.792 362.1592,272.5498 347.1592,272.5498 L337.1592,272.5498 " fill="none" style="stroke:#181818;stroke-width:1.0;"/><rect fill="#F1F1F1" height="37.6094" rx="12.5" ry="12.5" style="stroke:#181818;stroke-width:1.5;" width="296.9717" x="40.1875" y="311.3545"/><text fill="#000000" font-family="sans-serif" font-size="14" lengthAdjust="spacing" textLength="273.082" x="50.1875" y="335.8877">\#IF_NOT_DEFINED &lt;statements&gt; #ENDIF</text><path d="M387.1592,531.792 L377.1592,531.792 C362.1592,531.792 362.1592,330.1592 347.1592,330.1592 L337.1592,330.1592 " fill="none" style="stroke:#181818;stroke-width:1.0;"/><rect fill="#F1F1F1" height="37.6094" rx="12.5" ry="12.5" style="stroke:#181818;stroke-width:1.5;" width="257.3232" x="79.8359" y="368.9639"/><text fill="#000000" font-family="sans-serif" font-size="14" lengthAdjust="spacing" textLength="233.4336" x="89.8359" y="393.4971">\#IF_SERIES2 &lt;statements&gt; #ENDIF</text><path d="M387.1592,531.792 L377.1592,531.792 C362.1592,531.792 362.1592,387.7686 347.1592,387.7686 L337.1592,387.7686 " fill="none" style="stroke:#181818;stroke-width:1.0;"/><rect fill="#F1F1F1" height="37.6094" rx="12.5" ry="12.5" style="stroke:#181818;stroke-width:1.5;" width="257.3232" x="79.8359" y="426.5732"/><text fill="#000000" font-family="sans-serif" font-size="14" lengthAdjust="spacing" textLength="233.4336" x="89.8359" y="451.1064">\#IF_SERIES3 &lt;statements&gt; #ENDIF</text><path d="M387.1592,531.792 L377.1592,531.792 C362.1592,531.792 362.1592,445.3779 347.1592,445.3779 L337.1592,445.3779 " fill="none" style="stroke:#181818;stroke-width:1.0;"/><rect fill="#F1F1F1" height="37.6094" rx="12.5" ry="12.5" style="stroke:#181818;stroke-width:1.5;" width="257.3232" x="79.8359" y="484.1826"/><text fill="#000000" font-family="sans-serif" font-size="14" lengthAdjust="spacing" textLength="233.4336" x="89.8359" y="508.7158">\#IF_SERIES4 &lt;statements&gt; #ENDIF</text><path d="M387.1592,531.792 L377.1592,531.792 C362.1592,531.792 362.1592,502.9873 347.1592,502.9873 L337.1592,502.9873 " fill="none" style="stroke:#181818;stroke-width:1.0;"/><rect fill="#F1F1F1" height="37.6094" rx="12.5" ry="12.5" style="stroke:#181818;stroke-width:1.5;" width="228.3662" x="108.793" y="541.792"/><text fill="#000000" font-family="sans-serif" font-size="14" lengthAdjust="spacing" textLength="208.3662" x="118.793" y="566.3252">\#INCLUDEPATH "absolute path"</text><path d="M387.1592,531.792 L377.1592,531.792 C362.1592,531.792 362.1592,560.5967 347.1592,560.5967 L337.1592,560.5967 " fill="none" style="stroke:#181818;stroke-width:1.0;"/><rect fill="#F1F1F1" height="37.6094" rx="12.5" ry="12.5" style="stroke:#181818;stroke-width:1.5;" width="137.4893" x="199.6699" y="599.4014"/><text fill="#000000" font-family="sans-serif" font-size="14" lengthAdjust="spacing" textLength="113.5996" x="209.6699" y="623.9346">\#LARGE_STACK</text><path d="M387.1592,531.792 L377.1592,531.792 C362.1592,531.792 362.1592,618.2061 347.1592,618.2061 L337.1592,618.2061 " fill="none" style="stroke:#181818;stroke-width:1.0;"/><rect fill="#F1F1F1" height="37.6094" rx="12.5" ry="12.5" style="stroke:#181818;stroke-width:1.5;" width="286.8613" x="50.2979" y="657.0107"/><text fill="#000000" font-family="sans-serif" font-size="14" lengthAdjust="spacing" textLength="266.8613" x="60.2979" y="681.5439">\#MAX_INTERNAL_BUFFER_SIZE &lt;size&gt;</text><path d="M387.1592,531.792 L377.1592,531.792 C362.1592,531.792 362.1592,675.8154 347.1592,675.8154 L337.1592,675.8154 " fill="none" style="stroke:#181818;stroke-width:1.0;"/><rect fill="#F1F1F1" height="37.6094" rx="12.5" ry="12.5" style="stroke:#181818;stroke-width:1.5;" width="182.5928" x="154.5664" y="714.6201"/><text fill="#000000" font-family="sans-serif" font-size="14" lengthAdjust="spacing" textLength="162.5928" x="164.5664" y="739.1533">\#OUTPUT_SHIFT &lt;size&gt;</text><path d="M387.1592,531.792 L377.1592,531.792 C362.1592,531.792 362.1592,733.4248 347.1592,733.4248 L337.1592,733.4248 " fill="none" style="stroke:#181818;stroke-width:1.0;"/><rect fill="#F1F1F1" height="37.6094" rx="12.5" ry="12.5" style="stroke:#181818;stroke-width:1.5;" width="160.0273" x="177.1318" y="772.2295"/><text fill="#000000" font-family="sans-serif" font-size="14" lengthAdjust="spacing" textLength="136.1377" x="187.1318" y="796.7627">\#PRINT_TO_TRACE</text><path d="M387.1592,531.792 L377.1592,531.792 C362.1592,531.792 362.1592,791.0342 347.1592,791.0342 L337.1592,791.0342 " fill="none" style="stroke:#181818;stroke-width:1.0;"/><rect fill="#F1F1F1" height="37.6094" rx="12.5" ry="12.5" style="stroke:#181818;stroke-width:1.5;" width="235.3457" x="101.8135" y="829.8389"/><text fill="#000000" font-family="sans-serif" font-size="14" lengthAdjust="spacing" textLength="215.3457" x="111.8135" y="854.3721">\#SYMBOL_NAME "symbol name"</text><path d="M387.1592,531.792 L377.1592,531.792 C362.1592,531.792 362.1592,848.6436 347.1592,848.6436 L337.1592,848.6436 " fill="none" style="stroke:#181818;stroke-width:1.0;"/><rect fill="#F1F1F1" height="37.6094" rx="12.5" ry="12.5" style="stroke:#181818;stroke-width:1.5;" width="229.125" x="108.0342" y="887.4482"/><text fill="#000000" font-family="sans-serif" font-size="14" lengthAdjust="spacing" textLength="209.125" x="118.0342" y="911.9814">\#USER_LIBRARY "library name"</text><path d="M387.1592,531.792 L377.1592,531.792 C362.1592,531.792 362.1592,906.2529 347.1592,906.2529 L337.1592,906.2529 " fill="none" style="stroke:#181818;stroke-width:1.0;"/><rect fill="#F1F1F1" height="37.6094" rx="12.5" ry="12.5" style="stroke:#181818;stroke-width:1.5;" width="327.1592" x="10" y="945.0576"/><text fill="#000000" font-family="sans-serif" font-size="14" lengthAdjust="spacing" textLength="307.1592" x="20" y="969.5908">\#USER_SIMPLSHARP_LIBRARY "library name"</text><path d="M387.1592,531.792 L377.1592,531.792 C362.1592,531.792 362.1592,963.8623 347.1592,963.8623 L337.1592,963.8623 " fill="none" style="stroke:#181818;stroke-width:1.0;"/><!--SRC=[hLJRJjj047ttLup22nH1IKgXIYF4njaa2xx9NbEea5PEiYGh-IPx7P5U_htZN0ZGbkQXaYLxpvpP6U-PivUbZWgTg7IIHBbn2ECioLKi2vYeGewrcilIUFUk3VTxn26MEn01zHcn1BtrYDE3pZoAAtbXTCRP15_BLHi2cKT5f6MyW1_WLZglTFb5wPc7Q58YPh1qWwt3298uhW6IrbbU_SaUiy8rEkzNctys3W-nZouTC4Tun2SsvTGNdkzwrEUC1d2VVi-BB7_M-q_4zgZJ-pD_jQ59E1su_XqqnjZpD2iMa5R9I1QDTTod0VTTHrYiwvEQ5wjH4TMqA96lIG6pFIiO4jzxaz-ZVH9QN3YkS-DQX3EBmil8xp1pg31T9-34uT1H4vbgzQ1aSV4amqgf7XimljN8-9yYRR4DpzXHD-gGhaK5TczU2tD8pMlc3E15ZFl4f4-GwVQG8KXWClOQ37c_UVOQPCuGXvEBlk_QjU0KZ-bDYkyES2h0E3f2pf1Q7ZHcCiv1oqVTsA9YENAm3CKgbIMiO5eVxeh5i5HZfbBzF9VrnKerz0dQJCi45Iile1v8reSdakFotOYrzsZGseNqOHVIwLianxJ27lK87q8Z6fLPN6a9UQHdwx-pY3zOoxbEiSaj7Z1w36yAqGtxVNHRmBvIhAA-uI0iIMx8lP2BOCZw_4N0yp5NS7Sp1KimkBExhYKSz2uqoaKookArYvRX4F_ZRpRR4lvjoKk9zz_w3ZIyE4frQ5imbqMfiXIQnwsJrkdn-NuGwTesS7AEJxlvgTqy1zhZK8SFZFs1Pq6PLSLOuWrKwaADAetv1yPLD8_0hz2k2HglNkrp-m02kW61fdDLP6ajX75rOwz8CCnqa6TwIJuxFUggkdo1RS6DRVJaGrJ56bFHPYgTji7CcwsFBSEAqcaLJR6IJ0qpmmh5eWrXy0i0]--></g></svg>