<svg xmlns="http://www.w3.org/2000/svg" xmlns:xlink="http://www.w3.org/1999/xlink" contentStyleType="text/css" height="956px" preserveAspectRatio="none" style="width:1348px;height:956px;background:#FFFFFF;" version="1.1" viewBox="0 0 1348 956" width="1348px" zoomAndPan="magnify"><defs/><g><rect fill="#F1F1F1" height="110.0566" rx="12.5" ry="12.5" style="stroke:#181818;stroke-width:1.5;" width="465.2725" x="10" y="421.9922"/><text fill="#000000" font-family="sans-serif" font-size="14" lengthAdjust="spacing" textLength="75.4893" x="23.8896" y="446.5254">declarations</text><text fill="#000000" font-family="monospace" font-size="14" lengthAdjust="spacing" textLength="352.8574" x="20" y="463.6768">introduces&#160;an&#160;identifier&#160;into&#160;the&#160;language</text><text fill="#000000" font-family="monospace" font-size="14" lengthAdjust="spacing" textLength="201.6328" x="20" y="481.9561">and&#160;identifier&#160;syntax&#160;is</text><text fill="#000000" font-family="monospace" font-size="14" lengthAdjust="spacing" textLength="445.2725" x="20" y="500.2354">a-z,&#160;A-Z,&#160;0-9,&#160;#,&#160;_,&#160;and&#160;$&#160;but&#160;may&#160;not&#160;begin&#160;with&#160;0-9</text><text fill="#000000" font-family="sans-serif" font-size="14" lengthAdjust="spacing" textLength="3.8896" x="20" y="518.9727">&#160;</text><rect fill="#F1F1F1" height="37.6094" rx="12.5" ry="12.5" style="stroke:#181818;stroke-width:1.5;" width="50.3584" x="525.2725" y="30.4141"/><text fill="#000000" font-family="sans-serif" font-size="14" lengthAdjust="spacing" textLength="30.3584" x="535.2725" y="54.9473">input</text><text fill="#000000" font-family="sans-serif" font-size="14" lengthAdjust="spacing" textLength="255.1787" x="628.6309" y="25.5332">DIGITAL_INPUT identifier[size[,min]], ... ;</text><path d="M575.6309,49.2188 L585.6309,49.2188 C600.6309,49.2188 600.6309,19.8047 615.6309,19.8047 L625.6309,19.8047 " fill="none" style="stroke:#181818;stroke-width:1.0;"/><text fill="#000000" font-family="sans-serif" font-size="14" lengthAdjust="spacing" textLength="259.0752" x="628.6309" y="45.1426">ANALOG_INPUT identifier[size[,min]], ... ;</text><path d="M575.6309,49.2188 L585.6309,49.2188 C600.6309,49.2188 600.6309,39.4141 615.6309,39.4141 L625.6309,39.4141 " fill="none" style="stroke:#181818;stroke-width:1.0;"/><text fill="#000000" font-family="sans-serif" font-size="14" lengthAdjust="spacing" textLength="329.8613" x="628.6309" y="64.752">STRING_INPUT identifier[size[,min]][max_chars], ... ;</text><path d="M575.6309,49.2188 L585.6309,49.2188 C600.6309,49.2188 600.6309,59.0234 615.6309,59.0234 L625.6309,59.0234 " fill="none" style="stroke:#181818;stroke-width:1.0;"/><text fill="#000000" font-family="sans-serif" font-size="14" lengthAdjust="spacing" textLength="332.9717" x="628.6309" y="84.3613">BUFFER_INPUT identifier[size[,min]][max_chars], ... ;</text><path d="M575.6309,49.2188 L585.6309,49.2188 C600.6309,49.2188 600.6309,78.6328 615.6309,78.6328 L625.6309,78.6328 " fill="none" style="stroke:#181818;stroke-width:1.0;"/><path d="M475.2725,477.0205 L485.2725,477.0205 C500.2725,477.0205 500.2725,49.2188 515.2725,49.2188 L525.2725,49.2188 " fill="none" style="stroke:#181818;stroke-width:1.0;"/><rect fill="#F1F1F1" height="37.6094" rx="12.5" ry="12.5" style="stroke:#181818;stroke-width:1.5;" width="58.9238" x="525.2725" y="99.0469"/><text fill="#000000" font-family="sans-serif" font-size="14" lengthAdjust="spacing" textLength="38.9238" x="535.2725" y="123.5801">output</text><text fill="#000000" font-family="sans-serif" font-size="14" lengthAdjust="spacing" textLength="270.7305" x="637.1963" y="103.9707">DIGITAL_OUTPUT identifier[size[,min]], ... ;</text><path d="M584.1963,117.8516 L594.1963,117.8516 C609.1963,117.8516 609.1963,98.2422 624.1963,98.2422 L634.1963,98.2422 " fill="none" style="stroke:#181818;stroke-width:1.0;"/><text fill="#000000" font-family="sans-serif" font-size="14" lengthAdjust="spacing" textLength="274.627" x="637.1963" y="123.5801">ANALOG_OUTPUT identifier[size[,min]], ... ;</text><path d="M584.1963,117.8516 L594.1963,117.8516 C609.1963,117.8516 609.1963,117.8516 624.1963,117.8516 L634.1963,117.8516 " fill="none" style="stroke:#181818;stroke-width:1.0;"/><text fill="#000000" font-family="sans-serif" font-size="14" lengthAdjust="spacing" textLength="345.4131" x="637.1963" y="143.1895">STRING_OUTPUT identifier[size[,min]][max_chars], ... ;</text><path d="M584.1963,117.8516 L594.1963,117.8516 C609.1963,117.8516 609.1963,137.4609 624.1963,137.4609 L634.1963,137.4609 " fill="none" style="stroke:#181818;stroke-width:1.0;"/><path d="M475.2725,477.0205 L485.2725,477.0205 C500.2725,477.0205 500.2725,117.8516 515.2725,117.8516 L525.2725,117.8516 " fill="none" style="stroke:#181818;stroke-width:1.0;"/><rect fill="#F1F1F1" height="37.6094" rx="12.5" ry="12.5" style="stroke:#181818;stroke-width:1.5;" width="83.8066" x="525.2725" y="177.4844"/><text fill="#000000" font-family="sans-serif" font-size="14" lengthAdjust="spacing" textLength="63.8066" x="535.2725" y="202.0176">parameter</text><text fill="#000000" font-family="sans-serif" font-size="14" lengthAdjust="spacing" textLength="273.8477" x="662.0791" y="162.7988">INTEGER_PARAMETER identifier[size], ... ;</text><path d="M609.0791,196.2891 L619.0791,196.2891 C634.0791,196.2891 634.0791,157.0703 649.0791,157.0703 L659.0791,157.0703 " fill="none" style="stroke:#181818;stroke-width:1.0;"/><text fill="#000000" font-family="sans-serif" font-size="14" lengthAdjust="spacing" textLength="335.3096" x="662.0791" y="182.4082">SIGNED_INTEGER_PARAMETER identifier[size], ... ;</text><path d="M609.0791,196.2891 L619.0791,196.2891 C634.0791,196.2891 634.0791,176.6797 649.0791,176.6797 L659.0791,176.6797 " fill="none" style="stroke:#181818;stroke-width:1.0;"/><text fill="#000000" font-family="sans-serif" font-size="14" lengthAdjust="spacing" textLength="321.3096" x="662.0791" y="202.0176">LONG_INTEGER_PARAMETER identifier[size], ... ;</text><path d="M609.0791,196.2891 L619.0791,196.2891 C634.0791,196.2891 634.0791,196.2891 649.0791,196.2891 L659.0791,196.2891 " fill="none" style="stroke:#181818;stroke-width:1.0;"/><text fill="#000000" font-family="sans-serif" font-size="14" lengthAdjust="spacing" textLength="382.7715" x="662.0791" y="221.627">SIGNED_LONG_INTEGER_PARAMETER identifier[size], ... ;</text><path d="M609.0791,196.2891 L619.0791,196.2891 C634.0791,196.2891 634.0791,215.8984 649.0791,215.8984 L659.0791,215.8984 " fill="none" style="stroke:#181818;stroke-width:1.0;"/><text fill="#000000" font-family="sans-serif" font-size="14" lengthAdjust="spacing" textLength="340.7578" x="662.0791" y="241.2363">STRING_PARAMETER identifier[size][max_chars], ... ;</text><path d="M609.0791,196.2891 L619.0791,196.2891 C634.0791,196.2891 634.0791,235.5078 649.0791,235.5078 L659.0791,235.5078 " fill="none" style="stroke:#181818;stroke-width:1.0;"/><path d="M475.2725,477.0205 L485.2725,477.0205 C500.2725,477.0205 500.2725,196.2891 515.2725,196.2891 L525.2725,196.2891 " fill="none" style="stroke:#181818;stroke-width:1.0;"/><rect fill="#F1F1F1" height="110.0566" rx="12.5" ry="12.5" style="stroke:#181818;stroke-width:1.5;" width="347.6533" x="525.2725" y="255.3125"/><text fill="#000000" font-family="sans-serif" font-size="14" lengthAdjust="spacing" textLength="56.0273" x="539.1621" y="279.8457">variables</text><text fill="#000000" font-family="monospace" font-size="14" lengthAdjust="spacing" textLength="302.4492" x="535.2725" y="296.9971">modifiers&#160;are&#160;VOLATILE,&#160;NONVOLATILE,</text><text fill="#000000" font-family="monospace" font-size="14" lengthAdjust="spacing" textLength="210.0342" x="535.2725" y="315.2764">DYNAMIC&#160;(for&#160;arrays&#160;only)</text><text fill="#000000" font-family="monospace" font-size="14" lengthAdjust="spacing" textLength="327.6533" x="535.2725" y="333.5557">ASCII,&#160;UTF16,&#160;INHERIT&#160;(for&#160;string&#160;only)</text><text fill="#000000" font-family="sans-serif" font-size="14" lengthAdjust="spacing" textLength="3.8896" x="535.2725" y="352.293">&#160;</text><text fill="#000000" font-family="sans-serif" font-size="14" lengthAdjust="spacing" textLength="240.3994" x="925.9258" y="267.0459">[modifier] INTEGER identifier[size], ... ;</text><path d="M872.9258,310.3408 L882.9258,310.3408 C897.9258,310.3408 897.9258,261.3174 912.9258,261.3174 L922.9258,261.3174 " fill="none" style="stroke:#181818;stroke-width:1.0;"/><text fill="#000000" font-family="sans-serif" font-size="14" lengthAdjust="spacing" textLength="301.8613" x="925.9258" y="286.6553">[modifier] SIGNED_INTEGER identifier[size], ... ;</text><path d="M872.9258,310.3408 L882.9258,310.3408 C897.9258,310.3408 897.9258,280.9268 912.9258,280.9268 L922.9258,280.9268 " fill="none" style="stroke:#181818;stroke-width:1.0;"/><text fill="#000000" font-family="sans-serif" font-size="14" lengthAdjust="spacing" textLength="287.8613" x="925.9258" y="306.2646">[modifier] LONG_INTEGER identifier[size], ... ;</text><path d="M872.9258,310.3408 L882.9258,310.3408 C897.9258,310.3408 897.9258,300.5361 912.9258,300.5361 L922.9258,300.5361 " fill="none" style="stroke:#181818;stroke-width:1.0;"/><text fill="#000000" font-family="sans-serif" font-size="14" lengthAdjust="spacing" textLength="349.3232" x="925.9258" y="325.874">[modifier] SIGNED_LONG_INTEGER identifier[size], ... ;</text><path d="M872.9258,310.3408 L882.9258,310.3408 C897.9258,310.3408 897.9258,320.1455 912.9258,320.1455 L922.9258,320.1455 " fill="none" style="stroke:#181818;stroke-width:1.0;"/><text fill="#000000" font-family="sans-serif" font-size="14" lengthAdjust="spacing" textLength="307.3096" x="925.9258" y="345.4834">[modifier] STRING identifier[size][max_chars], ... ;</text><path d="M872.9258,310.3408 L882.9258,310.3408 C897.9258,310.3408 897.9258,339.7549 912.9258,339.7549 L922.9258,339.7549 " fill="none" style="stroke:#181818;stroke-width:1.0;"/><text fill="#000000" font-family="sans-serif" font-size="14" lengthAdjust="spacing" textLength="334.5645" x="925.9258" y="365.0928">[modifier] STRUCTURE identifier[size]{declaration;...};</text><path d="M872.9258,310.3408 L882.9258,310.3408 C897.9258,310.3408 897.9258,359.3643 912.9258,359.3643 L922.9258,359.3643 " fill="none" style="stroke:#181818;stroke-width:1.0;"/><path d="M475.2725,477.0205 L485.2725,477.0205 C500.2725,477.0205 500.2725,310.3408 515.2725,310.3408 L525.2725,310.3408 " fill="none" style="stroke:#181818;stroke-width:1.0;"/><rect fill="#F1F1F1" height="37.6094" rx="12.5" ry="12.5" style="stroke:#181818;stroke-width:1.5;" width="113.3926" x="525.2725" y="385.9785"/><text fill="#000000" font-family="sans-serif" font-size="14" lengthAdjust="spacing" textLength="93.3926" x="535.2725" y="410.5117">object instance</text><text fill="#000000" font-family="sans-serif" font-size="14" lengthAdjust="spacing" textLength="196.0957" x="691.665" y="390.9023">user_class_object identifier, ... ;</text><path d="M638.665,404.7832 L648.665,404.7832 C663.665,404.7832 663.665,385.1738 678.665,385.1738 L688.665,385.1738 " fill="none" style="stroke:#181818;stroke-width:1.0;"/><text fill="#000000" font-family="sans-serif" font-size="14" lengthAdjust="spacing" textLength="140.8203" x="691.665" y="410.5117">CEVENT identifier, ... ;</text><path d="M638.665,404.7832 L648.665,404.7832 C663.665,404.7832 663.665,404.7832 678.665,404.7832 L688.665,404.7832 " fill="none" style="stroke:#181818;stroke-width:1.0;"/><text fill="#000000" font-family="sans-serif" font-size="14" lengthAdjust="spacing" textLength="143.1445" x="691.665" y="430.1211">CMUTEX identifier, ... ;</text><path d="M638.665,404.7832 L648.665,404.7832 C663.665,404.7832 663.665,424.3926 678.665,424.3926 L688.665,424.3926 " fill="none" style="stroke:#181818;stroke-width:1.0;"/><path d="M475.2725,477.0205 L485.2725,477.0205 C500.2725,477.0205 500.2725,404.7832 515.2725,404.7832 L525.2725,404.7832 " fill="none" style="stroke:#181818;stroke-width:1.0;"/><rect fill="#F1F1F1" height="37.6094" rx="12.5" ry="12.5" style="stroke:#181818;stroke-width:1.5;" width="69.0342" x="525.2725" y="484.0254"/><text fill="#000000" font-family="sans-serif" font-size="14" lengthAdjust="spacing" textLength="49.0342" x="535.2725" y="508.5586">function</text><text fill="#000000" font-family="sans-serif" font-size="14" lengthAdjust="spacing" textLength="320.5371" x="647.3066" y="449.7305">FUNCTION identifier(parameter list){ statements;  };</text><path d="M594.3066,502.8301 L604.3066,502.8301 C619.3066,502.8301 619.3066,444.002 634.3066,444.002 L644.3066,444.002 " fill="none" style="stroke:#181818;stroke-width:1.0;"/><text fill="#000000" font-family="sans-serif" font-size="14" lengthAdjust="spacing" textLength="524.3643" x="647.3066" y="469.3398">INTEGER_FUNCTION identifier(parameter list){ statements; RETURN expression; };</text><path d="M594.3066,502.8301 L604.3066,502.8301 C619.3066,502.8301 619.3066,463.6113 634.3066,463.6113 L644.3066,463.6113 " fill="none" style="stroke:#181818;stroke-width:1.0;"/><text fill="#000000" font-family="sans-serif" font-size="14" lengthAdjust="spacing" textLength="585.8262" x="647.3066" y="488.9492">SIGNED_INTEGER_FUNCTION identifier(parameter list){ statements; RETURN expression; };</text><path d="M594.3066,502.8301 L604.3066,502.8301 C619.3066,502.8301 619.3066,483.2207 634.3066,483.2207 L644.3066,483.2207 " fill="none" style="stroke:#181818;stroke-width:1.0;"/><text fill="#000000" font-family="sans-serif" font-size="14" lengthAdjust="spacing" textLength="571.8262" x="647.3066" y="508.5586">LONG_INTEGER_FUNCTION identifier(parameter list){ statements; RETURN expression; };</text><path d="M594.3066,502.8301 L604.3066,502.8301 C619.3066,502.8301 619.3066,502.8301 634.3066,502.8301 L644.3066,502.8301 " fill="none" style="stroke:#181818;stroke-width:1.0;"/><text fill="#000000" font-family="sans-serif" font-size="14" lengthAdjust="spacing" textLength="633.2881" x="647.3066" y="528.168">SIGNED_LONG_INTEGER_FUNCTION identifier(parameter list){ statements; RETURN expression; };</text><path d="M594.3066,502.8301 L604.3066,502.8301 C619.3066,502.8301 619.3066,522.4395 634.3066,522.4395 L644.3066,522.4395 " fill="none" style="stroke:#181818;stroke-width:1.0;"/><text fill="#000000" font-family="sans-serif" font-size="14" lengthAdjust="spacing" textLength="515.0264" x="647.3066" y="547.7773">STRING_FUNCTION identifier(parameter list){ statements; RETURN expression; };</text><path d="M594.3066,502.8301 L604.3066,502.8301 C619.3066,502.8301 619.3066,542.0488 634.3066,542.0488 L644.3066,542.0488 " fill="none" style="stroke:#181818;stroke-width:1.0;"/><text fill="#000000" font-family="sans-serif" font-size="14" lengthAdjust="spacing" textLength="605.2744" x="647.3066" y="567.3867">SIMPLSHARPSTRING_FUNCTION identifier(parameter list){ statements; RETURN expression; };</text><path d="M594.3066,502.8301 L604.3066,502.8301 C619.3066,502.8301 619.3066,561.6582 634.3066,561.6582 L644.3066,561.6582 " fill="none" style="stroke:#181818;stroke-width:1.0;"/><path d="M475.2725,477.0205 L485.2725,477.0205 C500.2725,477.0205 500.2725,502.8301 515.2725,502.8301 L525.2725,502.8301 " fill="none" style="stroke:#181818;stroke-width:1.0;"/><rect fill="#F1F1F1" height="37.6094" rx="12.5" ry="12.5" style="stroke:#181818;stroke-width:1.5;" width="69.7998" x="525.2725" y="738.9473"/><text fill="#000000" font-family="sans-serif" font-size="14" lengthAdjust="spacing" textLength="49.7998" x="535.2725" y="763.4805">SIMPL#</text><text fill="#000000" font-family="sans-serif" font-size="14" lengthAdjust="spacing" textLength="244.3506" x="648.0723" y="586.9961">[static] CLASS identifier{declaration;...};</text><path d="M595.0723,757.752 L605.0723,757.752 C620.0723,757.752 620.0723,581.2676 635.0723,581.2676 L645.0723,581.2676 " fill="none" style="stroke:#181818;stroke-width:1.0;"/><text fill="#000000" font-family="sans-serif" font-size="14" lengthAdjust="spacing" textLength="242.0059" x="648.0723" y="606.6055">NAMESPACE identifier{declaration;...};</text><path d="M595.0723,757.752 L605.0723,757.752 C620.0723,757.752 620.0723,600.877 635.0723,600.877 L645.0723,600.877 " fill="none" style="stroke:#181818;stroke-width:1.0;"/><rect fill="#F1F1F1" height="37.6094" rx="12.5" ry="12.5" style="stroke:#181818;stroke-width:1.5;" width="109.5029" x="645.0723" y="660.5098"/><text fill="#000000" font-family="sans-serif" font-size="14" lengthAdjust="spacing" textLength="89.5029" x="655.0723" y="685.043">class delegate</text><text fill="#000000" font-family="sans-serif" font-size="14" lengthAdjust="spacing" textLength="353.9648" x="807.5752" y="626.2148">[static] DELEGATE FUNCTION  identifier(parameter list);</text><path d="M754.5752,679.3145 L764.5752,679.3145 C779.5752,679.3145 779.5752,620.4863 794.5752,620.4863 L804.5752,620.4863 " fill="none" style="stroke:#181818;stroke-width:1.0;"/><text fill="#000000" font-family="sans-serif" font-size="14" lengthAdjust="spacing" textLength="529.0127" x="807.5752" y="645.8242">[static] DELEGATE SIGNED_LONG_INTEGER_FUNCTION identifier(parameter list);</text><path d="M754.5752,679.3145 L764.5752,679.3145 C779.5752,679.3145 779.5752,640.0957 794.5752,640.0957 L804.5752,640.0957 " fill="none" style="stroke:#181818;stroke-width:1.0;"/><text fill="#000000" font-family="sans-serif" font-size="14" lengthAdjust="spacing" textLength="410.751" x="807.5752" y="665.4336">[static] DELEGATE STRING_FUNCTION identifier(parameter list);</text><path d="M754.5752,679.3145 L764.5752,679.3145 C779.5752,679.3145 779.5752,659.7051 794.5752,659.7051 L804.5752,659.7051 " fill="none" style="stroke:#181818;stroke-width:1.0;"/><text fill="#000000" font-family="sans-serif" font-size="14" lengthAdjust="spacing" textLength="500.999" x="807.5752" y="685.043">[static] DELEGATE SIMPLSHARPSTRING_FUNCTION identifier(parameter list);</text><path d="M754.5752,679.3145 L764.5752,679.3145 C779.5752,679.3145 779.5752,679.3145 794.5752,679.3145 L804.5752,679.3145 " fill="none" style="stroke:#181818;stroke-width:1.0;"/><text fill="#000000" font-family="sans-serif" font-size="14" lengthAdjust="spacing" textLength="467.5508" x="807.5752" y="704.6523">[static] DELEGATE LONG_INTEGER_FUNCTION identifier(parameter list);</text><path d="M754.5752,679.3145 L764.5752,679.3145 C779.5752,679.3145 779.5752,698.9238 794.5752,698.9238 L804.5752,698.9238 " fill="none" style="stroke:#181818;stroke-width:1.0;"/><text fill="#000000" font-family="sans-serif" font-size="14" lengthAdjust="spacing" textLength="420.0889" x="807.5752" y="724.2617">[static] DELEGATE INTEGER_FUNCTION identifier(parameter list);</text><path d="M754.5752,679.3145 L764.5752,679.3145 C779.5752,679.3145 779.5752,718.5332 794.5752,718.5332 L804.5752,718.5332 " fill="none" style="stroke:#181818;stroke-width:1.0;"/><text fill="#000000" font-family="sans-serif" font-size="14" lengthAdjust="spacing" textLength="481.5508" x="807.5752" y="743.8711">[static] DELEGATE SIGNED_INTEGER_FUNCTION identifier(parameter list);</text><path d="M754.5752,679.3145 L764.5752,679.3145 C779.5752,679.3145 779.5752,738.1426 794.5752,738.1426 L804.5752,738.1426 " fill="none" style="stroke:#181818;stroke-width:1.0;"/><path d="M595.0723,757.752 L605.0723,757.752 C620.0723,757.752 620.0723,679.3145 635.0723,679.3145 L645.0723,679.3145 " fill="none" style="stroke:#181818;stroke-width:1.0;"/><rect fill="#F1F1F1" height="37.6094" rx="12.5" ry="12.5" style="stroke:#181818;stroke-width:1.5;" width="97.0342" x="645.0723" y="738.9473"/><text fill="#000000" font-family="sans-serif" font-size="14" lengthAdjust="spacing" textLength="77.0342" x="655.0723" y="763.4805">class events</text><text fill="#000000" font-family="sans-serif" font-size="14" lengthAdjust="spacing" textLength="437.2539" x="795.1064" y="763.4805">EVENTHANDLER identifier(CLASS identifier, EVENTARGS identifier);</text><path d="M742.1064,757.752 L752.1064,757.752 C767.1064,757.752 767.1064,757.752 782.1064,757.752 L792.1064,757.752 " fill="none" style="stroke:#181818;stroke-width:1.0;"/><path d="M595.0723,757.752 L605.0723,757.752 C620.0723,757.752 620.0723,757.752 635.0723,757.752 L645.0723,757.752 " fill="none" style="stroke:#181818;stroke-width:1.0;"/><rect fill="#F1F1F1" height="37.6094" rx="12.5" ry="12.5" style="stroke:#181818;stroke-width:1.5;" width="118.041" x="645.0723" y="836.9941"/><text fill="#000000" font-family="sans-serif" font-size="14" lengthAdjust="spacing" textLength="98.041" x="655.0723" y="861.5273">class properties</text><text fill="#000000" font-family="sans-serif" font-size="14" lengthAdjust="spacing" textLength="330.709" x="816.1133" y="783.0898">DELEGATEPROPERTY delegate_identifier identifier;</text><path d="M763.1133,855.7988 L773.1133,855.7988 C788.1133,855.7988 788.1133,777.3613 803.1133,777.3613 L813.1133,777.3613 " fill="none" style="stroke:#181818;stroke-width:1.0;"/><text fill="#000000" font-family="sans-serif" font-size="14" lengthAdjust="spacing" textLength="121.3652" x="816.1133" y="802.6992">STRING identifier[];</text><path d="M763.1133,855.7988 L773.1133,855.7988 C788.1133,855.7988 788.1133,796.9707 803.1133,796.9707 L813.1133,796.9707 " fill="none" style="stroke:#181818;stroke-width:1.0;"/><text fill="#000000" font-family="sans-serif" font-size="14" lengthAdjust="spacing" textLength="211.6133" x="816.1133" y="822.3086">SIMPLSHARPSTRING identifier[];</text><path d="M763.1133,855.7988 L773.1133,855.7988 C788.1133,855.7988 788.1133,816.5801 803.1133,816.5801 L813.1133,816.5801 " fill="none" style="stroke:#181818;stroke-width:1.0;"/><text fill="#000000" font-family="sans-serif" font-size="14" lengthAdjust="spacing" textLength="231.8477" x="816.1133" y="841.918">SIGNED_LONG_INTEGER identifier;</text><path d="M763.1133,855.7988 L773.1133,855.7988 C788.1133,855.7988 788.1133,836.1895 803.1133,836.1895 L813.1133,836.1895 " fill="none" style="stroke:#181818;stroke-width:1.0;"/><text fill="#000000" font-family="sans-serif" font-size="14" lengthAdjust="spacing" textLength="170.3857" x="816.1133" y="861.5273">LONG_INTEGER identifier;</text><path d="M763.1133,855.7988 L773.1133,855.7988 C788.1133,855.7988 788.1133,855.7988 803.1133,855.7988 L813.1133,855.7988 " fill="none" style="stroke:#181818;stroke-width:1.0;"/><text fill="#000000" font-family="sans-serif" font-size="14" lengthAdjust="spacing" textLength="184.3857" x="816.1133" y="881.1367">SIGNED_INTEGER identifier;</text><path d="M763.1133,855.7988 L773.1133,855.7988 C788.1133,855.7988 788.1133,875.4082 803.1133,875.4082 L813.1133,875.4082 " fill="none" style="stroke:#181818;stroke-width:1.0;"/><text fill="#000000" font-family="sans-serif" font-size="14" lengthAdjust="spacing" textLength="122.9238" x="816.1133" y="900.7461">INTEGER identifier;</text><path d="M763.1133,855.7988 L773.1133,855.7988 C788.1133,855.7988 788.1133,895.0176 803.1133,895.0176 L813.1133,895.0176 " fill="none" style="stroke:#181818;stroke-width:1.0;"/><text fill="#000000" font-family="sans-serif" font-size="14" lengthAdjust="spacing" textLength="175.8613" x="816.1133" y="920.3555">structure_identifier identifier;</text><path d="M763.1133,855.7988 L773.1133,855.7988 C788.1133,855.7988 788.1133,914.627 803.1133,914.627 L813.1133,914.627 " fill="none" style="stroke:#181818;stroke-width:1.0;"/><text fill="#000000" font-family="sans-serif" font-size="14" lengthAdjust="spacing" textLength="153.2959" x="816.1133" y="939.9648">class_identifier identifier;</text><path d="M763.1133,855.7988 L773.1133,855.7988 C788.1133,855.7988 788.1133,934.2363 803.1133,934.2363 L813.1133,934.2363 " fill="none" style="stroke:#181818;stroke-width:1.0;"/><path d="M595.0723,757.752 L605.0723,757.752 C620.0723,757.752 620.0723,855.7988 635.0723,855.7988 L645.0723,855.7988 " fill="none" style="stroke:#181818;stroke-width:1.0;"/><path d="M475.2725,477.0205 L485.2725,477.0205 C500.2725,477.0205 500.2725,757.752 515.2725,757.752 L525.2725,757.752 " fill="none" style="stroke:#181818;stroke-width:1.0;"/><!--SRC=[jLTjRzf84FxkNp5IxmCq3XUYNjE3wbJNR8WhOoo_HDUB4DgO3TaJhAtrcWkj-jzlZ34r10X4LEA3yJpFlExCZZ-bYaervM8qfOdsjWKZ5asef8h78jK-Hl68_QLneMGyoYAM0XN0Hqme_i2P11J4e1uPJAWOPtJCD2f6LK0w5ue-0KyrUlvD1-Fy7nqkpl_KuOqEGnroz6zmdocOqZc8MC4z6tC1_t7rcEEqZxyN7hIripEqbcGA7yw6qB6wLc3OGyjnmw1Yy2xbtzYTZl4C1Zeq6Wre5mJ3CUn-zt2y7tYMinz_DwLFm-YHodIT-ZcylYRUyLI8C_Kim7uO71VXuOHbY7i9snrDy81CcMAoK6Gv0UbYnAxX6JqI46zJsOPTg-kGpl18bjrVbECrbbv5BPAp6xqbCs-nVMPKSde_OQlUcSQZ1GjRHpAuxTj6ODb41wVlhFvedQ-EqRDCg3t44d6IpbE8nMHUrmpVj2mTmk2w-Lx7JDyGpmeANAea5-CbhjeewFvTQNPGLcT_k1NyUdaEfbMJVAojrt4N5JgaBbkOeHc47db6_bwPVcqa_oZwylvV5YaSFpWhHSGAVLdAv131QJeivIjbQuPDSakSOAUq5mRaxwrIUCX4b7jI8Az3nmoilbF1rbQD21EUglftF1DKiIdAqpR0Z_PwVnwjmIEO9GVOKo9PckOvMUdSQE9Jgbvhrr_Wyw_JNyoCqxhSSst_nl3SKoilLBzPDaVEuD40JDlm_OhkhGs111nNn7SDaxo8XKMFu5enOMFqAdzLDTWXDkaQ0VbvlFT4rjx9VcLfzoWyEDtxd3g-UBkrdIwsqoJew05GFGvibf_EfVB5WBmnd8wzDlvhcuTHBv26rws-NTERo3XXKd5MwYxzTRs-IxpWw-eW3gjhxEgnZFVvvJ9OYJQgkWEqxs8hKI-8Tzx49M2t17U3B5APV27CulxQ0Vd4yADW-M6WkRZXgx1dmmnN6MnmQ3OkBoxVDQvgFbNWimGkhl3NQdveDQ-0T0B8nNMjrdLjIEDCHWn6F5zPSDj7VbtxGcSKl0pDJLaByd-re5S7dvGlWOWPbx781vdsvRPNWE0cLduIgmNu_RlpppmtBz4jkErf7VP0iub2Agv3k1srm4oQbtzSQlRo0wK5J6XcZ1Ral0MX_py0]--></g></svg>