<svg xmlns="http://www.w3.org/2000/svg" xmlns:xlink="http://www.w3.org/1999/xlink" contentStyleType="text/css" height="606px" preserveAspectRatio="none" style="width:996px;height:606px;background:#FFFFFF;" version="1.1" viewBox="0 0 996 606" width="996px" zoomAndPan="magnify"><defs/><g><rect fill="#F1F1F1" height="73.498" rx="12.5" ry="12.5" style="stroke:#181818;stroke-width:1.5;" width="188.0273" x="297.9785" y="265.4775"/><text fill="#000000" font-family="sans-serif" font-size="14" lengthAdjust="spacing" textLength="69.2549" x="311.8682" y="290.0107">Expression</text><text fill="#000000" font-family="monospace" font-size="14" lengthAdjust="spacing" textLength="168.0273" x="307.9785" y="307.1621">a&#160;and&#160;b&#160;are&#160;operands</text><text fill="#000000" font-family="sans-serif" font-size="14" lengthAdjust="spacing" textLength="3.8896" x="307.9785" y="325.8994">&#160;</text><rect fill="#F1F1F1" height="37.6094" rx="12.5" ry="12.5" style="stroke:#181818;stroke-width:1.5;" width="53.4551" x="536.0059" y="68.6328"/><text fill="#000000" font-family="sans-serif" font-size="14" lengthAdjust="spacing" textLength="33.4551" x="546.0059" y="93.166">literal</text><text fill="#000000" font-family="sans-serif" font-size="14" lengthAdjust="spacing" textLength="23.3584" x="642.4609" y="25.5332">123</text><path d="M589.4609,87.4375 L599.4609,87.4375 C614.4609,87.4375 614.4609,19.8047 629.4609,19.8047 L639.4609,19.8047 " fill="none" style="stroke:#181818;stroke-width:1.0;"/><text fill="#000000" font-family="sans-serif" font-size="14" lengthAdjust="spacing" textLength="72.2012" x="642.4609" y="45.1426">"abc \n %d"</text><path d="M589.4609,87.4375 L599.4609,87.4375 C614.4609,87.4375 614.4609,39.4141 629.4609,39.4141 L639.4609,39.4141 " fill="none" style="stroke:#181818;stroke-width:1.0;"/><text fill="#000000" font-family="sans-serif" font-size="14" lengthAdjust="spacing" textLength="13.1318" x="642.4609" y="64.752">'a'</text><path d="M589.4609,87.4375 L599.4609,87.4375 C614.4609,87.4375 614.4609,59.0234 629.4609,59.0234 L639.4609,59.0234 " fill="none" style="stroke:#181818;stroke-width:1.0;"/><text fill="#000000" font-family="sans-serif" font-size="14" lengthAdjust="spacing" textLength="47.3799" x="642.4609" y="84.3613">'\x1234'</text><path d="M589.4609,87.4375 L599.4609,87.4375 C614.4609,87.4375 614.4609,78.6328 629.4609,78.6328 L639.4609,78.6328 " fill="none" style="stroke:#181818;stroke-width:1.0;"/><text fill="#000000" font-family="sans-serif" font-size="14" lengthAdjust="spacing" textLength="2.6729" x="642.4609" y="103.9707">'</text><text fill="#000000" font-family="sans-serif" font-size="14" lengthAdjust="spacing" textLength="2.6729" x="642.4609" y="121.5801">'</text><path d="M589.4609,87.4375 L599.4609,87.4375 C614.4609,87.4375 614.4609,107.0469 629.4609,107.0469 L639.4609,107.0469 " fill="none" style="stroke:#181818;stroke-width:1.0;"/><text fill="#000000" font-family="sans-serif" font-size="14" lengthAdjust="spacing" textLength="11.6758" x="642.4609" y="141.1895">\n</text><path d="M589.4609,87.4375 L599.4609,87.4375 C614.4609,87.4375 614.4609,135.4609 629.4609,135.4609 L639.4609,135.4609 " fill="none" style="stroke:#181818;stroke-width:1.0;"/><text fill="#000000" font-family="sans-serif" font-size="14" lengthAdjust="spacing" textLength="49.0342" x="642.4609" y="160.7988">0x23AB</text><path d="M589.4609,87.4375 L599.4609,87.4375 C614.4609,87.4375 614.4609,155.0703 629.4609,155.0703 L639.4609,155.0703 " fill="none" style="stroke:#181818;stroke-width:1.0;"/><path d="M486.0059,302.2266 L496.0059,302.2266 C511.0059,302.2266 511.0059,87.4375 526.0059,87.4375 L536.0059,87.4375 " fill="none" style="stroke:#181818;stroke-width:1.0;"/><rect fill="#F1F1F1" height="37.6094" rx="12.5" ry="12.5" style="stroke:#181818;stroke-width:1.5;" width="66.6963" x="536.0059" y="204.8984"/><text fill="#000000" font-family="sans-serif" font-size="14" lengthAdjust="spacing" textLength="42.8066" x="546.0059" y="229.4316">integer</text><text fill="#000000" font-family="sans-serif" font-size="14" lengthAdjust="spacing" textLength="151.7441" x="655.7021" y="180.4082">integer literal expression</text><path d="M602.7021,223.7031 L612.7021,223.7031 C627.7021,223.7031 627.7021,174.6797 642.7021,174.6797 L652.7021,174.6797 " fill="none" style="stroke:#181818;stroke-width:1.0;"/><text fill="#000000" font-family="sans-serif" font-size="14" lengthAdjust="spacing" textLength="245.9023" x="655.7021" y="200.0176">integer_function identifier(argument list)</text><path d="M602.7021,223.7031 L612.7021,223.7031 C627.7021,223.7031 627.7021,194.2891 642.7021,194.2891 L652.7021,194.2891 " fill="none" style="stroke:#181818;stroke-width:1.0;"/><text fill="#000000" font-family="sans-serif" font-size="14" lengthAdjust="spacing" textLength="178.9717" x="655.7021" y="219.627">integer arithmetic expression</text><path d="M602.7021,223.7031 L612.7021,223.7031 C627.7021,223.7031 627.7021,213.8984 642.7021,213.8984 L652.7021,213.8984 " fill="none" style="stroke:#181818;stroke-width:1.0;"/><text fill="#000000" font-family="sans-serif" font-size="14" lengthAdjust="spacing" textLength="294.9434" x="655.7021" y="239.2363">signed_integer_function identifier(argument list)</text><path d="M602.7021,223.7031 L612.7021,223.7031 C627.7021,223.7031 627.7021,233.5078 642.7021,233.5078 L652.7021,233.5078 " fill="none" style="stroke:#181818;stroke-width:1.0;"/><text fill="#000000" font-family="sans-serif" font-size="14" lengthAdjust="spacing" textLength="280.1572" x="655.7021" y="258.8457">long_integer_function identifier(argument list)</text><path d="M602.7021,223.7031 L612.7021,223.7031 C627.7021,223.7031 627.7021,253.1172 642.7021,253.1172 L652.7021,253.1172 " fill="none" style="stroke:#181818;stroke-width:1.0;"/><text fill="#000000" font-family="sans-serif" font-size="14" lengthAdjust="spacing" textLength="329.1982" x="655.7021" y="278.4551">signed_long_integer_function identifier(argument list)</text><path d="M602.7021,223.7031 L612.7021,223.7031 C627.7021,223.7031 627.7021,272.7266 642.7021,272.7266 L652.7021,272.7266 " fill="none" style="stroke:#181818;stroke-width:1.0;"/><path d="M486.0059,302.2266 L496.0059,302.2266 C511.0059,302.2266 511.0059,223.7031 526.0059,223.7031 L536.0059,223.7031 " fill="none" style="stroke:#181818;stroke-width:1.0;"/><rect fill="#F1F1F1" height="37.6094" rx="12.5" ry="12.5" style="stroke:#181818;stroke-width:1.5;" width="54.2344" x="536.0059" y="273.5313"/><text fill="#000000" font-family="sans-serif" font-size="14" lengthAdjust="spacing" textLength="34.2344" x="546.0059" y="298.0645">string</text><text fill="#000000" font-family="sans-serif" font-size="14" lengthAdjust="spacing" textLength="224.8887" x="643.2402" y="298.0645">string_function identifier(expression)</text><path d="M590.2402,292.3359 L600.2402,292.3359 C615.2402,292.3359 615.2402,292.3359 630.2402,292.3359 L640.2402,292.3359 " fill="none" style="stroke:#181818;stroke-width:1.0;"/><path d="M486.0059,302.2266 L496.0059,302.2266 C511.0059,302.2266 511.0059,292.3359 526.0059,292.3359 L536.0059,292.3359 " fill="none" style="stroke:#181818;stroke-width:1.0;"/><rect fill="#F1F1F1" height="37.6094" rx="12.5" ry="12.5" style="stroke:#181818;stroke-width:1.5;" width="118.8066" x="536.0059" y="331.1406"/><text fill="#000000" font-family="sans-serif" font-size="14" lengthAdjust="spacing" textLength="98.8066" x="546.0059" y="355.6738">member access</text><text fill="#000000" font-family="sans-serif" font-size="14" lengthAdjust="spacing" textLength="129.9648" x="707.8125" y="345.8691">a[integer expression]</text><path d="M654.8125,349.9453 L664.8125,349.9453 C679.8125,349.9453 679.8125,340.1406 694.8125,340.1406 L704.8125,340.1406 " fill="none" style="stroke:#181818;stroke-width:1.0;"/><text fill="#000000" font-family="sans-serif" font-size="14" lengthAdjust="spacing" textLength="252.1436" x="707.8125" y="365.4785">a[integer expression][integer expression]</text><path d="M654.8125,349.9453 L664.8125,349.9453 C679.8125,349.9453 679.8125,359.75 694.8125,359.75 L704.8125,359.75 " fill="none" style="stroke:#181818;stroke-width:1.0;"/><path d="M486.0059,302.2266 L496.0059,302.2266 C511.0059,302.2266 511.0059,349.9453 526.0059,349.9453 L536.0059,349.9453 " fill="none" style="stroke:#181818;stroke-width:1.0;"/><rect fill="#F1F1F1" height="37.6094" rx="12.5" ry="12.5" style="stroke:#181818;stroke-width:1.5;" width="55.0205" x="536.0059" y="389.3594"/><text fill="#000000" font-family="sans-serif" font-size="14" lengthAdjust="spacing" textLength="35.0205" x="546.0059" y="413.8926">unary</text><text fill="#000000" font-family="sans-serif" font-size="14" lengthAdjust="spacing" textLength="138.5098" x="644.0264" y="394.2832">not(binary expression)</text><path d="M591.0264,408.1641 L601.0264,408.1641 C616.0264,408.1641 616.0264,388.5547 631.0264,388.5547 L641.0264,388.5547 " fill="none" style="stroke:#181818;stroke-width:1.0;"/><text fill="#000000" font-family="sans-serif" font-size="14" lengthAdjust="spacing" textLength="113.6133" x="644.0264" y="413.8926">!binary expression</text><path d="M591.0264,408.1641 L601.0264,408.1641 C616.0264,408.1641 616.0264,408.1641 631.0264,408.1641 L641.0264,408.1641 " fill="none" style="stroke:#181818;stroke-width:1.0;"/><text fill="#000000" font-family="sans-serif" font-size="14" lengthAdjust="spacing" textLength="136.9375" x="644.0264" y="433.502">-arithmetic expression</text><path d="M591.0264,408.1641 L601.0264,408.1641 C616.0264,408.1641 616.0264,427.7734 631.0264,427.7734 L641.0264,427.7734 " fill="none" style="stroke:#181818;stroke-width:1.0;"/><path d="M486.0059,302.2266 L496.0059,302.2266 C511.0059,302.2266 511.0059,408.1641 526.0059,408.1641 L536.0059,408.1641 " fill="none" style="stroke:#181818;stroke-width:1.0;"/><rect fill="#F1F1F1" height="37.6094" rx="12.5" ry="12.5" style="stroke:#181818;stroke-width:1.5;" width="62.793" x="536.0059" y="497.2109"/><text fill="#000000" font-family="sans-serif" font-size="14" lengthAdjust="spacing" textLength="42.793" x="546.0059" y="521.7441">bitwise</text><text fill="#000000" font-family="sans-serif" font-size="14" lengthAdjust="spacing" textLength="32.6895" x="651.7988" y="453.1113">a &amp; b</text><path d="M598.7988,516.0156 L608.7988,516.0156 C623.7988,516.0156 623.7988,447.3828 638.7988,447.3828 L648.7988,447.3828 " fill="none" style="stroke:#181818;stroke-width:1.0;"/><text fill="#000000" font-family="sans-serif" font-size="14" lengthAdjust="spacing" textLength="26.9883" x="651.7988" y="472.7207">a | b</text><path d="M598.7988,516.0156 L608.7988,516.0156 C623.7988,516.0156 623.7988,466.9922 638.7988,466.9922 L648.7988,466.9922 " fill="none" style="stroke:#181818;stroke-width:1.0;"/><text fill="#000000" font-family="sans-serif" font-size="14" lengthAdjust="spacing" textLength="29.9209" x="651.7988" y="492.3301">a ^ b</text><path d="M598.7988,516.0156 L608.7988,516.0156 C623.7988,516.0156 623.7988,486.6016 638.7988,486.6016 L648.7988,486.6016 " fill="none" style="stroke:#181818;stroke-width:1.0;"/><text fill="#000000" font-family="sans-serif" font-size="14" lengthAdjust="spacing" textLength="38.8965" x="651.7988" y="511.9395">Not(a)</text><path d="M598.7988,516.0156 L608.7988,516.0156 C623.7988,516.0156 623.7988,506.2109 638.7988,506.2109 L648.7988,506.2109 " fill="none" style="stroke:#181818;stroke-width:1.0;"/><text fill="#000000" font-family="sans-serif" font-size="14" lengthAdjust="spacing" textLength="39.7031" x="651.7988" y="531.5488">a &lt;&lt; b</text><path d="M598.7988,516.0156 L608.7988,516.0156 C623.7988,516.0156 623.7988,525.8203 638.7988,525.8203 L648.7988,525.8203 " fill="none" style="stroke:#181818;stroke-width:1.0;"/><text fill="#000000" font-family="sans-serif" font-size="14" lengthAdjust="spacing" textLength="39.7031" x="651.7988" y="551.1582">a &gt;&gt; b</text><path d="M598.7988,516.0156 L608.7988,516.0156 C623.7988,516.0156 623.7988,545.4297 638.7988,545.4297 L648.7988,545.4297 " fill="none" style="stroke:#181818;stroke-width:1.0;"/><text fill="#000000" font-family="sans-serif" font-size="14" lengthAdjust="spacing" textLength="32.7031" x="651.7988" y="570.7676">a }} b</text><path d="M598.7988,516.0156 L608.7988,516.0156 C623.7988,516.0156 623.7988,565.0391 638.7988,565.0391 L648.7988,565.0391 " fill="none" style="stroke:#181818;stroke-width:1.0;"/><text fill="#000000" font-family="sans-serif" font-size="14" lengthAdjust="spacing" textLength="32.7031" x="651.7988" y="590.377">a {{ b</text><path d="M598.7988,516.0156 L608.7988,516.0156 C623.7988,516.0156 623.7988,584.6484 638.7988,584.6484 L648.7988,584.6484 " fill="none" style="stroke:#181818;stroke-width:1.0;"/><path d="M486.0059,302.2266 L496.0059,302.2266 C511.0059,302.2266 511.0059,516.0156 526.0059,516.0156 L536.0059,516.0156 " fill="none" style="stroke:#181818;stroke-width:1.0;"/><rect fill="#F1F1F1" height="37.6094" rx="12.5" ry="12.5" style="stroke:#181818;stroke-width:1.5;" width="76.8135" x="171.165" y="157.1797"/><text fill="#000000" font-family="sans-serif" font-size="14" lengthAdjust="spacing" textLength="56.8135" x="181.165" y="181.7129">relational</text><text fill="#000000" font-family="sans-serif" font-size="14" lengthAdjust="spacing" textLength="31.5273" x="86.6377" y="73.8613">a &lt; b</text><path d="M171.165,175.9844 L161.165,175.9844 C146.165,175.9844 146.165,68.1328 131.165,68.1328 L121.165,68.1328 " fill="none" style="stroke:#181818;stroke-width:1.0;"/><text fill="#000000" font-family="sans-serif" font-size="14" lengthAdjust="spacing" textLength="31.5273" x="86.6377" y="93.4707">a &gt; b</text><path d="M171.165,175.9844 L161.165,175.9844 C146.165,175.9844 146.165,87.7422 131.165,87.7422 L121.165,87.7422 " fill="none" style="stroke:#181818;stroke-width:1.0;"/><text fill="#000000" font-family="sans-serif" font-size="14" lengthAdjust="spacing" textLength="39.7031" x="78.4619" y="113.0801">a &lt;= b</text><path d="M171.165,175.9844 L161.165,175.9844 C146.165,175.9844 146.165,107.3516 131.165,107.3516 L121.165,107.3516 " fill="none" style="stroke:#181818;stroke-width:1.0;"/><text fill="#000000" font-family="sans-serif" font-size="14" lengthAdjust="spacing" textLength="39.7031" x="78.4619" y="132.6895">a &gt;= b</text><path d="M171.165,175.9844 L161.165,175.9844 C146.165,175.9844 146.165,126.9609 131.165,126.9609 L121.165,126.9609 " fill="none" style="stroke:#181818;stroke-width:1.0;"/><text fill="#000000" font-family="sans-serif" font-size="14" lengthAdjust="spacing" textLength="40.8652" x="77.2998" y="152.2988">a S&lt; b</text><path d="M171.165,175.9844 L161.165,175.9844 C146.165,175.9844 146.165,146.5703 131.165,146.5703 L121.165,146.5703 " fill="none" style="stroke:#181818;stroke-width:1.0;"/><text fill="#000000" font-family="sans-serif" font-size="14" lengthAdjust="spacing" textLength="40.8652" x="77.2998" y="171.9082">a S&gt; b</text><path d="M171.165,175.9844 L161.165,175.9844 C146.165,175.9844 146.165,166.1797 131.165,166.1797 L121.165,166.1797 " fill="none" style="stroke:#181818;stroke-width:1.0;"/><text fill="#000000" font-family="sans-serif" font-size="14" lengthAdjust="spacing" textLength="49.041" x="69.124" y="191.5176">a S&lt;= b</text><path d="M171.165,175.9844 L161.165,175.9844 C146.165,175.9844 146.165,185.7891 131.165,185.7891 L121.165,185.7891 " fill="none" style="stroke:#181818;stroke-width:1.0;"/><text fill="#000000" font-family="sans-serif" font-size="14" lengthAdjust="spacing" textLength="49.041" x="69.124" y="211.127">a S&gt;= b</text><path d="M171.165,175.9844 L161.165,175.9844 C146.165,175.9844 146.165,205.3984 131.165,205.3984 L121.165,205.3984 " fill="none" style="stroke:#181818;stroke-width:1.0;"/><text fill="#000000" font-family="sans-serif" font-size="14" lengthAdjust="spacing" textLength="31.5273" x="86.6377" y="230.7363">a = b</text><path d="M171.165,175.9844 L161.165,175.9844 C146.165,175.9844 146.165,225.0078 131.165,225.0078 L121.165,225.0078 " fill="none" style="stroke:#181818;stroke-width:1.0;"/><text fill="#000000" font-family="sans-serif" font-size="14" lengthAdjust="spacing" textLength="39.7031" x="78.4619" y="250.3457">a &lt;&gt; b</text><path d="M171.165,175.9844 L161.165,175.9844 C146.165,175.9844 146.165,244.6172 131.165,244.6172 L121.165,244.6172 " fill="none" style="stroke:#181818;stroke-width:1.0;"/><text fill="#000000" font-family="sans-serif" font-size="14" lengthAdjust="spacing" textLength="42.0273" x="76.1377" y="269.9551">a &amp;&amp; b</text><path d="M171.165,175.9844 L161.165,175.9844 C146.165,175.9844 146.165,264.2266 131.165,264.2266 L121.165,264.2266 " fill="none" style="stroke:#181818;stroke-width:1.0;"/><text fill="#000000" font-family="sans-serif" font-size="14" lengthAdjust="spacing" textLength="30.625" x="87.54" y="289.5645">a || b</text><path d="M171.165,175.9844 L161.165,175.9844 C146.165,175.9844 146.165,283.8359 131.165,283.8359 L121.165,283.8359 " fill="none" style="stroke:#181818;stroke-width:1.0;"/><path d="M297.9785,302.2266 L287.9785,302.2266 C272.9785,302.2266 272.9785,175.9844 257.9785,175.9844 L247.9785,175.9844 " fill="none" style="stroke:#181818;stroke-width:1.0;"/><rect fill="#F1F1F1" height="37.6094" rx="12.5" ry="12.5" style="stroke:#181818;stroke-width:1.5;" width="107.9512" x="140.0273" y="303.6406"/><text fill="#000000" font-family="sans-serif" font-size="14" lengthAdjust="spacing" textLength="87.9512" x="150.0273" y="328.1738">parenthesized</text><text fill="#000000" font-family="sans-serif" font-size="14" lengthAdjust="spacing" textLength="77.0273" x="10" y="328.1738">(expression)</text><path d="M140.0273,322.4453 L130.0273,322.4453 C115.0273,322.4453 115.0273,322.4453 100.0273,322.4453 L90.0273,322.4453 " fill="none" style="stroke:#181818;stroke-width:1.0;"/><path d="M297.9785,302.2266 L287.9785,302.2266 C272.9785,302.2266 272.9785,322.4453 257.9785,322.4453 L247.9785,322.4453 " fill="none" style="stroke:#181818;stroke-width:1.0;"/><rect fill="#F1F1F1" height="37.6094" rx="12.5" ry="12.5" style="stroke:#181818;stroke-width:1.5;" width="91.5928" x="156.3857" y="361.25"/><text fill="#000000" font-family="sans-serif" font-size="14" lengthAdjust="spacing" textLength="71.5928" x="166.3857" y="385.7832">assignment</text><text fill="#000000" font-family="sans-serif" font-size="14" lengthAdjust="spacing" textLength="23.748" x="79.6377" y="385.7832">a=b</text><path d="M156.3857,380.0547 L146.3857,380.0547 C131.3857,380.0547 131.3857,380.0547 116.3857,380.0547 L106.3857,380.0547 " fill="none" style="stroke:#181818;stroke-width:1.0;"/><path d="M297.9785,302.2266 L287.9785,302.2266 C272.9785,302.2266 272.9785,380.0547 257.9785,380.0547 L247.9785,380.0547 " fill="none" style="stroke:#181818;stroke-width:1.0;"/><rect fill="#F1F1F1" height="37.6094" rx="12.5" ry="12.5" style="stroke:#181818;stroke-width:1.5;" width="80.6826" x="167.2959" y="458.6875"/><text fill="#000000" font-family="sans-serif" font-size="14" lengthAdjust="spacing" textLength="60.6826" x="177.2959" y="483.2207">arithmetic</text><text fill="#000000" font-family="sans-serif" font-size="14" lengthAdjust="spacing" textLength="28.0137" x="86.2822" y="424.3926">a - b</text><path d="M167.2959,477.4922 L157.2959,477.4922 C142.2959,477.4922 142.2959,418.6641 127.2959,418.6641 L117.2959,418.6641 " fill="none" style="stroke:#181818;stroke-width:1.0;"/><text fill="#000000" font-family="sans-serif" font-size="14" lengthAdjust="spacing" textLength="28.0137" x="86.2822" y="444.002">a - b</text><path d="M167.2959,477.4922 L157.2959,477.4922 C142.2959,477.4922 142.2959,438.2734 127.2959,438.2734 L117.2959,438.2734 " fill="none" style="stroke:#181818;stroke-width:1.0;"/><text fill="#000000" font-family="sans-serif" font-size="14" lengthAdjust="spacing" textLength="28.7998" x="85.4961" y="463.6113">a * b</text><path d="M167.2959,477.4922 L157.2959,477.4922 C142.2959,477.4922 142.2959,457.8828 127.2959,457.8828 L117.2959,457.8828 " fill="none" style="stroke:#181818;stroke-width:1.0;"/><text fill="#000000" font-family="sans-serif" font-size="14" lengthAdjust="spacing" textLength="27.2412" x="87.0547" y="483.2207">a / b</text><path d="M167.2959,477.4922 L157.2959,477.4922 C142.2959,477.4922 142.2959,477.4922 127.2959,477.4922 L117.2959,477.4922 " fill="none" style="stroke:#181818;stroke-width:1.0;"/><text fill="#000000" font-family="sans-serif" font-size="14" lengthAdjust="spacing" textLength="35.7998" x="78.4961" y="502.8301">a % b</text><path d="M167.2959,477.4922 L157.2959,477.4922 C142.2959,477.4922 142.2959,497.1016 127.2959,497.1016 L117.2959,497.1016 " fill="none" style="stroke:#181818;stroke-width:1.0;"/><text fill="#000000" font-family="sans-serif" font-size="14" lengthAdjust="spacing" textLength="50.5859" x="63.71" y="522.4395">a mod b</text><path d="M167.2959,477.4922 L157.2959,477.4922 C142.2959,477.4922 142.2959,516.7109 127.2959,516.7109 L117.2959,516.7109 " fill="none" style="stroke:#181818;stroke-width:1.0;"/><text fill="#000000" font-family="sans-serif" font-size="14" lengthAdjust="spacing" textLength="58.3721" x="55.9238" y="542.0488">a umod b</text><path d="M167.2959,477.4922 L157.2959,477.4922 C142.2959,477.4922 142.2959,536.3203 127.2959,536.3203 L117.2959,536.3203 " fill="none" style="stroke:#181818;stroke-width:1.0;"/><path d="M297.9785,302.2266 L287.9785,302.2266 C272.9785,302.2266 272.9785,477.4922 257.9785,477.4922 L247.9785,477.4922 " fill="none" style="stroke:#181818;stroke-width:1.0;"/><!--SRC=[bPHjJzim4CVVvrFSa2WjLQ0DtJfbeM90jGcr4rg0D-jMEOaRB2LEv3W5HldkEyV9d8engL9U_ExXV-U7YyyAIOHC6OzIabk7BamVSq6BWcNSyi8ieXEB0E4H1404XIod0gt2yevry9FLxqF29BeJnFuIXiw9XZqIXB1OSDYFzhJdW1pKi7Z4jD5VYzU4sHe6Zyx9vtDLct59Oof0-nkhxWZKhBOTNwvA7ahq0eiebsp5gEWI4PSfMYWkP6-x7X5CtgTKil1LoOB5d4RBNIid6Ozt5jMzTjT28GNZSLsbudyApUOgLKhJGEq-3D6fnUH7SoOcz-T_Gc-aGyc9UD8wdibkm9GDs_qnzkvLGFljjsu40YOVM47h9K47WWOt1dyr-0rxarxZzZoJCfaOVdan_FoCRDiWQ4BKyU5SsxPTgQj0XHE3tcdBtMA_bUvFslvsKblHGgybw7GCRpPwSJd-Z5pUquBzff4ERjqjff12JPEQabfyMYdDkJOrRLE-XOS6Zmtk6qopo1YbjiuelYFrMs9T9uJBs_aCrbIeLS7mo1auewDnroSIV9h3O8oVE_pe3iSmlRm15UvPtI_NCoYoKeGK8gQ6EIXbjQihiYRmlSHXJgaBokhUp7lWJnidJFcQYKpl-kfkhfFWQoRz70T19NyOsUTCjHUuBBYRMvTqHSf4eXHVDFnlNBZ8XyvxnveH7fSanawKMnSPTX1FBjpwVm00]--></g></svg>