<svg xmlns="http://www.w3.org/2000/svg" xmlns:xlink="http://www.w3.org/1999/xlink" contentStyleType="text/css" height="549px" preserveAspectRatio="none" style="width:996px;height:549px;background:#FFFFFF;" version="1.1" viewBox="0 0 996 549" width="996px" zoomAndPan="magnify"><defs/><g><rect fill="#F1F1F1" height="73.498" rx="12.5" ry="12.5" style="stroke:#181818;stroke-width:1.5;" width="188.0273" x="297.9785" y="237.0635"/><text fill="#000000" font-family="sans-serif" font-size="14" lengthAdjust="spacing" textLength="69.2549" x="311.8682" y="261.5967">Expression</text><text fill="#000000" font-family="monospace" font-size="14" lengthAdjust="spacing" textLength="168.0273" x="307.9785" y="278.748">a&#160;and&#160;b&#160;are&#160;operands</text><text fill="#000000" font-family="sans-serif" font-size="14" lengthAdjust="spacing" textLength="3.8896" x="307.9785" y="297.4854">&#160;</text><rect fill="#F1F1F1" height="37.6094" rx="12.5" ry="12.5" style="stroke:#181818;stroke-width:1.5;" width="53.4551" x="536.0059" y="40.2188"/><text fill="#000000" font-family="sans-serif" font-size="14" lengthAdjust="spacing" textLength="33.4551" x="546.0059" y="64.752">literal</text><text fill="#000000" font-family="sans-serif" font-size="14" lengthAdjust="spacing" textLength="23.3584" x="642.4609" y="25.5332">123</text><path d="M589.4609,59.0234 L599.4609,59.0234 C614.4609,59.0234 614.4609,19.8047 629.4609,19.8047 L639.4609,19.8047 " fill="none" style="stroke:#181818;stroke-width:1.0;"/><text fill="#000000" font-family="sans-serif" font-size="14" lengthAdjust="spacing" textLength="72.2012" x="642.4609" y="45.1426">"abc \n %d"</text><path d="M589.4609,59.0234 L599.4609,59.0234 C614.4609,59.0234 614.4609,39.4141 629.4609,39.4141 L639.4609,39.4141 " fill="none" style="stroke:#181818;stroke-width:1.0;"/><text fill="#000000" font-family="sans-serif" font-size="14" lengthAdjust="spacing" textLength="13.1318" x="642.4609" y="64.752">'a'</text><path d="M589.4609,59.0234 L599.4609,59.0234 C614.4609,59.0234 614.4609,59.0234 629.4609,59.0234 L639.4609,59.0234 " fill="none" style="stroke:#181818;stroke-width:1.0;"/><text fill="#000000" font-family="sans-serif" font-size="14" lengthAdjust="spacing" textLength="11.6758" x="642.4609" y="84.3613">\n</text><path d="M589.4609,59.0234 L599.4609,59.0234 C614.4609,59.0234 614.4609,78.6328 629.4609,78.6328 L639.4609,78.6328 " fill="none" style="stroke:#181818;stroke-width:1.0;"/><text fill="#000000" font-family="sans-serif" font-size="14" lengthAdjust="spacing" textLength="49.0342" x="642.4609" y="103.9707">0x23AB</text><path d="M589.4609,59.0234 L599.4609,59.0234 C614.4609,59.0234 614.4609,98.2422 629.4609,98.2422 L639.4609,98.2422 " fill="none" style="stroke:#181818;stroke-width:1.0;"/><path d="M486.0059,273.8125 L496.0059,273.8125 C511.0059,273.8125 511.0059,59.0234 526.0059,59.0234 L536.0059,59.0234 " fill="none" style="stroke:#181818;stroke-width:1.0;"/><rect fill="#F1F1F1" height="37.6094" rx="12.5" ry="12.5" style="stroke:#181818;stroke-width:1.5;" width="66.6963" x="536.0059" y="148.0703"/><text fill="#000000" font-family="sans-serif" font-size="14" lengthAdjust="spacing" textLength="42.8066" x="546.0059" y="172.6035">integer</text><text fill="#000000" font-family="sans-serif" font-size="14" lengthAdjust="spacing" textLength="151.7441" x="655.7021" y="123.5801">integer literal expression</text><path d="M602.7021,166.875 L612.7021,166.875 C627.7021,166.875 627.7021,117.8516 642.7021,117.8516 L652.7021,117.8516 " fill="none" style="stroke:#181818;stroke-width:1.0;"/><text fill="#000000" font-family="sans-serif" font-size="14" lengthAdjust="spacing" textLength="245.9023" x="655.7021" y="143.1895">integer_function identifier(argument list)</text><path d="M602.7021,166.875 L612.7021,166.875 C627.7021,166.875 627.7021,137.4609 642.7021,137.4609 L652.7021,137.4609 " fill="none" style="stroke:#181818;stroke-width:1.0;"/><text fill="#000000" font-family="sans-serif" font-size="14" lengthAdjust="spacing" textLength="178.9717" x="655.7021" y="162.7988">integer arithmetic expression</text><path d="M602.7021,166.875 L612.7021,166.875 C627.7021,166.875 627.7021,157.0703 642.7021,157.0703 L652.7021,157.0703 " fill="none" style="stroke:#181818;stroke-width:1.0;"/><text fill="#000000" font-family="sans-serif" font-size="14" lengthAdjust="spacing" textLength="294.9434" x="655.7021" y="182.4082">signed_integer_function identifier(argument list)</text><path d="M602.7021,166.875 L612.7021,166.875 C627.7021,166.875 627.7021,176.6797 642.7021,176.6797 L652.7021,176.6797 " fill="none" style="stroke:#181818;stroke-width:1.0;"/><text fill="#000000" font-family="sans-serif" font-size="14" lengthAdjust="spacing" textLength="280.1572" x="655.7021" y="202.0176">long_integer_function identifier(argument list)</text><path d="M602.7021,166.875 L612.7021,166.875 C627.7021,166.875 627.7021,196.2891 642.7021,196.2891 L652.7021,196.2891 " fill="none" style="stroke:#181818;stroke-width:1.0;"/><text fill="#000000" font-family="sans-serif" font-size="14" lengthAdjust="spacing" textLength="329.1982" x="655.7021" y="221.627">signed_long_integer_function identifier(argument list)</text><path d="M602.7021,166.875 L612.7021,166.875 C627.7021,166.875 627.7021,215.8984 642.7021,215.8984 L652.7021,215.8984 " fill="none" style="stroke:#181818;stroke-width:1.0;"/><path d="M486.0059,273.8125 L496.0059,273.8125 C511.0059,273.8125 511.0059,166.875 526.0059,166.875 L536.0059,166.875 " fill="none" style="stroke:#181818;stroke-width:1.0;"/><rect fill="#F1F1F1" height="37.6094" rx="12.5" ry="12.5" style="stroke:#181818;stroke-width:1.5;" width="54.2344" x="536.0059" y="216.7031"/><text fill="#000000" font-family="sans-serif" font-size="14" lengthAdjust="spacing" textLength="34.2344" x="546.0059" y="241.2363">string</text><text fill="#000000" font-family="sans-serif" font-size="14" lengthAdjust="spacing" textLength="224.8887" x="643.2402" y="241.2363">string_function identifier(expression)</text><path d="M590.2402,235.5078 L600.2402,235.5078 C615.2402,235.5078 615.2402,235.5078 630.2402,235.5078 L640.2402,235.5078 " fill="none" style="stroke:#181818;stroke-width:1.0;"/><path d="M486.0059,273.8125 L496.0059,273.8125 C511.0059,273.8125 511.0059,235.5078 526.0059,235.5078 L536.0059,235.5078 " fill="none" style="stroke:#181818;stroke-width:1.0;"/><rect fill="#F1F1F1" height="37.6094" rx="12.5" ry="12.5" style="stroke:#181818;stroke-width:1.5;" width="118.8066" x="536.0059" y="274.3125"/><text fill="#000000" font-family="sans-serif" font-size="14" lengthAdjust="spacing" textLength="98.8066" x="546.0059" y="298.8457">member access</text><text fill="#000000" font-family="sans-serif" font-size="14" lengthAdjust="spacing" textLength="129.9648" x="707.8125" y="289.041">a[integer expression]</text><path d="M654.8125,293.1172 L664.8125,293.1172 C679.8125,293.1172 679.8125,283.3125 694.8125,283.3125 L704.8125,283.3125 " fill="none" style="stroke:#181818;stroke-width:1.0;"/><text fill="#000000" font-family="sans-serif" font-size="14" lengthAdjust="spacing" textLength="252.1436" x="707.8125" y="308.6504">a[integer expression][integer expression]</text><path d="M654.8125,293.1172 L664.8125,293.1172 C679.8125,293.1172 679.8125,302.9219 694.8125,302.9219 L704.8125,302.9219 " fill="none" style="stroke:#181818;stroke-width:1.0;"/><path d="M486.0059,273.8125 L496.0059,273.8125 C511.0059,273.8125 511.0059,293.1172 526.0059,293.1172 L536.0059,293.1172 " fill="none" style="stroke:#181818;stroke-width:1.0;"/><rect fill="#F1F1F1" height="37.6094" rx="12.5" ry="12.5" style="stroke:#181818;stroke-width:1.5;" width="55.0205" x="536.0059" y="332.5313"/><text fill="#000000" font-family="sans-serif" font-size="14" lengthAdjust="spacing" textLength="35.0205" x="546.0059" y="357.0645">unary</text><text fill="#000000" font-family="sans-serif" font-size="14" lengthAdjust="spacing" textLength="138.5098" x="644.0264" y="337.4551">not(binary expression)</text><path d="M591.0264,351.3359 L601.0264,351.3359 C616.0264,351.3359 616.0264,331.7266 631.0264,331.7266 L641.0264,331.7266 " fill="none" style="stroke:#181818;stroke-width:1.0;"/><text fill="#000000" font-family="sans-serif" font-size="14" lengthAdjust="spacing" textLength="113.6133" x="644.0264" y="357.0645">!binary expression</text><path d="M591.0264,351.3359 L601.0264,351.3359 C616.0264,351.3359 616.0264,351.3359 631.0264,351.3359 L641.0264,351.3359 " fill="none" style="stroke:#181818;stroke-width:1.0;"/><text fill="#000000" font-family="sans-serif" font-size="14" lengthAdjust="spacing" textLength="136.9375" x="644.0264" y="376.6738">-arithmetic expression</text><path d="M591.0264,351.3359 L601.0264,351.3359 C616.0264,351.3359 616.0264,370.9453 631.0264,370.9453 L641.0264,370.9453 " fill="none" style="stroke:#181818;stroke-width:1.0;"/><path d="M486.0059,273.8125 L496.0059,273.8125 C511.0059,273.8125 511.0059,351.3359 526.0059,351.3359 L536.0059,351.3359 " fill="none" style="stroke:#181818;stroke-width:1.0;"/><rect fill="#F1F1F1" height="37.6094" rx="12.5" ry="12.5" style="stroke:#181818;stroke-width:1.5;" width="62.793" x="536.0059" y="440.3828"/><text fill="#000000" font-family="sans-serif" font-size="14" lengthAdjust="spacing" textLength="42.793" x="546.0059" y="464.916">bitwise</text><text fill="#000000" font-family="sans-serif" font-size="14" lengthAdjust="spacing" textLength="32.6895" x="651.7988" y="396.2832">a &amp; b</text><path d="M598.7988,459.1875 L608.7988,459.1875 C623.7988,459.1875 623.7988,390.5547 638.7988,390.5547 L648.7988,390.5547 " fill="none" style="stroke:#181818;stroke-width:1.0;"/><text fill="#000000" font-family="sans-serif" font-size="14" lengthAdjust="spacing" textLength="26.9883" x="651.7988" y="415.8926">a | b</text><path d="M598.7988,459.1875 L608.7988,459.1875 C623.7988,459.1875 623.7988,410.1641 638.7988,410.1641 L648.7988,410.1641 " fill="none" style="stroke:#181818;stroke-width:1.0;"/><text fill="#000000" font-family="sans-serif" font-size="14" lengthAdjust="spacing" textLength="29.9209" x="651.7988" y="435.502">a ^ b</text><path d="M598.7988,459.1875 L608.7988,459.1875 C623.7988,459.1875 623.7988,429.7734 638.7988,429.7734 L648.7988,429.7734 " fill="none" style="stroke:#181818;stroke-width:1.0;"/><text fill="#000000" font-family="sans-serif" font-size="14" lengthAdjust="spacing" textLength="38.8965" x="651.7988" y="455.1113">Not(a)</text><path d="M598.7988,459.1875 L608.7988,459.1875 C623.7988,459.1875 623.7988,449.3828 638.7988,449.3828 L648.7988,449.3828 " fill="none" style="stroke:#181818;stroke-width:1.0;"/><text fill="#000000" font-family="sans-serif" font-size="14" lengthAdjust="spacing" textLength="39.7031" x="651.7988" y="474.7207">a &lt;&lt; b</text><path d="M598.7988,459.1875 L608.7988,459.1875 C623.7988,459.1875 623.7988,468.9922 638.7988,468.9922 L648.7988,468.9922 " fill="none" style="stroke:#181818;stroke-width:1.0;"/><text fill="#000000" font-family="sans-serif" font-size="14" lengthAdjust="spacing" textLength="39.7031" x="651.7988" y="494.3301">a &gt;&gt; b</text><path d="M598.7988,459.1875 L608.7988,459.1875 C623.7988,459.1875 623.7988,488.6016 638.7988,488.6016 L648.7988,488.6016 " fill="none" style="stroke:#181818;stroke-width:1.0;"/><text fill="#000000" font-family="sans-serif" font-size="14" lengthAdjust="spacing" textLength="32.7031" x="651.7988" y="513.9395">a }} b</text><path d="M598.7988,459.1875 L608.7988,459.1875 C623.7988,459.1875 623.7988,508.2109 638.7988,508.2109 L648.7988,508.2109 " fill="none" style="stroke:#181818;stroke-width:1.0;"/><text fill="#000000" font-family="sans-serif" font-size="14" lengthAdjust="spacing" textLength="32.7031" x="651.7988" y="533.5488">a {{ b</text><path d="M598.7988,459.1875 L608.7988,459.1875 C623.7988,459.1875 623.7988,527.8203 638.7988,527.8203 L648.7988,527.8203 " fill="none" style="stroke:#181818;stroke-width:1.0;"/><path d="M486.0059,273.8125 L496.0059,273.8125 C511.0059,273.8125 511.0059,459.1875 526.0059,459.1875 L536.0059,459.1875 " fill="none" style="stroke:#181818;stroke-width:1.0;"/><rect fill="#F1F1F1" height="37.6094" rx="12.5" ry="12.5" style="stroke:#181818;stroke-width:1.5;" width="76.8135" x="171.165" y="128.7656"/><text fill="#000000" font-family="sans-serif" font-size="14" lengthAdjust="spacing" textLength="56.8135" x="181.165" y="153.2988">relational</text><text fill="#000000" font-family="sans-serif" font-size="14" lengthAdjust="spacing" textLength="31.5273" x="86.6377" y="45.4473">a &lt; b</text><path d="M171.165,147.5703 L161.165,147.5703 C146.165,147.5703 146.165,39.7188 131.165,39.7188 L121.165,39.7188 " fill="none" style="stroke:#181818;stroke-width:1.0;"/><text fill="#000000" font-family="sans-serif" font-size="14" lengthAdjust="spacing" textLength="31.5273" x="86.6377" y="65.0566">a &gt; b</text><path d="M171.165,147.5703 L161.165,147.5703 C146.165,147.5703 146.165,59.3281 131.165,59.3281 L121.165,59.3281 " fill="none" style="stroke:#181818;stroke-width:1.0;"/><text fill="#000000" font-family="sans-serif" font-size="14" lengthAdjust="spacing" textLength="39.7031" x="78.4619" y="84.666">a &lt;= b</text><path d="M171.165,147.5703 L161.165,147.5703 C146.165,147.5703 146.165,78.9375 131.165,78.9375 L121.165,78.9375 " fill="none" style="stroke:#181818;stroke-width:1.0;"/><text fill="#000000" font-family="sans-serif" font-size="14" lengthAdjust="spacing" textLength="39.7031" x="78.4619" y="104.2754">a &gt;= b</text><path d="M171.165,147.5703 L161.165,147.5703 C146.165,147.5703 146.165,98.5469 131.165,98.5469 L121.165,98.5469 " fill="none" style="stroke:#181818;stroke-width:1.0;"/><text fill="#000000" font-family="sans-serif" font-size="14" lengthAdjust="spacing" textLength="40.8652" x="77.2998" y="123.8848">a S&lt; b</text><path d="M171.165,147.5703 L161.165,147.5703 C146.165,147.5703 146.165,118.1563 131.165,118.1563 L121.165,118.1563 " fill="none" style="stroke:#181818;stroke-width:1.0;"/><text fill="#000000" font-family="sans-serif" font-size="14" lengthAdjust="spacing" textLength="40.8652" x="77.2998" y="143.4941">a S&gt; b</text><path d="M171.165,147.5703 L161.165,147.5703 C146.165,147.5703 146.165,137.7656 131.165,137.7656 L121.165,137.7656 " fill="none" style="stroke:#181818;stroke-width:1.0;"/><text fill="#000000" font-family="sans-serif" font-size="14" lengthAdjust="spacing" textLength="49.041" x="69.124" y="163.1035">a S&lt;= b</text><path d="M171.165,147.5703 L161.165,147.5703 C146.165,147.5703 146.165,157.375 131.165,157.375 L121.165,157.375 " fill="none" style="stroke:#181818;stroke-width:1.0;"/><text fill="#000000" font-family="sans-serif" font-size="14" lengthAdjust="spacing" textLength="49.041" x="69.124" y="182.7129">a S&gt;= b</text><path d="M171.165,147.5703 L161.165,147.5703 C146.165,147.5703 146.165,176.9844 131.165,176.9844 L121.165,176.9844 " fill="none" style="stroke:#181818;stroke-width:1.0;"/><text fill="#000000" font-family="sans-serif" font-size="14" lengthAdjust="spacing" textLength="31.5273" x="86.6377" y="202.3223">a = b</text><path d="M171.165,147.5703 L161.165,147.5703 C146.165,147.5703 146.165,196.5938 131.165,196.5938 L121.165,196.5938 " fill="none" style="stroke:#181818;stroke-width:1.0;"/><text fill="#000000" font-family="sans-serif" font-size="14" lengthAdjust="spacing" textLength="39.7031" x="78.4619" y="221.9316">a &lt;&gt; b</text><path d="M171.165,147.5703 L161.165,147.5703 C146.165,147.5703 146.165,216.2031 131.165,216.2031 L121.165,216.2031 " fill="none" style="stroke:#181818;stroke-width:1.0;"/><text fill="#000000" font-family="sans-serif" font-size="14" lengthAdjust="spacing" textLength="42.0273" x="76.1377" y="241.541">a &amp;&amp; b</text><path d="M171.165,147.5703 L161.165,147.5703 C146.165,147.5703 146.165,235.8125 131.165,235.8125 L121.165,235.8125 " fill="none" style="stroke:#181818;stroke-width:1.0;"/><text fill="#000000" font-family="sans-serif" font-size="14" lengthAdjust="spacing" textLength="30.625" x="87.54" y="261.1504">a || b</text><path d="M171.165,147.5703 L161.165,147.5703 C146.165,147.5703 146.165,255.4219 131.165,255.4219 L121.165,255.4219 " fill="none" style="stroke:#181818;stroke-width:1.0;"/><path d="M297.9785,273.8125 L287.9785,273.8125 C272.9785,273.8125 272.9785,147.5703 257.9785,147.5703 L247.9785,147.5703 " fill="none" style="stroke:#181818;stroke-width:1.0;"/><rect fill="#F1F1F1" height="37.6094" rx="12.5" ry="12.5" style="stroke:#181818;stroke-width:1.5;" width="107.9512" x="140.0273" y="275.2266"/><text fill="#000000" font-family="sans-serif" font-size="14" lengthAdjust="spacing" textLength="87.9512" x="150.0273" y="299.7598">parenthesized</text><text fill="#000000" font-family="sans-serif" font-size="14" lengthAdjust="spacing" textLength="77.0273" x="10" y="299.7598">(expression)</text><path d="M140.0273,294.0313 L130.0273,294.0313 C115.0273,294.0313 115.0273,294.0313 100.0273,294.0313 L90.0273,294.0313 " fill="none" style="stroke:#181818;stroke-width:1.0;"/><path d="M297.9785,273.8125 L287.9785,273.8125 C272.9785,273.8125 272.9785,294.0313 257.9785,294.0313 L247.9785,294.0313 " fill="none" style="stroke:#181818;stroke-width:1.0;"/><rect fill="#F1F1F1" height="37.6094" rx="12.5" ry="12.5" style="stroke:#181818;stroke-width:1.5;" width="91.5928" x="156.3857" y="332.8359"/><text fill="#000000" font-family="sans-serif" font-size="14" lengthAdjust="spacing" textLength="71.5928" x="166.3857" y="357.3691">assignment</text><text fill="#000000" font-family="sans-serif" font-size="14" lengthAdjust="spacing" textLength="23.748" x="79.6377" y="357.3691">a=b</text><path d="M156.3857,351.6406 L146.3857,351.6406 C131.3857,351.6406 131.3857,351.6406 116.3857,351.6406 L106.3857,351.6406 " fill="none" style="stroke:#181818;stroke-width:1.0;"/><path d="M297.9785,273.8125 L287.9785,273.8125 C272.9785,273.8125 272.9785,351.6406 257.9785,351.6406 L247.9785,351.6406 " fill="none" style="stroke:#181818;stroke-width:1.0;"/><rect fill="#F1F1F1" height="37.6094" rx="12.5" ry="12.5" style="stroke:#181818;stroke-width:1.5;" width="80.6826" x="167.2959" y="430.2734"/><text fill="#000000" font-family="sans-serif" font-size="14" lengthAdjust="spacing" textLength="60.6826" x="177.2959" y="454.8066">arithmetic</text><text fill="#000000" font-family="sans-serif" font-size="14" lengthAdjust="spacing" textLength="28.0137" x="86.2822" y="395.9785">a - b</text><path d="M167.2959,449.0781 L157.2959,449.0781 C142.2959,449.0781 142.2959,390.25 127.2959,390.25 L117.2959,390.25 " fill="none" style="stroke:#181818;stroke-width:1.0;"/><text fill="#000000" font-family="sans-serif" font-size="14" lengthAdjust="spacing" textLength="28.0137" x="86.2822" y="415.5879">a - b</text><path d="M167.2959,449.0781 L157.2959,449.0781 C142.2959,449.0781 142.2959,409.8594 127.2959,409.8594 L117.2959,409.8594 " fill="none" style="stroke:#181818;stroke-width:1.0;"/><text fill="#000000" font-family="sans-serif" font-size="14" lengthAdjust="spacing" textLength="28.7998" x="85.4961" y="435.1973">a * b</text><path d="M167.2959,449.0781 L157.2959,449.0781 C142.2959,449.0781 142.2959,429.4688 127.2959,429.4688 L117.2959,429.4688 " fill="none" style="stroke:#181818;stroke-width:1.0;"/><text fill="#000000" font-family="sans-serif" font-size="14" lengthAdjust="spacing" textLength="27.2412" x="87.0547" y="454.8066">a / b</text><path d="M167.2959,449.0781 L157.2959,449.0781 C142.2959,449.0781 142.2959,449.0781 127.2959,449.0781 L117.2959,449.0781 " fill="none" style="stroke:#181818;stroke-width:1.0;"/><text fill="#000000" font-family="sans-serif" font-size="14" lengthAdjust="spacing" textLength="35.7998" x="78.4961" y="474.416">a % b</text><path d="M167.2959,449.0781 L157.2959,449.0781 C142.2959,449.0781 142.2959,468.6875 127.2959,468.6875 L117.2959,468.6875 " fill="none" style="stroke:#181818;stroke-width:1.0;"/><text fill="#000000" font-family="sans-serif" font-size="14" lengthAdjust="spacing" textLength="50.5859" x="63.71" y="494.0254">a mod b</text><path d="M167.2959,449.0781 L157.2959,449.0781 C142.2959,449.0781 142.2959,488.2969 127.2959,488.2969 L117.2959,488.2969 " fill="none" style="stroke:#181818;stroke-width:1.0;"/><text fill="#000000" font-family="sans-serif" font-size="14" lengthAdjust="spacing" textLength="58.3721" x="55.9238" y="513.6348">a umod b</text><path d="M167.2959,449.0781 L157.2959,449.0781 C142.2959,449.0781 142.2959,507.9063 127.2959,507.9063 L117.2959,507.9063 " fill="none" style="stroke:#181818;stroke-width:1.0;"/><path d="M297.9785,273.8125 L287.9785,273.8125 C272.9785,273.8125 272.9785,449.0781 257.9785,449.0781 L247.9785,449.0781 " fill="none" style="stroke:#181818;stroke-width:1.0;"/><!--SRC=[bLHjJzim4FwUNt53ehHK0HhOEcMXOa2r2RKJMe0lOwkSn0sM4YUodGv6-UyxnucSYZ6fKZuyzzmzzs9VV2OL4IfdFCb9wUpxC7qi1PMI5Tm9uYAX4uS0uGb4G0I5egG2BUa4XyRvoHaE8MCAwGpXS04ZxzY07HB5S7_FOJVPCSmUsJC0MGEE7htZp-Sw1-EAfbI0uLkhoGpKTjNrBvOLZnMom1BA5LioAlf4f5ME5egb6cpc8uAfXvmg5hzAALdAQRBODdDMy7HhKLDhUor89HXFcomr_gVG3bUhSff7UleuHjA8oO_sJ6pip_-utWY7YXFnP7IyKFs8QHiswwFltIk7uTstRWGYfdupIPkMe0TH2zSM_chXDwnD1YqT13PaCh7uvSNYvsV4hWk2PaGV7-wlwxgrkdRKS69XSDgXEpZiX8UJBjyDwYewCEW8UZsBrslJN8a_7LSFLB8_D37EZRl542BrDkajQSIdjTAUQvlJjUaxSD_2GmjtBSoBn1gLiSuelXVDc-5SPuIhs_aCLbJehc1qu1rv9mVZVaWKXBI4ep5-_kYZFnh3zF86j7lWzBzSpq0MbOWf94mlSrIfUgehiYBmlS9bpgaFskhVp0SGJbiIfdp5H66clhgRco3uMgYmn4NGmHzEt7Ecomji2-xcpYLTaYfJACMN2_yR7oxAaVVUSsQ4fnL9iHBbpaM15SIJ3xVXNm00]--></g></svg>