<svg xmlns="http://www.w3.org/2000/svg" xmlns:xlink="http://www.w3.org/1999/xlink" contentStyleType="text/css" height="509px" preserveAspectRatio="none" style="width:996px;height:509px;background:#FFFFFF;" version="1.1" viewBox="0 0 996 509" width="996px" zoomAndPan="magnify"><defs/><g><rect fill="#F1F1F1" height="73.498" rx="12.5" ry="12.5" style="stroke:#181818;stroke-width:1.5;" width="188.0273" x="297.9785" y="217.1494"/><text fill="#000000" font-family="sans-serif" font-size="14" lengthAdjust="spacing" textLength="69.2549" x="311.8682" y="241.6826">Expression</text><text fill="#000000" font-family="monospace" font-size="14" lengthAdjust="spacing" textLength="168.0273" x="307.9785" y="258.834">a&#160;and&#160;b&#160;are&#160;operands</text><text fill="#000000" font-family="sans-serif" font-size="14" lengthAdjust="spacing" textLength="3.8896" x="307.9785" y="277.5713">&#160;</text><rect fill="#F1F1F1" height="37.6094" rx="12.5" ry="12.5" style="stroke:#181818;stroke-width:1.5;" width="53.4551" x="536.0059" y="35.3164"/><text fill="#000000" font-family="sans-serif" font-size="14" lengthAdjust="spacing" textLength="33.4551" x="546.0059" y="59.8496">literal</text><path d="M486.0059,253.8984 L496.0059,253.8984 C511.0059,253.8984 511.0059,54.1211 526.0059,54.1211 L536.0059,54.1211 " fill="none" style="stroke:#181818;stroke-width:1.0;"/><rect fill="#F1F1F1" height="37.6094" rx="12.5" ry="12.5" style="stroke:#181818;stroke-width:1.5;" width="66.6963" x="536.0059" y="92.9258"/><text fill="#000000" font-family="sans-serif" font-size="14" lengthAdjust="spacing" textLength="42.8066" x="546.0059" y="117.459">integer</text><text fill="#000000" font-family="sans-serif" font-size="14" lengthAdjust="spacing" textLength="151.7441" x="655.7021" y="68.4355">integer literal expression</text><path d="M602.7021,111.7305 L612.7021,111.7305 C627.7021,111.7305 627.7021,62.707 642.7021,62.707 L652.7021,62.707 " fill="none" style="stroke:#181818;stroke-width:1.0;"/><text fill="#000000" font-family="sans-serif" font-size="14" lengthAdjust="spacing" textLength="245.9023" x="655.7021" y="88.0449">integer_function identifier(argument list)</text><path d="M602.7021,111.7305 L612.7021,111.7305 C627.7021,111.7305 627.7021,82.3164 642.7021,82.3164 L652.7021,82.3164 " fill="none" style="stroke:#181818;stroke-width:1.0;"/><text fill="#000000" font-family="sans-serif" font-size="14" lengthAdjust="spacing" textLength="178.9717" x="655.7021" y="107.6543">integer arithmetic expression</text><path d="M602.7021,111.7305 L612.7021,111.7305 C627.7021,111.7305 627.7021,101.9258 642.7021,101.9258 L652.7021,101.9258 " fill="none" style="stroke:#181818;stroke-width:1.0;"/><text fill="#000000" font-family="sans-serif" font-size="14" lengthAdjust="spacing" textLength="294.9434" x="655.7021" y="127.2637">signed_integer_function identifier(argument list)</text><path d="M602.7021,111.7305 L612.7021,111.7305 C627.7021,111.7305 627.7021,121.5352 642.7021,121.5352 L652.7021,121.5352 " fill="none" style="stroke:#181818;stroke-width:1.0;"/><text fill="#000000" font-family="sans-serif" font-size="14" lengthAdjust="spacing" textLength="280.1572" x="655.7021" y="146.873">long_integer_function identifier(argument list)</text><path d="M602.7021,111.7305 L612.7021,111.7305 C627.7021,111.7305 627.7021,141.1445 642.7021,141.1445 L652.7021,141.1445 " fill="none" style="stroke:#181818;stroke-width:1.0;"/><text fill="#000000" font-family="sans-serif" font-size="14" lengthAdjust="spacing" textLength="329.1982" x="655.7021" y="166.4824">signed_long_integer_function identifier(argument list)</text><path d="M602.7021,111.7305 L612.7021,111.7305 C627.7021,111.7305 627.7021,160.7539 642.7021,160.7539 L652.7021,160.7539 " fill="none" style="stroke:#181818;stroke-width:1.0;"/><path d="M486.0059,253.8984 L496.0059,253.8984 C511.0059,253.8984 511.0059,111.7305 526.0059,111.7305 L536.0059,111.7305 " fill="none" style="stroke:#181818;stroke-width:1.0;"/><rect fill="#F1F1F1" height="37.6094" rx="12.5" ry="12.5" style="stroke:#181818;stroke-width:1.5;" width="54.2344" x="536.0059" y="161.5586"/><text fill="#000000" font-family="sans-serif" font-size="14" lengthAdjust="spacing" textLength="34.2344" x="546.0059" y="186.0918">string</text><text fill="#000000" font-family="sans-serif" font-size="14" lengthAdjust="spacing" textLength="224.8887" x="643.2402" y="186.0918">string_function identifier(expression)</text><path d="M590.2402,180.3633 L600.2402,180.3633 C615.2402,180.3633 615.2402,180.3633 630.2402,180.3633 L640.2402,180.3633 " fill="none" style="stroke:#181818;stroke-width:1.0;"/><path d="M486.0059,253.8984 L496.0059,253.8984 C511.0059,253.8984 511.0059,180.3633 526.0059,180.3633 L536.0059,180.3633 " fill="none" style="stroke:#181818;stroke-width:1.0;"/><rect fill="#F1F1F1" height="37.6094" rx="12.5" ry="12.5" style="stroke:#181818;stroke-width:1.5;" width="118.8066" x="536.0059" y="219.168"/><text fill="#000000" font-family="sans-serif" font-size="14" lengthAdjust="spacing" textLength="98.8066" x="546.0059" y="243.7012">member access</text><text fill="#000000" font-family="sans-serif" font-size="14" lengthAdjust="spacing" textLength="129.9648" x="707.8125" y="233.8965">a[integer expression]</text><path d="M654.8125,237.9727 L664.8125,237.9727 C679.8125,237.9727 679.8125,228.168 694.8125,228.168 L704.8125,228.168 " fill="none" style="stroke:#181818;stroke-width:1.0;"/><text fill="#000000" font-family="sans-serif" font-size="14" lengthAdjust="spacing" textLength="252.1436" x="707.8125" y="253.5059">a[integer expression][integer expression]</text><path d="M654.8125,237.9727 L664.8125,237.9727 C679.8125,237.9727 679.8125,247.7773 694.8125,247.7773 L704.8125,247.7773 " fill="none" style="stroke:#181818;stroke-width:1.0;"/><path d="M486.0059,253.8984 L496.0059,253.8984 C511.0059,253.8984 511.0059,237.9727 526.0059,237.9727 L536.0059,237.9727 " fill="none" style="stroke:#181818;stroke-width:1.0;"/><rect fill="#F1F1F1" height="37.6094" rx="12.5" ry="12.5" style="stroke:#181818;stroke-width:1.5;" width="55.0205" x="536.0059" y="277.3867"/><text fill="#000000" font-family="sans-serif" font-size="14" lengthAdjust="spacing" textLength="35.0205" x="546.0059" y="301.9199">unary</text><text fill="#000000" font-family="sans-serif" font-size="14" lengthAdjust="spacing" textLength="138.5098" x="644.0264" y="282.3105">not(binary expression)</text><path d="M591.0264,296.1914 L601.0264,296.1914 C616.0264,296.1914 616.0264,276.582 631.0264,276.582 L641.0264,276.582 " fill="none" style="stroke:#181818;stroke-width:1.0;"/><text fill="#000000" font-family="sans-serif" font-size="14" lengthAdjust="spacing" textLength="113.6133" x="644.0264" y="301.9199">!binary expression</text><path d="M591.0264,296.1914 L601.0264,296.1914 C616.0264,296.1914 616.0264,296.1914 631.0264,296.1914 L641.0264,296.1914 " fill="none" style="stroke:#181818;stroke-width:1.0;"/><text fill="#000000" font-family="sans-serif" font-size="14" lengthAdjust="spacing" textLength="136.9375" x="644.0264" y="321.5293">-arithmetic expression</text><path d="M591.0264,296.1914 L601.0264,296.1914 C616.0264,296.1914 616.0264,315.8008 631.0264,315.8008 L641.0264,315.8008 " fill="none" style="stroke:#181818;stroke-width:1.0;"/><path d="M486.0059,253.8984 L496.0059,253.8984 C511.0059,253.8984 511.0059,296.1914 526.0059,296.1914 L536.0059,296.1914 " fill="none" style="stroke:#181818;stroke-width:1.0;"/><rect fill="#F1F1F1" height="37.6094" rx="12.5" ry="12.5" style="stroke:#181818;stroke-width:1.5;" width="62.793" x="536.0059" y="385.2383"/><text fill="#000000" font-family="sans-serif" font-size="14" lengthAdjust="spacing" textLength="42.793" x="546.0059" y="409.7715">bitwise</text><text fill="#000000" font-family="sans-serif" font-size="14" lengthAdjust="spacing" textLength="32.6895" x="651.7988" y="341.1387">a &amp; b</text><path d="M598.7988,404.043 L608.7988,404.043 C623.7988,404.043 623.7988,335.4102 638.7988,335.4102 L648.7988,335.4102 " fill="none" style="stroke:#181818;stroke-width:1.0;"/><text fill="#000000" font-family="sans-serif" font-size="14" lengthAdjust="spacing" textLength="26.9883" x="651.7988" y="360.748">a | b</text><path d="M598.7988,404.043 L608.7988,404.043 C623.7988,404.043 623.7988,355.0195 638.7988,355.0195 L648.7988,355.0195 " fill="none" style="stroke:#181818;stroke-width:1.0;"/><text fill="#000000" font-family="sans-serif" font-size="14" lengthAdjust="spacing" textLength="29.9209" x="651.7988" y="380.3574">a ^ b</text><path d="M598.7988,404.043 L608.7988,404.043 C623.7988,404.043 623.7988,374.6289 638.7988,374.6289 L648.7988,374.6289 " fill="none" style="stroke:#181818;stroke-width:1.0;"/><text fill="#000000" font-family="sans-serif" font-size="14" lengthAdjust="spacing" textLength="38.8965" x="651.7988" y="399.9668">Not(a)</text><path d="M598.7988,404.043 L608.7988,404.043 C623.7988,404.043 623.7988,394.2383 638.7988,394.2383 L648.7988,394.2383 " fill="none" style="stroke:#181818;stroke-width:1.0;"/><text fill="#000000" font-family="sans-serif" font-size="14" lengthAdjust="spacing" textLength="39.7031" x="651.7988" y="419.5762">a &lt;&lt; b</text><path d="M598.7988,404.043 L608.7988,404.043 C623.7988,404.043 623.7988,413.8477 638.7988,413.8477 L648.7988,413.8477 " fill="none" style="stroke:#181818;stroke-width:1.0;"/><text fill="#000000" font-family="sans-serif" font-size="14" lengthAdjust="spacing" textLength="39.7031" x="651.7988" y="439.1855">a &gt;&gt; b</text><path d="M598.7988,404.043 L608.7988,404.043 C623.7988,404.043 623.7988,433.457 638.7988,433.457 L648.7988,433.457 " fill="none" style="stroke:#181818;stroke-width:1.0;"/><text fill="#000000" font-family="sans-serif" font-size="14" lengthAdjust="spacing" textLength="32.7031" x="651.7988" y="458.7949">a }} b</text><path d="M598.7988,404.043 L608.7988,404.043 C623.7988,404.043 623.7988,453.0664 638.7988,453.0664 L648.7988,453.0664 " fill="none" style="stroke:#181818;stroke-width:1.0;"/><text fill="#000000" font-family="sans-serif" font-size="14" lengthAdjust="spacing" textLength="32.7031" x="651.7988" y="478.4043">a {{ b</text><path d="M598.7988,404.043 L608.7988,404.043 C623.7988,404.043 623.7988,472.6758 638.7988,472.6758 L648.7988,472.6758 " fill="none" style="stroke:#181818;stroke-width:1.0;"/><path d="M486.0059,253.8984 L496.0059,253.8984 C511.0059,253.8984 511.0059,404.043 526.0059,404.043 L536.0059,404.043 " fill="none" style="stroke:#181818;stroke-width:1.0;"/><rect fill="#F1F1F1" height="37.6094" rx="12.5" ry="12.5" style="stroke:#181818;stroke-width:1.5;" width="76.8135" x="171.165" y="108.8516"/><text fill="#000000" font-family="sans-serif" font-size="14" lengthAdjust="spacing" textLength="56.8135" x="181.165" y="133.3848">relational</text><text fill="#000000" font-family="sans-serif" font-size="14" lengthAdjust="spacing" textLength="31.5273" x="86.6377" y="25.5332">a &lt; b</text><path d="M171.165,127.6563 L161.165,127.6563 C146.165,127.6563 146.165,19.8047 131.165,19.8047 L121.165,19.8047 " fill="none" style="stroke:#181818;stroke-width:1.0;"/><text fill="#000000" font-family="sans-serif" font-size="14" lengthAdjust="spacing" textLength="31.5273" x="86.6377" y="45.1426">a &gt; b</text><path d="M171.165,127.6563 L161.165,127.6563 C146.165,127.6563 146.165,39.4141 131.165,39.4141 L121.165,39.4141 " fill="none" style="stroke:#181818;stroke-width:1.0;"/><text fill="#000000" font-family="sans-serif" font-size="14" lengthAdjust="spacing" textLength="39.7031" x="78.4619" y="64.752">a &lt;= b</text><path d="M171.165,127.6563 L161.165,127.6563 C146.165,127.6563 146.165,59.0234 131.165,59.0234 L121.165,59.0234 " fill="none" style="stroke:#181818;stroke-width:1.0;"/><text fill="#000000" font-family="sans-serif" font-size="14" lengthAdjust="spacing" textLength="39.7031" x="78.4619" y="84.3613">a &gt;= b</text><path d="M171.165,127.6563 L161.165,127.6563 C146.165,127.6563 146.165,78.6328 131.165,78.6328 L121.165,78.6328 " fill="none" style="stroke:#181818;stroke-width:1.0;"/><text fill="#000000" font-family="sans-serif" font-size="14" lengthAdjust="spacing" textLength="40.8652" x="77.2998" y="103.9707">a S&lt; b</text><path d="M171.165,127.6563 L161.165,127.6563 C146.165,127.6563 146.165,98.2422 131.165,98.2422 L121.165,98.2422 " fill="none" style="stroke:#181818;stroke-width:1.0;"/><text fill="#000000" font-family="sans-serif" font-size="14" lengthAdjust="spacing" textLength="40.8652" x="77.2998" y="123.5801">a S&gt; b</text><path d="M171.165,127.6563 L161.165,127.6563 C146.165,127.6563 146.165,117.8516 131.165,117.8516 L121.165,117.8516 " fill="none" style="stroke:#181818;stroke-width:1.0;"/><text fill="#000000" font-family="sans-serif" font-size="14" lengthAdjust="spacing" textLength="49.041" x="69.124" y="143.1895">a S&lt;= b</text><path d="M171.165,127.6563 L161.165,127.6563 C146.165,127.6563 146.165,137.4609 131.165,137.4609 L121.165,137.4609 " fill="none" style="stroke:#181818;stroke-width:1.0;"/><text fill="#000000" font-family="sans-serif" font-size="14" lengthAdjust="spacing" textLength="49.041" x="69.124" y="162.7988">a S&gt;= b</text><path d="M171.165,127.6563 L161.165,127.6563 C146.165,127.6563 146.165,157.0703 131.165,157.0703 L121.165,157.0703 " fill="none" style="stroke:#181818;stroke-width:1.0;"/><text fill="#000000" font-family="sans-serif" font-size="14" lengthAdjust="spacing" textLength="31.5273" x="86.6377" y="182.4082">a = b</text><path d="M171.165,127.6563 L161.165,127.6563 C146.165,127.6563 146.165,176.6797 131.165,176.6797 L121.165,176.6797 " fill="none" style="stroke:#181818;stroke-width:1.0;"/><text fill="#000000" font-family="sans-serif" font-size="14" lengthAdjust="spacing" textLength="39.7031" x="78.4619" y="202.0176">a &lt;&gt; b</text><path d="M171.165,127.6563 L161.165,127.6563 C146.165,127.6563 146.165,196.2891 131.165,196.2891 L121.165,196.2891 " fill="none" style="stroke:#181818;stroke-width:1.0;"/><text fill="#000000" font-family="sans-serif" font-size="14" lengthAdjust="spacing" textLength="42.0273" x="76.1377" y="221.627">a &amp;&amp; b</text><path d="M171.165,127.6563 L161.165,127.6563 C146.165,127.6563 146.165,215.8984 131.165,215.8984 L121.165,215.8984 " fill="none" style="stroke:#181818;stroke-width:1.0;"/><text fill="#000000" font-family="sans-serif" font-size="14" lengthAdjust="spacing" textLength="30.625" x="87.54" y="241.2363">a || b</text><path d="M171.165,127.6563 L161.165,127.6563 C146.165,127.6563 146.165,235.5078 131.165,235.5078 L121.165,235.5078 " fill="none" style="stroke:#181818;stroke-width:1.0;"/><path d="M297.9785,253.8984 L287.9785,253.8984 C272.9785,253.8984 272.9785,127.6563 257.9785,127.6563 L247.9785,127.6563 " fill="none" style="stroke:#181818;stroke-width:1.0;"/><rect fill="#F1F1F1" height="37.6094" rx="12.5" ry="12.5" style="stroke:#181818;stroke-width:1.5;" width="107.9512" x="140.0273" y="255.3125"/><text fill="#000000" font-family="sans-serif" font-size="14" lengthAdjust="spacing" textLength="87.9512" x="150.0273" y="279.8457">parenthesized</text><text fill="#000000" font-family="sans-serif" font-size="14" lengthAdjust="spacing" textLength="77.0273" x="10" y="279.8457">(expression)</text><path d="M140.0273,274.1172 L130.0273,274.1172 C115.0273,274.1172 115.0273,274.1172 100.0273,274.1172 L90.0273,274.1172 " fill="none" style="stroke:#181818;stroke-width:1.0;"/><path d="M297.9785,253.8984 L287.9785,253.8984 C272.9785,253.8984 272.9785,274.1172 257.9785,274.1172 L247.9785,274.1172 " fill="none" style="stroke:#181818;stroke-width:1.0;"/><rect fill="#F1F1F1" height="37.6094" rx="12.5" ry="12.5" style="stroke:#181818;stroke-width:1.5;" width="91.5928" x="156.3857" y="312.9219"/><text fill="#000000" font-family="sans-serif" font-size="14" lengthAdjust="spacing" textLength="71.5928" x="166.3857" y="337.4551">assignment</text><text fill="#000000" font-family="sans-serif" font-size="14" lengthAdjust="spacing" textLength="23.748" x="79.6377" y="337.4551">a=b</text><path d="M156.3857,331.7266 L146.3857,331.7266 C131.3857,331.7266 131.3857,331.7266 116.3857,331.7266 L106.3857,331.7266 " fill="none" style="stroke:#181818;stroke-width:1.0;"/><path d="M297.9785,253.8984 L287.9785,253.8984 C272.9785,253.8984 272.9785,331.7266 257.9785,331.7266 L247.9785,331.7266 " fill="none" style="stroke:#181818;stroke-width:1.0;"/><rect fill="#F1F1F1" height="37.6094" rx="12.5" ry="12.5" style="stroke:#181818;stroke-width:1.5;" width="80.6826" x="167.2959" y="410.3594"/><text fill="#000000" font-family="sans-serif" font-size="14" lengthAdjust="spacing" textLength="60.6826" x="177.2959" y="434.8926">arithmetic</text><text fill="#000000" font-family="sans-serif" font-size="14" lengthAdjust="spacing" textLength="28.0137" x="86.2822" y="376.0645">a - b</text><path d="M167.2959,429.1641 L157.2959,429.1641 C142.2959,429.1641 142.2959,370.3359 127.2959,370.3359 L117.2959,370.3359 " fill="none" style="stroke:#181818;stroke-width:1.0;"/><text fill="#000000" font-family="sans-serif" font-size="14" lengthAdjust="spacing" textLength="28.0137" x="86.2822" y="395.6738">a - b</text><path d="M167.2959,429.1641 L157.2959,429.1641 C142.2959,429.1641 142.2959,389.9453 127.2959,389.9453 L117.2959,389.9453 " fill="none" style="stroke:#181818;stroke-width:1.0;"/><text fill="#000000" font-family="sans-serif" font-size="14" lengthAdjust="spacing" textLength="28.7998" x="85.4961" y="415.2832">a * b</text><path d="M167.2959,429.1641 L157.2959,429.1641 C142.2959,429.1641 142.2959,409.5547 127.2959,409.5547 L117.2959,409.5547 " fill="none" style="stroke:#181818;stroke-width:1.0;"/><text fill="#000000" font-family="sans-serif" font-size="14" lengthAdjust="spacing" textLength="27.2412" x="87.0547" y="434.8926">a / b</text><path d="M167.2959,429.1641 L157.2959,429.1641 C142.2959,429.1641 142.2959,429.1641 127.2959,429.1641 L117.2959,429.1641 " fill="none" style="stroke:#181818;stroke-width:1.0;"/><text fill="#000000" font-family="sans-serif" font-size="14" lengthAdjust="spacing" textLength="35.7998" x="78.4961" y="454.502">a % b</text><path d="M167.2959,429.1641 L157.2959,429.1641 C142.2959,429.1641 142.2959,448.7734 127.2959,448.7734 L117.2959,448.7734 " fill="none" style="stroke:#181818;stroke-width:1.0;"/><text fill="#000000" font-family="sans-serif" font-size="14" lengthAdjust="spacing" textLength="50.5859" x="63.71" y="474.1113">a mod b</text><path d="M167.2959,429.1641 L157.2959,429.1641 C142.2959,429.1641 142.2959,468.3828 127.2959,468.3828 L117.2959,468.3828 " fill="none" style="stroke:#181818;stroke-width:1.0;"/><text fill="#000000" font-family="sans-serif" font-size="14" lengthAdjust="spacing" textLength="58.3721" x="55.9238" y="493.7207">a umod b</text><path d="M167.2959,429.1641 L157.2959,429.1641 C142.2959,429.1641 142.2959,487.9922 127.2959,487.9922 L117.2959,487.9922 " fill="none" style="stroke:#181818;stroke-width:1.0;"/><path d="M297.9785,253.8984 L287.9785,253.8984 C272.9785,253.8984 272.9785,429.1641 257.9785,429.1641 L247.9785,429.1641 " fill="none" style="stroke:#181818;stroke-width:1.0;"/><!--SRC=[bPJRJjj048Rl_HJJYqO9aO54jAbSOw52L8GIX6hWfcgZjJqnAzbhQtUTbXBUdLaVkeuebIBvufl3FxE7MPyfpQJEkKXoLZe77in_bnALueLm_BX8C70OC95014mY52LAifJZ7pN1pyvu31dNvCuCSg4nHGd4uzLVgqq0jCNxyTMw4h4cB_04XUPhZdB8P5hbP95OwT5kFIQvViXHy_XLISLJWSbgtyfP8TAzHMsl_RMWjEGYRQlK_4-XtLojoZ6FpExZc9oDc7tlpiJc_lXFw8rqg0IJZurE57eOSMF3Rd-AlNiLQFpkMpS24TU_kC9sIJ20gCEjnPyTNbDlDkhSlczJWi3oyxFbfoTYrmM96JF7HsFekcwjhWCr1XRzqvwxns4lFGpw_dvINz53loSO32nljytYIdexGZ-WudymQO8xTqifJ9bfCbFIYazhfJtNhgPho_VmmEAHnVSMyoAnHjLOPqZFldtwpat6XBvRBc23qgmA9eVJu-d9uMmOCWqXbd0yey-RVF8cCvXVt889ZvpXrvi5gAAICKB2pJ17bQvtTSKs3BvLDCmvUc2iuUro1E6ySy9SRBWicbrVtI-R9BWiT5ZI89ZaZoVk5sxQIreMt2-T2ropAjCafHyGlHiFpil9zCFKMJ2HLYobJYYSyu8wo4SFxi8N]--></g></svg>