<svg xmlns="http://www.w3.org/2000/svg" xmlns:xlink="http://www.w3.org/1999/xlink" contentStyleType="text/css" height="489px" preserveAspectRatio="none" style="width:900px;height:489px;background:#FFFFFF;" version="1.1" viewBox="0 0 900 489" width="900px" zoomAndPan="magnify"><defs/><g><rect fill="#F1F1F1" height="37.6094" rx="12.5" ry="12.5" style="stroke:#181818;stroke-width:1.5;" width="81.4824" x="406.9297" y="224.9844"/><text fill="#000000" font-family="sans-serif" font-size="14" lengthAdjust="spacing" textLength="61.4824" x="416.9297" y="249.5176">Operands</text><rect fill="#F1F1F1" height="37.6094" rx="12.5" ry="12.5" style="stroke:#181818;stroke-width:1.5;" width="124.2822" x="538.4121" y="138.2656"/><text fill="#000000" font-family="sans-serif" font-size="14" lengthAdjust="spacing" textLength="104.2822" x="548.4121" y="162.7988">built in constants</text><text fill="#000000" font-family="sans-serif" font-size="14" lengthAdjust="spacing" textLength="84.0342" x="715.6943" y="25.5332">_O_APPEND</text><path d="M662.6943,157.0703 L672.6943,157.0703 C687.6943,157.0703 687.6943,19.8047 702.6943,19.8047 L712.6943,19.8047 " fill="none" style="stroke:#181818;stroke-width:1.0;"/><text fill="#000000" font-family="sans-serif" font-size="14" lengthAdjust="spacing" textLength="73.9102" x="715.6943" y="45.1426">_O_CREAT</text><path d="M662.6943,157.0703 L672.6943,157.0703 C687.6943,157.0703 687.6943,39.4141 702.6943,39.4141 L712.6943,39.4141 " fill="none" style="stroke:#181818;stroke-width:1.0;"/><text fill="#000000" font-family="sans-serif" font-size="14" lengthAdjust="spacing" textLength="63.0342" x="715.6943" y="64.752">_O_EXCL</text><path d="M662.6943,157.0703 L672.6943,157.0703 C687.6943,157.0703 687.6943,59.0234 702.6943,59.0234 L712.6943,59.0234 " fill="none" style="stroke:#181818;stroke-width:1.0;"/><text fill="#000000" font-family="sans-serif" font-size="14" lengthAdjust="spacing" textLength="75.4551" x="715.6943" y="84.3613">_O_TRUNC</text><path d="M662.6943,157.0703 L672.6943,157.0703 C687.6943,157.0703 687.6943,78.6328 702.6943,78.6328 L712.6943,78.6328 " fill="none" style="stroke:#181818;stroke-width:1.0;"/><text fill="#000000" font-family="sans-serif" font-size="14" lengthAdjust="spacing" textLength="62.2412" x="715.6943" y="103.9707">_O_TEXT</text><path d="M662.6943,157.0703 L672.6943,157.0703 C687.6943,157.0703 687.6943,98.2422 702.6943,98.2422 L712.6943,98.2422 " fill="none" style="stroke:#181818;stroke-width:1.0;"/><text fill="#000000" font-family="sans-serif" font-size="14" lengthAdjust="spacing" textLength="78.5859" x="715.6943" y="123.5801">_O_BINARY</text><path d="M662.6943,157.0703 L672.6943,157.0703 C687.6943,157.0703 687.6943,117.8516 702.6943,117.8516 L712.6943,117.8516 " fill="none" style="stroke:#181818;stroke-width:1.0;"/><text fill="#000000" font-family="sans-serif" font-size="14" lengthAdjust="spacing" textLength="84.8066" x="715.6943" y="143.1895">_O_RDONLY</text><path d="M662.6943,157.0703 L672.6943,157.0703 C687.6943,157.0703 687.6943,137.4609 702.6943,137.4609 L712.6943,137.4609 " fill="none" style="stroke:#181818;stroke-width:1.0;"/><text fill="#000000" font-family="sans-serif" font-size="14" lengthAdjust="spacing" textLength="70.0068" x="715.6943" y="162.7988">_O_RDWR</text><path d="M662.6943,157.0703 L672.6943,157.0703 C687.6943,157.0703 687.6943,157.0703 702.6943,157.0703 L712.6943,157.0703 " fill="none" style="stroke:#181818;stroke-width:1.0;"/><text fill="#000000" font-family="sans-serif" font-size="14" lengthAdjust="spacing" textLength="87.9102" x="715.6943" y="182.4082">_O_WRONLY</text><path d="M662.6943,157.0703 L672.6943,157.0703 C687.6943,157.0703 687.6943,176.6797 702.6943,176.6797 L712.6943,176.6797 " fill="none" style="stroke:#181818;stroke-width:1.0;"/><text fill="#000000" font-family="sans-serif" font-size="14" lengthAdjust="spacing" textLength="67.6826" x="715.6943" y="202.0176">ARDONLY</text><path d="M662.6943,157.0703 L672.6943,157.0703 C687.6943,157.0703 687.6943,196.2891 702.6943,196.2891 L712.6943,196.2891 " fill="none" style="stroke:#181818;stroke-width:1.0;"/><text fill="#000000" font-family="sans-serif" font-size="14" lengthAdjust="spacing" textLength="63.0068" x="715.6943" y="221.627">AHIDDEN</text><path d="M662.6943,157.0703 L672.6943,157.0703 C687.6943,157.0703 687.6943,215.8984 702.6943,215.8984 L712.6943,215.8984 " fill="none" style="stroke:#181818;stroke-width:1.0;"/><text fill="#000000" font-family="sans-serif" font-size="14" lengthAdjust="spacing" textLength="66.9033" x="715.6943" y="241.2363">ASYSTEM</text><path d="M662.6943,157.0703 L672.6943,157.0703 C687.6943,157.0703 687.6943,235.5078 702.6943,235.5078 L712.6943,235.5078 " fill="none" style="stroke:#181818;stroke-width:1.0;"/><text fill="#000000" font-family="sans-serif" font-size="14" lengthAdjust="spacing" textLength="68.4619" x="715.6943" y="260.8457">AVOLUME</text><path d="M662.6943,157.0703 L672.6943,157.0703 C687.6943,157.0703 687.6943,255.1172 702.6943,255.1172 L712.6943,255.1172 " fill="none" style="stroke:#181818;stroke-width:1.0;"/><text fill="#000000" font-family="sans-serif" font-size="14" lengthAdjust="spacing" textLength="61.4482" x="715.6943" y="280.4551">ADIRENT</text><path d="M662.6943,157.0703 L672.6943,157.0703 C687.6943,157.0703 687.6943,274.7266 702.6943,274.7266 L712.6943,274.7266 " fill="none" style="stroke:#181818;stroke-width:1.0;"/><text fill="#000000" font-family="sans-serif" font-size="14" lengthAdjust="spacing" textLength="62.2344" x="715.6943" y="300.0645">ARCHIVE</text><path d="M662.6943,157.0703 L672.6943,157.0703 C687.6943,157.0703 687.6943,294.3359 702.6943,294.3359 L712.6943,294.3359 " fill="none" style="stroke:#181818;stroke-width:1.0;"/><path d="M488.4121,243.7891 L498.4121,243.7891 C513.4121,243.7891 513.4121,157.0703 528.4121,157.0703 L538.4121,157.0703 " fill="none" style="stroke:#181818;stroke-width:1.0;"/><rect fill="#F1F1F1" height="37.6094" rx="12.5" ry="12.5" style="stroke:#181818;stroke-width:1.5;" width="111.0479" x="538.4121" y="195.875"/><text fill="#000000" font-family="sans-serif" font-size="14" lengthAdjust="spacing" textLength="91.0479" x="548.4121" y="220.4082">user constants</text><path d="M488.4121,243.7891 L498.4121,243.7891 C513.4121,243.7891 513.4121,214.6797 528.4121,214.6797 L538.4121,214.6797 " fill="none" style="stroke:#181818;stroke-width:1.0;"/><rect fill="#F1F1F1" height="37.6094" rx="12.5" ry="12.5" style="stroke:#181818;stroke-width:1.5;" width="76.0273" x="538.4121" y="253.4844"/><text fill="#000000" font-family="sans-serif" font-size="14" lengthAdjust="spacing" textLength="56.0273" x="548.4121" y="278.0176">variables</text><path d="M488.4121,243.7891 L498.4121,243.7891 C513.4121,243.7891 513.4121,272.2891 528.4121,272.2891 L538.4121,272.2891 " fill="none" style="stroke:#181818;stroke-width:1.0;"/><rect fill="#F1F1F1" height="37.6094" rx="12.5" ry="12.5" style="stroke:#181818;stroke-width:1.5;" width="124.2822" x="538.4121" y="314.75"/><text fill="#000000" font-family="sans-serif" font-size="14" lengthAdjust="spacing" textLength="104.2822" x="548.4121" y="339.2832">build in variables</text><text fill="#000000" font-family="sans-serif" font-size="14" lengthAdjust="spacing" textLength="172.6963" x="715.6943" y="319.6738">STURCTURE socket_struct</text><path d="M662.6943,333.5547 L672.6943,333.5547 C687.6943,333.5547 687.6943,313.9453 702.6943,313.9453 L712.6943,313.9453 " fill="none" style="stroke:#181818;stroke-width:1.0;"/><text fill="#000000" font-family="sans-serif" font-size="14" lengthAdjust="spacing" textLength="152.4756" x="715.6943" y="339.2832">STRUCTURE ramp_info</text><path d="M662.6943,333.5547 L672.6943,333.5547 C687.6943,333.5547 687.6943,333.5547 702.6943,333.5547 L712.6943,333.5547 " fill="none" style="stroke:#181818;stroke-width:1.0;"/><text fill="#000000" font-family="sans-serif" font-size="14" lengthAdjust="spacing" textLength="138.4756" x="715.6943" y="358.8926">STRUCTURE file_info</text><path d="M662.6943,333.5547 L672.6943,333.5547 C687.6943,333.5547 687.6943,353.1641 702.6943,353.1641 L712.6943,353.1641 " fill="none" style="stroke:#181818;stroke-width:1.0;"/><path d="M488.4121,243.7891 L498.4121,243.7891 C513.4121,243.7891 513.4121,333.5547 528.4121,333.5547 L538.4121,333.5547 " fill="none" style="stroke:#181818;stroke-width:1.0;"/><rect fill="#F1F1F1" height="37.6094" rx="12.5" ry="12.5" style="stroke:#181818;stroke-width:1.5;" width="74.4688" x="538.4121" y="372.3594"/><text fill="#000000" font-family="sans-serif" font-size="14" lengthAdjust="spacing" textLength="54.4688" x="548.4121" y="396.8926">numbers</text><path d="M488.4121,243.7891 L498.4121,243.7891 C513.4121,243.7891 513.4121,391.1641 528.4121,391.1641 L538.4121,391.1641 " fill="none" style="stroke:#181818;stroke-width:1.0;"/><rect fill="#F1F1F1" height="37.6094" rx="12.5" ry="12.5" style="stroke:#181818;stroke-width:1.5;" width="61.2344" x="538.4121" y="429.9688"/><text fill="#000000" font-family="sans-serif" font-size="14" lengthAdjust="spacing" textLength="41.2344" x="548.4121" y="454.502">strings</text><path d="M488.4121,243.7891 L498.4121,243.7891 C513.4121,243.7891 513.4121,448.7734 528.4121,448.7734 L538.4121,448.7734 " fill="none" style="stroke:#181818;stroke-width:1.0;"/><rect fill="#F1F1F1" height="37.6094" rx="12.5" ry="12.5" style="stroke:#181818;stroke-width:1.5;" width="87.7031" x="269.2266" y="49.1094"/><text fill="#000000" font-family="sans-serif" font-size="14" lengthAdjust="spacing" textLength="67.7031" x="279.2266" y="73.6426">expression</text><path d="M406.9297,243.7891 L396.9297,243.7891 C381.9297,243.7891 381.9297,67.9141 366.9297,67.9141 L356.9297,67.9141 " fill="none" style="stroke:#181818;stroke-width:1.0;"/><rect fill="#F1F1F1" height="37.6094" rx="12.5" ry="12.5" style="stroke:#181818;stroke-width:1.5;" width="149.1924" x="207.7373" y="106.7188"/><text fill="#000000" font-family="sans-serif" font-size="14" lengthAdjust="spacing" textLength="129.1924" x="217.7373" y="131.252">user define functions</text><text fill="#000000" font-family="sans-serif" font-size="14" lengthAdjust="spacing" textLength="138.5029" x="16.2344" y="131.252">function(argument list)</text><path d="M207.7373,125.5234 L197.7373,125.5234 C182.7373,125.5234 182.7373,125.5234 167.7373,125.5234 L157.7373,125.5234 " fill="none" style="stroke:#181818;stroke-width:1.0;"/><path d="M406.9297,243.7891 L396.9297,243.7891 C381.9297,243.7891 381.9297,125.5234 366.9297,125.5234 L356.9297,125.5234 " fill="none" style="stroke:#181818;stroke-width:1.0;"/><rect fill="#F1F1F1" height="37.6094" rx="12.5" ry="12.5" style="stroke:#181818;stroke-width:1.5;" width="120.3926" x="236.5371" y="282.5938"/><text fill="#000000" font-family="sans-serif" font-size="14" lengthAdjust="spacing" textLength="100.3926" x="246.5371" y="307.127">built in functions</text><text fill="#000000" font-family="sans-serif" font-size="14" lengthAdjust="spacing" textLength="98.8408" x="84.6963" y="169.8613">data conversion</text><path d="M236.5371,301.3984 L226.5371,301.3984 C211.5371,301.3984 211.5371,164.1328 196.5371,164.1328 L186.5371,164.1328 " fill="none" style="stroke:#181818;stroke-width:1.0;"/><text fill="#000000" font-family="sans-serif" font-size="14" lengthAdjust="spacing" textLength="98.8271" x="84.71" y="189.4707">random number</text><path d="M236.5371,301.3984 L226.5371,301.3984 C211.5371,301.3984 211.5371,183.7422 196.5371,183.7422 L186.5371,183.7422 " fill="none" style="stroke:#181818;stroke-width:1.0;"/><text fill="#000000" font-family="sans-serif" font-size="14" lengthAdjust="spacing" textLength="84.041" x="99.4961" y="209.0801">string parsing</text><path d="M236.5371,301.3984 L226.5371,301.3984 C211.5371,301.3984 211.5371,203.3516 196.5371,203.3516 L186.5371,203.3516 " fill="none" style="stroke:#181818;stroke-width:1.0;"/><text fill="#000000" font-family="sans-serif" font-size="14" lengthAdjust="spacing" textLength="83.2549" x="100.2822" y="228.6895">mathematical</text><path d="M236.5371,301.3984 L226.5371,301.3984 C211.5371,301.3984 211.5371,222.9609 196.5371,222.9609 L186.5371,222.9609 " fill="none" style="stroke:#181818;stroke-width:1.0;"/><text fill="#000000" font-family="sans-serif" font-size="14" lengthAdjust="spacing" textLength="173.5371" x="10" y="248.2988">string formating and printing</text><path d="M236.5371,301.3984 L226.5371,301.3984 C211.5371,301.3984 211.5371,242.5703 196.5371,242.5703 L186.5371,242.5703 " fill="none" style="stroke:#181818;stroke-width:1.0;"/><text fill="#000000" font-family="sans-serif" font-size="14" lengthAdjust="spacing" textLength="72.3857" x="111.1514" y="267.9082">bit and byte</text><path d="M236.5371,301.3984 L226.5371,301.3984 C211.5371,301.3984 211.5371,262.1797 196.5371,262.1797 L186.5371,262.1797 " fill="none" style="stroke:#181818;stroke-width:1.0;"/><text fill="#000000" font-family="sans-serif" font-size="14" lengthAdjust="spacing" textLength="17.8965" x="165.6406" y="287.5176">file</text><path d="M236.5371,301.3984 L226.5371,301.3984 C211.5371,301.3984 211.5371,281.7891 196.5371,281.7891 L186.5371,281.7891 " fill="none" style="stroke:#181818;stroke-width:1.0;"/><text fill="#000000" font-family="sans-serif" font-size="14" lengthAdjust="spacing" textLength="70.8135" x="112.7236" y="307.127">time &amp; date</text><path d="M236.5371,301.3984 L226.5371,301.3984 C211.5371,301.3984 211.5371,301.3984 196.5371,301.3984 L186.5371,301.3984 " fill="none" style="stroke:#181818;stroke-width:1.0;"/><text fill="#000000" font-family="sans-serif" font-size="14" lengthAdjust="spacing" textLength="126.0479" x="57.4893" y="326.7363">direct socket access</text><path d="M236.5371,301.3984 L226.5371,301.3984 C211.5371,301.3984 211.5371,321.0078 196.5371,321.0078 L186.5371,321.0078 " fill="none" style="stroke:#181818;stroke-width:1.0;"/><text fill="#000000" font-family="sans-serif" font-size="14" lengthAdjust="spacing" textLength="33.4551" x="150.082" y="346.3457">email</text><path d="M236.5371,301.3984 L226.5371,301.3984 C211.5371,301.3984 211.5371,340.6172 196.5371,340.6172 L186.5371,340.6172 " fill="none" style="stroke:#181818;stroke-width:1.0;"/><text fill="#000000" font-family="sans-serif" font-size="14" lengthAdjust="spacing" textLength="50.5791" x="132.958" y="365.9551">ramping</text><path d="M236.5371,301.3984 L226.5371,301.3984 C211.5371,301.3984 211.5371,360.2266 196.5371,360.2266 L186.5371,360.2266 " fill="none" style="stroke:#181818;stroke-width:1.0;"/><text fill="#000000" font-family="sans-serif" font-size="14" lengthAdjust="spacing" textLength="56.8271" x="126.71" y="385.5645">encoding</text><path d="M236.5371,301.3984 L226.5371,301.3984 C211.5371,301.3984 211.5371,379.8359 196.5371,379.8359 L186.5371,379.8359 " fill="none" style="stroke:#181818;stroke-width:1.0;"/><text fill="#000000" font-family="sans-serif" font-size="14" lengthAdjust="spacing" textLength="116.7578" x="66.7793" y="405.1738">exception handling</text><path d="M236.5371,301.3984 L226.5371,301.3984 C211.5371,301.3984 211.5371,399.4453 196.5371,399.4453 L186.5371,399.4453 " fill="none" style="stroke:#181818;stroke-width:1.0;"/><text fill="#000000" font-family="sans-serif" font-size="14" lengthAdjust="spacing" textLength="110.5439" x="72.9932" y="424.7832">delegate handling</text><path d="M236.5371,301.3984 L226.5371,301.3984 C211.5371,301.3984 211.5371,419.0547 196.5371,419.0547 L186.5371,419.0547 " fill="none" style="stroke:#181818;stroke-width:1.0;"/><text fill="#000000" font-family="sans-serif" font-size="14" lengthAdjust="spacing" textLength="91.0752" x="92.4619" y="444.3926">event handling</text><path d="M236.5371,301.3984 L226.5371,301.3984 C211.5371,301.3984 211.5371,438.6641 196.5371,438.6641 L186.5371,438.6641 " fill="none" style="stroke:#181818;stroke-width:1.0;"/><path d="M406.9297,243.7891 L396.9297,243.7891 C381.9297,243.7891 381.9297,301.3984 366.9297,301.3984 L356.9297,301.3984 " fill="none" style="stroke:#181818;stroke-width:1.0;"/><!--SRC=[NLDTR-8m47pFhzYd4mXH5TIxddWgJQo3YWIK3ze-HIPPg7M94paEQlzzroGOYfH4djdrpkuuVceqLxeKCYzvxOnWNQFYCc-SqGXshIWq20bP9IbDQiEEKaZNwNopOO5deHkoUMmHUtDN5iHX4hWNnDukUS_BO1w-MnXwws1r3Lz32rx3Isn-dJXVB3sF1Js8tgEO-JtOhbU9pthWBKCMnES2xcAvDH5e6rG_neCZLuBl2hGEvCQ1QvOgH74IklGoQAhiF-gqqQhDz3aO9brGyR9EXTnNju6zAF0S0DcMErGdFIeZvA5nncF0prfXquXA6dJgCyUza0ZxLcQQU9CsJYqSS7LeIvGQ2j7eeTbb3_1cIyurDrCVIROJ8D8SUrNstNHKrmxKdDBaeUDAhZ-GFYBZnO-iVQKCJIig13LnscxQ2NrYTryQ-wx9WMwbHOdmo_JK4xbGcEdUMU1PHZPq4T8LnRdRihRbKMPLVa6V6TPcMlWWpSBoEHPu89KR6e_6Cyiz8Ls5_Zeucu9-YyHVGUyKJEwczzE7kyT1n3L4MCFz8pspoT_Pv16O5uC93vt1lysA1cXLXZIECMZNcew6pWi_SWXRQQQUWK63s1z2nCuaC7aKgfBc99sNhTybmQBIKLtfK_AVX_6pCFAAseAjxtYuvosTDEjzc85RJwQ_fywAoqFB3wI4qd4hKb1VCqYYRm00]--></g></svg>