<svg xmlns="http://www.w3.org/2000/svg" xmlns:xlink="http://www.w3.org/1999/xlink" contentStyleType="text/css" height="548px" preserveAspectRatio="none" style="width:900px;height:548px;background:#FFFFFF;" version="1.1" viewBox="0 0 900 548" width="900px" zoomAndPan="magnify"><defs/><g><rect fill="#F1F1F1" height="37.6094" rx="12.5" ry="12.5" style="stroke:#181818;stroke-width:1.5;" width="81.4824" x="406.9297" y="254.3984"/><text fill="#000000" font-family="sans-serif" font-size="14" lengthAdjust="spacing" textLength="61.4824" x="416.9297" y="278.9316">Operands</text><rect fill="#F1F1F1" height="37.6094" rx="12.5" ry="12.5" style="stroke:#181818;stroke-width:1.5;" width="124.2822" x="538.4121" y="138.2656"/><text fill="#000000" font-family="sans-serif" font-size="14" lengthAdjust="spacing" textLength="104.2822" x="548.4121" y="162.7988">built in constants</text><text fill="#000000" font-family="sans-serif" font-size="14" lengthAdjust="spacing" textLength="84.0342" x="715.6943" y="25.5332">_O_APPEND</text><path d="M662.6943,157.0703 L672.6943,157.0703 C687.6943,157.0703 687.6943,19.8047 702.6943,19.8047 L712.6943,19.8047 " fill="none" style="stroke:#181818;stroke-width:1.0;"/><text fill="#000000" font-family="sans-serif" font-size="14" lengthAdjust="spacing" textLength="73.9102" x="715.6943" y="45.1426">_O_CREAT</text><path d="M662.6943,157.0703 L672.6943,157.0703 C687.6943,157.0703 687.6943,39.4141 702.6943,39.4141 L712.6943,39.4141 " fill="none" style="stroke:#181818;stroke-width:1.0;"/><text fill="#000000" font-family="sans-serif" font-size="14" lengthAdjust="spacing" textLength="63.0342" x="715.6943" y="64.752">_O_EXCL</text><path d="M662.6943,157.0703 L672.6943,157.0703 C687.6943,157.0703 687.6943,59.0234 702.6943,59.0234 L712.6943,59.0234 " fill="none" style="stroke:#181818;stroke-width:1.0;"/><text fill="#000000" font-family="sans-serif" font-size="14" lengthAdjust="spacing" textLength="75.4551" x="715.6943" y="84.3613">_O_TRUNC</text><path d="M662.6943,157.0703 L672.6943,157.0703 C687.6943,157.0703 687.6943,78.6328 702.6943,78.6328 L712.6943,78.6328 " fill="none" style="stroke:#181818;stroke-width:1.0;"/><text fill="#000000" font-family="sans-serif" font-size="14" lengthAdjust="spacing" textLength="62.2412" x="715.6943" y="103.9707">_O_TEXT</text><path d="M662.6943,157.0703 L672.6943,157.0703 C687.6943,157.0703 687.6943,98.2422 702.6943,98.2422 L712.6943,98.2422 " fill="none" style="stroke:#181818;stroke-width:1.0;"/><text fill="#000000" font-family="sans-serif" font-size="14" lengthAdjust="spacing" textLength="78.5859" x="715.6943" y="123.5801">_O_BINARY</text><path d="M662.6943,157.0703 L672.6943,157.0703 C687.6943,157.0703 687.6943,117.8516 702.6943,117.8516 L712.6943,117.8516 " fill="none" style="stroke:#181818;stroke-width:1.0;"/><text fill="#000000" font-family="sans-serif" font-size="14" lengthAdjust="spacing" textLength="84.8066" x="715.6943" y="143.1895">_O_RDONLY</text><path d="M662.6943,157.0703 L672.6943,157.0703 C687.6943,157.0703 687.6943,137.4609 702.6943,137.4609 L712.6943,137.4609 " fill="none" style="stroke:#181818;stroke-width:1.0;"/><text fill="#000000" font-family="sans-serif" font-size="14" lengthAdjust="spacing" textLength="70.0068" x="715.6943" y="162.7988">_O_RDWR</text><path d="M662.6943,157.0703 L672.6943,157.0703 C687.6943,157.0703 687.6943,157.0703 702.6943,157.0703 L712.6943,157.0703 " fill="none" style="stroke:#181818;stroke-width:1.0;"/><text fill="#000000" font-family="sans-serif" font-size="14" lengthAdjust="spacing" textLength="87.9102" x="715.6943" y="182.4082">_O_WRONLY</text><path d="M662.6943,157.0703 L672.6943,157.0703 C687.6943,157.0703 687.6943,176.6797 702.6943,176.6797 L712.6943,176.6797 " fill="none" style="stroke:#181818;stroke-width:1.0;"/><text fill="#000000" font-family="sans-serif" font-size="14" lengthAdjust="spacing" textLength="67.6826" x="715.6943" y="202.0176">ARDONLY</text><path d="M662.6943,157.0703 L672.6943,157.0703 C687.6943,157.0703 687.6943,196.2891 702.6943,196.2891 L712.6943,196.2891 " fill="none" style="stroke:#181818;stroke-width:1.0;"/><text fill="#000000" font-family="sans-serif" font-size="14" lengthAdjust="spacing" textLength="63.0068" x="715.6943" y="221.627">AHIDDEN</text><path d="M662.6943,157.0703 L672.6943,157.0703 C687.6943,157.0703 687.6943,215.8984 702.6943,215.8984 L712.6943,215.8984 " fill="none" style="stroke:#181818;stroke-width:1.0;"/><text fill="#000000" font-family="sans-serif" font-size="14" lengthAdjust="spacing" textLength="66.9033" x="715.6943" y="241.2363">ASYSTEM</text><path d="M662.6943,157.0703 L672.6943,157.0703 C687.6943,157.0703 687.6943,235.5078 702.6943,235.5078 L712.6943,235.5078 " fill="none" style="stroke:#181818;stroke-width:1.0;"/><text fill="#000000" font-family="sans-serif" font-size="14" lengthAdjust="spacing" textLength="68.4619" x="715.6943" y="260.8457">AVOLUME</text><path d="M662.6943,157.0703 L672.6943,157.0703 C687.6943,157.0703 687.6943,255.1172 702.6943,255.1172 L712.6943,255.1172 " fill="none" style="stroke:#181818;stroke-width:1.0;"/><text fill="#000000" font-family="sans-serif" font-size="14" lengthAdjust="spacing" textLength="61.4482" x="715.6943" y="280.4551">ADIRENT</text><path d="M662.6943,157.0703 L672.6943,157.0703 C687.6943,157.0703 687.6943,274.7266 702.6943,274.7266 L712.6943,274.7266 " fill="none" style="stroke:#181818;stroke-width:1.0;"/><text fill="#000000" font-family="sans-serif" font-size="14" lengthAdjust="spacing" textLength="62.2344" x="715.6943" y="300.0645">ARCHIVE</text><path d="M662.6943,157.0703 L672.6943,157.0703 C687.6943,157.0703 687.6943,294.3359 702.6943,294.3359 L712.6943,294.3359 " fill="none" style="stroke:#181818;stroke-width:1.0;"/><path d="M488.4121,273.2031 L498.4121,273.2031 C513.4121,273.2031 513.4121,157.0703 528.4121,157.0703 L538.4121,157.0703 " fill="none" style="stroke:#181818;stroke-width:1.0;"/><rect fill="#F1F1F1" height="37.6094" rx="12.5" ry="12.5" style="stroke:#181818;stroke-width:1.5;" width="111.0479" x="538.4121" y="195.875"/><text fill="#000000" font-family="sans-serif" font-size="14" lengthAdjust="spacing" textLength="91.0479" x="548.4121" y="220.4082">user constants</text><path d="M488.4121,273.2031 L498.4121,273.2031 C513.4121,273.2031 513.4121,214.6797 528.4121,214.6797 L538.4121,214.6797 " fill="none" style="stroke:#181818;stroke-width:1.0;"/><rect fill="#F1F1F1" height="37.6094" rx="12.5" ry="12.5" style="stroke:#181818;stroke-width:1.5;" width="76.0273" x="538.4121" y="253.4844"/><text fill="#000000" font-family="sans-serif" font-size="14" lengthAdjust="spacing" textLength="56.0273" x="548.4121" y="278.0176">variables</text><path d="M488.4121,273.2031 L498.4121,273.2031 C513.4121,273.2031 513.4121,272.2891 528.4121,272.2891 L538.4121,272.2891 " fill="none" style="stroke:#181818;stroke-width:1.0;"/><rect fill="#F1F1F1" height="37.6094" rx="12.5" ry="12.5" style="stroke:#181818;stroke-width:1.5;" width="124.2822" x="538.4121" y="314.75"/><text fill="#000000" font-family="sans-serif" font-size="14" lengthAdjust="spacing" textLength="104.2822" x="548.4121" y="339.2832">build in variables</text><text fill="#000000" font-family="sans-serif" font-size="14" lengthAdjust="spacing" textLength="172.6963" x="715.6943" y="319.6738">STURCTURE socket_struct</text><path d="M662.6943,333.5547 L672.6943,333.5547 C687.6943,333.5547 687.6943,313.9453 702.6943,313.9453 L712.6943,313.9453 " fill="none" style="stroke:#181818;stroke-width:1.0;"/><text fill="#000000" font-family="sans-serif" font-size="14" lengthAdjust="spacing" textLength="152.4756" x="715.6943" y="339.2832">STRUCTURE ramp_info</text><path d="M662.6943,333.5547 L672.6943,333.5547 C687.6943,333.5547 687.6943,333.5547 702.6943,333.5547 L712.6943,333.5547 " fill="none" style="stroke:#181818;stroke-width:1.0;"/><text fill="#000000" font-family="sans-serif" font-size="14" lengthAdjust="spacing" textLength="138.4756" x="715.6943" y="358.8926">STRUCTURE file_info</text><path d="M662.6943,333.5547 L672.6943,333.5547 C687.6943,333.5547 687.6943,353.1641 702.6943,353.1641 L712.6943,353.1641 " fill="none" style="stroke:#181818;stroke-width:1.0;"/><path d="M488.4121,273.2031 L498.4121,273.2031 C513.4121,273.2031 513.4121,333.5547 528.4121,333.5547 L538.4121,333.5547 " fill="none" style="stroke:#181818;stroke-width:1.0;"/><rect fill="#F1F1F1" height="37.6094" rx="12.5" ry="12.5" style="stroke:#181818;stroke-width:1.5;" width="60.4551" x="538.4121" y="430.8828"/><text fill="#000000" font-family="sans-serif" font-size="14" lengthAdjust="spacing" textLength="40.4551" x="548.4121" y="455.416">literals</text><rect fill="#F1F1F1" height="37.6094" rx="12.5" ry="12.5" style="stroke:#181818;stroke-width:1.5;" width="74.4688" x="648.8672" y="373.5781"/><text fill="#000000" font-family="sans-serif" font-size="14" lengthAdjust="spacing" textLength="54.4688" x="658.8672" y="398.1113">numbers</text><text fill="#000000" font-family="sans-serif" font-size="14" lengthAdjust="spacing" textLength="23.3584" x="776.3359" y="378.502">123</text><path d="M723.3359,392.3828 L733.3359,392.3828 C748.3359,392.3828 748.3359,372.7734 763.3359,372.7734 L773.3359,372.7734 " fill="none" style="stroke:#181818;stroke-width:1.0;"/><text fill="#000000" font-family="sans-serif" font-size="14" lengthAdjust="spacing" textLength="47.3799" x="776.3359" y="398.1113">'\x1234'</text><path d="M723.3359,392.3828 L733.3359,392.3828 C748.3359,392.3828 748.3359,392.3828 763.3359,392.3828 L773.3359,392.3828 " fill="none" style="stroke:#181818;stroke-width:1.0;"/><text fill="#000000" font-family="sans-serif" font-size="14" lengthAdjust="spacing" textLength="49.0342" x="776.3359" y="417.7207">0x23AB</text><path d="M723.3359,392.3828 L733.3359,392.3828 C748.3359,392.3828 748.3359,411.9922 763.3359,411.9922 L773.3359,411.9922 " fill="none" style="stroke:#181818;stroke-width:1.0;"/><path d="M598.8672,449.6875 L608.8672,449.6875 C623.8672,449.6875 623.8672,392.3828 638.8672,392.3828 L648.8672,392.3828 " fill="none" style="stroke:#181818;stroke-width:1.0;"/><rect fill="#F1F1F1" height="37.6094" rx="12.5" ry="12.5" style="stroke:#181818;stroke-width:1.5;" width="61.2344" x="648.8672" y="431.1875"/><text fill="#000000" font-family="sans-serif" font-size="14" lengthAdjust="spacing" textLength="41.2344" x="658.8672" y="455.7207">strings</text><text fill="#000000" font-family="sans-serif" font-size="14" lengthAdjust="spacing" textLength="72.2012" x="763.1016" y="455.7207">"abc \n %d"</text><path d="M710.1016,449.9922 L720.1016,449.9922 C735.1016,449.9922 735.1016,449.9922 750.1016,449.9922 L760.1016,449.9922 " fill="none" style="stroke:#181818;stroke-width:1.0;"/><path d="M598.8672,449.6875 L608.8672,449.6875 C623.8672,449.6875 623.8672,449.9922 638.8672,449.9922 L648.8672,449.9922 " fill="none" style="stroke:#181818;stroke-width:1.0;"/><rect fill="#F1F1F1" height="37.6094" rx="12.5" ry="12.5" style="stroke:#181818;stroke-width:1.5;" width="78.3584" x="648.8672" y="488.7969"/><text fill="#000000" font-family="sans-serif" font-size="14" lengthAdjust="spacing" textLength="58.3584" x="658.8672" y="513.3301">character</text><text fill="#000000" font-family="sans-serif" font-size="14" lengthAdjust="spacing" textLength="13.1318" x="780.2256" y="503.5254">'a'</text><path d="M727.2256,507.6016 L737.2256,507.6016 C752.2256,507.6016 752.2256,497.7969 767.2256,497.7969 L777.2256,497.7969 " fill="none" style="stroke:#181818;stroke-width:1.0;"/><text fill="#000000" font-family="sans-serif" font-size="14" lengthAdjust="spacing" textLength="11.6758" x="780.2256" y="523.1348">\n</text><path d="M727.2256,507.6016 L737.2256,507.6016 C752.2256,507.6016 752.2256,517.4063 767.2256,517.4063 L777.2256,517.4063 " fill="none" style="stroke:#181818;stroke-width:1.0;"/><path d="M598.8672,449.6875 L608.8672,449.6875 C623.8672,449.6875 623.8672,507.6016 638.8672,507.6016 L648.8672,507.6016 " fill="none" style="stroke:#181818;stroke-width:1.0;"/><path d="M488.4121,273.2031 L498.4121,273.2031 C513.4121,273.2031 513.4121,449.6875 528.4121,449.6875 L538.4121,449.6875 " fill="none" style="stroke:#181818;stroke-width:1.0;"/><rect fill="#F1F1F1" height="37.6094" rx="12.5" ry="12.5" style="stroke:#181818;stroke-width:1.5;" width="87.7031" x="269.2266" y="78.5234"/><text fill="#000000" font-family="sans-serif" font-size="14" lengthAdjust="spacing" textLength="67.7031" x="279.2266" y="103.0566">expression</text><path d="M406.9297,273.2031 L396.9297,273.2031 C381.9297,273.2031 381.9297,97.3281 366.9297,97.3281 L356.9297,97.3281 " fill="none" style="stroke:#181818;stroke-width:1.0;"/><rect fill="#F1F1F1" height="37.6094" rx="12.5" ry="12.5" style="stroke:#181818;stroke-width:1.5;" width="149.1924" x="207.7373" y="136.1328"/><text fill="#000000" font-family="sans-serif" font-size="14" lengthAdjust="spacing" textLength="129.1924" x="217.7373" y="160.666">user define functions</text><text fill="#000000" font-family="sans-serif" font-size="14" lengthAdjust="spacing" textLength="138.5029" x="16.2344" y="160.666">function(argument list)</text><path d="M207.7373,154.9375 L197.7373,154.9375 C182.7373,154.9375 182.7373,154.9375 167.7373,154.9375 L157.7373,154.9375 " fill="none" style="stroke:#181818;stroke-width:1.0;"/><path d="M406.9297,273.2031 L396.9297,273.2031 C381.9297,273.2031 381.9297,154.9375 366.9297,154.9375 L356.9297,154.9375 " fill="none" style="stroke:#181818;stroke-width:1.0;"/><rect fill="#F1F1F1" height="37.6094" rx="12.5" ry="12.5" style="stroke:#181818;stroke-width:1.5;" width="120.3926" x="236.5371" y="312.0078"/><text fill="#000000" font-family="sans-serif" font-size="14" lengthAdjust="spacing" textLength="100.3926" x="246.5371" y="336.541">built in functions</text><text fill="#000000" font-family="sans-serif" font-size="14" lengthAdjust="spacing" textLength="98.8408" x="84.6963" y="199.2754">data conversion</text><path d="M236.5371,330.8125 L226.5371,330.8125 C211.5371,330.8125 211.5371,193.5469 196.5371,193.5469 L186.5371,193.5469 " fill="none" style="stroke:#181818;stroke-width:1.0;"/><text fill="#000000" font-family="sans-serif" font-size="14" lengthAdjust="spacing" textLength="98.8271" x="84.71" y="218.8848">random number</text><path d="M236.5371,330.8125 L226.5371,330.8125 C211.5371,330.8125 211.5371,213.1563 196.5371,213.1563 L186.5371,213.1563 " fill="none" style="stroke:#181818;stroke-width:1.0;"/><text fill="#000000" font-family="sans-serif" font-size="14" lengthAdjust="spacing" textLength="84.041" x="99.4961" y="238.4941">string parsing</text><path d="M236.5371,330.8125 L226.5371,330.8125 C211.5371,330.8125 211.5371,232.7656 196.5371,232.7656 L186.5371,232.7656 " fill="none" style="stroke:#181818;stroke-width:1.0;"/><text fill="#000000" font-family="sans-serif" font-size="14" lengthAdjust="spacing" textLength="83.2549" x="100.2822" y="258.1035">mathematical</text><path d="M236.5371,330.8125 L226.5371,330.8125 C211.5371,330.8125 211.5371,252.375 196.5371,252.375 L186.5371,252.375 " fill="none" style="stroke:#181818;stroke-width:1.0;"/><text fill="#000000" font-family="sans-serif" font-size="14" lengthAdjust="spacing" textLength="173.5371" x="10" y="277.7129">string formating and printing</text><path d="M236.5371,330.8125 L226.5371,330.8125 C211.5371,330.8125 211.5371,271.9844 196.5371,271.9844 L186.5371,271.9844 " fill="none" style="stroke:#181818;stroke-width:1.0;"/><text fill="#000000" font-family="sans-serif" font-size="14" lengthAdjust="spacing" textLength="72.3857" x="111.1514" y="297.3223">bit and byte</text><path d="M236.5371,330.8125 L226.5371,330.8125 C211.5371,330.8125 211.5371,291.5938 196.5371,291.5938 L186.5371,291.5938 " fill="none" style="stroke:#181818;stroke-width:1.0;"/><text fill="#000000" font-family="sans-serif" font-size="14" lengthAdjust="spacing" textLength="17.8965" x="165.6406" y="316.9316">file</text><path d="M236.5371,330.8125 L226.5371,330.8125 C211.5371,330.8125 211.5371,311.2031 196.5371,311.2031 L186.5371,311.2031 " fill="none" style="stroke:#181818;stroke-width:1.0;"/><text fill="#000000" font-family="sans-serif" font-size="14" lengthAdjust="spacing" textLength="70.8135" x="112.7236" y="336.541">time &amp; date</text><path d="M236.5371,330.8125 L226.5371,330.8125 C211.5371,330.8125 211.5371,330.8125 196.5371,330.8125 L186.5371,330.8125 " fill="none" style="stroke:#181818;stroke-width:1.0;"/><text fill="#000000" font-family="sans-serif" font-size="14" lengthAdjust="spacing" textLength="126.0479" x="57.4893" y="356.1504">direct socket access</text><path d="M236.5371,330.8125 L226.5371,330.8125 C211.5371,330.8125 211.5371,350.4219 196.5371,350.4219 L186.5371,350.4219 " fill="none" style="stroke:#181818;stroke-width:1.0;"/><text fill="#000000" font-family="sans-serif" font-size="14" lengthAdjust="spacing" textLength="33.4551" x="150.082" y="375.7598">email</text><path d="M236.5371,330.8125 L226.5371,330.8125 C211.5371,330.8125 211.5371,370.0313 196.5371,370.0313 L186.5371,370.0313 " fill="none" style="stroke:#181818;stroke-width:1.0;"/><text fill="#000000" font-family="sans-serif" font-size="14" lengthAdjust="spacing" textLength="50.5791" x="132.958" y="395.3691">ramping</text><path d="M236.5371,330.8125 L226.5371,330.8125 C211.5371,330.8125 211.5371,389.6406 196.5371,389.6406 L186.5371,389.6406 " fill="none" style="stroke:#181818;stroke-width:1.0;"/><text fill="#000000" font-family="sans-serif" font-size="14" lengthAdjust="spacing" textLength="56.8271" x="126.71" y="414.9785">encoding</text><path d="M236.5371,330.8125 L226.5371,330.8125 C211.5371,330.8125 211.5371,409.25 196.5371,409.25 L186.5371,409.25 " fill="none" style="stroke:#181818;stroke-width:1.0;"/><text fill="#000000" font-family="sans-serif" font-size="14" lengthAdjust="spacing" textLength="116.7578" x="66.7793" y="434.5879">exception handling</text><path d="M236.5371,330.8125 L226.5371,330.8125 C211.5371,330.8125 211.5371,428.8594 196.5371,428.8594 L186.5371,428.8594 " fill="none" style="stroke:#181818;stroke-width:1.0;"/><text fill="#000000" font-family="sans-serif" font-size="14" lengthAdjust="spacing" textLength="110.5439" x="72.9932" y="454.1973">delegate handling</text><path d="M236.5371,330.8125 L226.5371,330.8125 C211.5371,330.8125 211.5371,448.4688 196.5371,448.4688 L186.5371,448.4688 " fill="none" style="stroke:#181818;stroke-width:1.0;"/><text fill="#000000" font-family="sans-serif" font-size="14" lengthAdjust="spacing" textLength="91.0752" x="92.4619" y="473.8066">event handling</text><path d="M236.5371,330.8125 L226.5371,330.8125 C211.5371,330.8125 211.5371,468.0781 196.5371,468.0781 L186.5371,468.0781 " fill="none" style="stroke:#181818;stroke-width:1.0;"/><path d="M406.9297,273.2031 L396.9297,273.2031 C381.9297,273.2031 381.9297,330.8125 366.9297,330.8125 L356.9297,330.8125 " fill="none" style="stroke:#181818;stroke-width:1.0;"/><!--SRC=[NLDhQ-905FsUNt4fx5OHIxNTxUAdscJOMdoHHDj2GIQJgnqscOJ9HEo_tpjvsHQCp3ddFayczuNXsgHInIdFdG6iSjHSnOKp641KoiI0L20oHM7AM7QmWzrgDrslsTBheEkpQTWXzkBEEn3wcwLxHkpb7FSmMqxzrmxwtcev_moV_Guy-sTj-Zbm-ZZpFBPiGF0QX6pHWErglbcm1dWpdot3je3xEDjQ1Se2zPVruCYrv562dGEnTU0pInM2SEExz30eCl4FpQumkXIc5VrDBMgUvZkfzjbtOIyJR0L8f27Faweqg3ADK5TdoXYDRvhJvTk9mErb0wzFuvlfGvL1hQKwj1aNF1BmzgRWHtnHoUATQoweGrk8jpKeoXaE0K-vngAGMOKgGsBSIuMmBvKmn1Sa37STx75zA5DKXYOlJDzcTJVbMqhC3RVs7ccbkW6HzdvbQRDfJTKxGCufJ1rgBkNc7UbF2fvyYTfdsj9qeaAG4sUwf4YQYeq-33PJazNroSWKuQUTgI5YgL6OvXK25u9ig1NgAvDssZJlogCIMNn69u6vtHRUgMVIyJ4cUA0ktsWyMiywxXxfcsk-EsUTqFtRBERGE0MZg_7r-FRghXTm0m7cS7r7lydepsHq1ymBmSfzf_TtFQS5IYsGrh46HQMTgEyyyIC7lrHswmbOr0iNVGXOIm9JHwapPT-ayxHTr47mc9aWpqmL_Fjs-21jUqrZmNRXUBZd9RrfrlWm0JSVZN-DdJbNXv8Vg1CgnyseW_wOm2Ru3m00]--></g></svg>