<svg xmlns="http://www.w3.org/2000/svg" xmlns:xlink="http://www.w3.org/1999/xlink" contentStyleType="text/css" height="783px" preserveAspectRatio="none" style="width:899px;height:783px;background:#FFFFFF;" version="1.1" viewBox="0 0 899 783" width="899px" zoomAndPan="magnify"><defs/><g><rect fill="#F1F1F1" height="37.6094" rx="12.5" ry="12.5" style="stroke:#181818;stroke-width:1.5;" width="92.3926" x="321.3506" y="372.082"/><text fill="#000000" font-family="sans-serif" font-size="14" lengthAdjust="spacing" textLength="72.3926" x="331.3506" y="396.6152">punctuation</text><rect fill="#F1F1F1" height="37.6094" rx="12.5" ry="12.5" style="stroke:#181818;stroke-width:1.5;" width="33.2412" x="463.7432" y="20"/><text fill="#000000" font-family="sans-serif" font-size="14" lengthAdjust="spacing" textLength="13.2412" x="473.7432" y="44.5332">{ }</text><text fill="#000000" font-family="sans-serif" font-size="14" lengthAdjust="spacing" textLength="130.7441" x="549.9844" y="44.5332">compound statement</text><path d="M496.9844,38.8047 L506.9844,38.8047 C521.9844,38.8047 521.9844,38.8047 536.9844,38.8047 L546.9844,38.8047 " fill="none" style="stroke:#181818;stroke-width:1.0;"/><path d="M413.7432,390.8867 L423.7432,390.8867 C438.7432,390.8867 438.7432,38.8047 453.7432,38.8047 L463.7432,38.8047 " fill="none" style="stroke:#181818;stroke-width:1.0;"/><rect fill="#F1F1F1" height="37.6094" rx="12.5" ry="12.5" style="stroke:#181818;stroke-width:1.5;" width="31.6689" x="463.7432" y="77.6094"/><text fill="#000000" font-family="sans-serif" font-size="14" lengthAdjust="spacing" textLength="11.6689" x="473.7432" y="102.1426">[ ]</text><text fill="#000000" font-family="sans-serif" font-size="14" lengthAdjust="spacing" textLength="69.2549" x="548.4121" y="92.3379">array index</text><path d="M495.4121,96.4141 L505.4121,96.4141 C520.4121,96.4141 520.4121,86.6094 535.4121,86.6094 L545.4121,86.6094 " fill="none" style="stroke:#181818;stroke-width:1.0;"/><text fill="#000000" font-family="sans-serif" font-size="14" lengthAdjust="spacing" textLength="108.1582" x="548.4121" y="111.9473">array initialization</text><path d="M495.4121,96.4141 L505.4121,96.4141 C520.4121,96.4141 520.4121,106.2188 535.4121,106.2188 L545.4121,106.2188 " fill="none" style="stroke:#181818;stroke-width:1.0;"/><path d="M413.7432,390.8867 L423.7432,390.8867 C438.7432,390.8867 438.7432,96.4141 453.7432,96.4141 L463.7432,96.4141 " fill="none" style="stroke:#181818;stroke-width:1.0;"/><rect fill="#F1F1F1" height="37.6094" rx="12.5" ry="12.5" style="stroke:#181818;stroke-width:1.5;" width="33.2139" x="463.7432" y="136.4375"/><text fill="#000000" font-family="sans-serif" font-size="14" lengthAdjust="spacing" textLength="13.2139" x="473.7432" y="160.9707">( )</text><text fill="#000000" font-family="sans-serif" font-size="14" lengthAdjust="spacing" textLength="73.9307" x="549.957" y="131.5566">function call</text><path d="M496.957,155.2422 L506.957,155.2422 C521.957,155.2422 521.957,125.8281 536.957,125.8281 L546.957,125.8281 " fill="none" style="stroke:#181818;stroke-width:1.0;"/><text fill="#000000" font-family="sans-serif" font-size="14" lengthAdjust="spacing" textLength="126.082" x="549.957" y="151.166">expression grouping</text><path d="M496.957,155.2422 L506.957,155.2422 C521.957,155.2422 521.957,145.4375 536.957,145.4375 L546.957,145.4375 " fill="none" style="stroke:#181818;stroke-width:1.0;"/><text fill="#000000" font-family="sans-serif" font-size="14" lengthAdjust="spacing" textLength="115.1787" x="549.957" y="170.7754">function declarator</text><path d="M496.957,155.2422 L506.957,155.2422 C521.957,155.2422 521.957,165.0469 536.957,165.0469 L546.957,165.0469 " fill="none" style="stroke:#181818;stroke-width:1.0;"/><text fill="#000000" font-family="sans-serif" font-size="14" lengthAdjust="spacing" textLength="337.6885" x="549.957" y="190.3848">if, switch, while, do-while, for: delimit controlling clause</text><path d="M496.957,155.2422 L506.957,155.2422 C521.957,155.2422 521.957,184.6563 536.957,184.6563 L546.957,184.6563 " fill="none" style="stroke:#181818;stroke-width:1.0;"/><path d="M413.7432,390.8867 L423.7432,390.8867 C438.7432,390.8867 438.7432,155.2422 453.7432,155.2422 L463.7432,155.2422 " fill="none" style="stroke:#181818;stroke-width:1.0;"/><rect fill="#F1F1F1" height="37.6094" rx="12.5" ry="12.5" style="stroke:#181818;stroke-width:1.5;" width="23.8896" x="463.7432" y="195.2656"/><text fill="#000000" font-family="sans-serif" font-size="14" lengthAdjust="spacing" textLength="3.8896" x="473.7432" y="219.7988">;</text><text fill="#000000" font-family="sans-serif" font-size="14" lengthAdjust="spacing" textLength="128.3857" x="540.6328" y="209.9941">statement terminator</text><path d="M487.6328,214.0703 L497.6328,214.0703 C512.6328,214.0703 512.6328,204.2656 527.6328,204.2656 L537.6328,204.2656 " fill="none" style="stroke:#181818;stroke-width:1.0;"/><text fill="#000000" font-family="sans-serif" font-size="14" lengthAdjust="spacing" textLength="121.3721" x="540.6328" y="229.6035">structure terminator</text><path d="M487.6328,214.0703 L497.6328,214.0703 C512.6328,214.0703 512.6328,223.875 527.6328,223.875 L537.6328,223.875 " fill="none" style="stroke:#181818;stroke-width:1.0;"/><path d="M413.7432,390.8867 L423.7432,390.8867 C438.7432,390.8867 438.7432,214.0703 453.7432,214.0703 L463.7432,214.0703 " fill="none" style="stroke:#181818;stroke-width:1.0;"/><rect fill="#F1F1F1" height="37.6094" rx="12.5" ry="12.5" style="stroke:#181818;stroke-width:1.5;" width="23.8896" x="463.7432" y="252.875"/><text fill="#000000" font-family="sans-serif" font-size="14" lengthAdjust="spacing" textLength="3.8896" x="473.7432" y="277.4082">.</text><text fill="#000000" font-family="sans-serif" font-size="14" lengthAdjust="spacing" textLength="98.8066" x="540.6328" y="277.4082">member access</text><path d="M487.6328,271.6797 L497.6328,271.6797 C512.6328,271.6797 512.6328,271.6797 527.6328,271.6797 L537.6328,271.6797 " fill="none" style="stroke:#181818;stroke-width:1.0;"/><path d="M413.7432,390.8867 L423.7432,390.8867 C438.7432,390.8867 438.7432,271.6797 453.7432,271.6797 L463.7432,271.6797 " fill="none" style="stroke:#181818;stroke-width:1.0;"/><rect fill="#F1F1F1" height="37.6094" rx="12.5" ry="12.5" style="stroke:#181818;stroke-width:1.5;" width="23.8896" x="463.7432" y="310.4844"/><text fill="#000000" font-family="sans-serif" font-size="14" lengthAdjust="spacing" textLength="3.8896" x="473.7432" y="335.0176">,</text><text fill="#000000" font-family="sans-serif" font-size="14" lengthAdjust="spacing" textLength="101.9307" x="540.6328" y="305.6035">comma operator</text><path d="M487.6328,329.2891 L497.6328,329.2891 C512.6328,329.2891 512.6328,299.875 527.6328,299.875 L537.6328,299.875 " fill="none" style="stroke:#181818;stroke-width:1.0;"/><text fill="#000000" font-family="sans-serif" font-size="14" lengthAdjust="spacing" textLength="94.9307" x="540.6328" y="325.2129">array separator</text><path d="M487.6328,329.2891 L497.6328,329.2891 C512.6328,329.2891 512.6328,319.4844 527.6328,319.4844 L537.6328,319.4844 " fill="none" style="stroke:#181818;stroke-width:1.0;"/><text fill="#000000" font-family="sans-serif" font-size="14" lengthAdjust="spacing" textLength="143.1787" x="540.6328" y="344.8223">argument list separator</text><path d="M487.6328,329.2891 L497.6328,329.2891 C512.6328,329.2891 512.6328,339.0938 527.6328,339.0938 L537.6328,339.0938 " fill="none" style="stroke:#181818;stroke-width:1.0;"/><text fill="#000000" font-family="sans-serif" font-size="14" lengthAdjust="spacing" textLength="147.8408" x="540.6328" y="364.4316">parameter list separator</text><path d="M487.6328,329.2891 L497.6328,329.2891 C512.6328,329.2891 512.6328,358.7031 527.6328,358.7031 L537.6328,358.7031 " fill="none" style="stroke:#181818;stroke-width:1.0;"/><path d="M413.7432,390.8867 L423.7432,390.8867 C438.7432,390.8867 438.7432,329.2891 453.7432,329.2891 L463.7432,329.2891 " fill="none" style="stroke:#181818;stroke-width:1.0;"/><rect fill="#F1F1F1" height="37.6094" rx="12.5" ry="12.5" style="stroke:#181818;stroke-width:1.5;" width="28.1758" x="463.7432" y="378.5078"/><text fill="#000000" font-family="sans-serif" font-size="14" lengthAdjust="spacing" textLength="8.1758" x="473.7432" y="403.041">+</text><text fill="#000000" font-family="sans-serif" font-size="14" lengthAdjust="spacing" textLength="67.7031" x="544.9189" y="403.041">binary plus</text><path d="M491.9189,397.3125 L501.9189,397.3125 C516.9189,397.3125 516.9189,397.3125 531.9189,397.3125 L541.9189,397.3125 " fill="none" style="stroke:#181818;stroke-width:1.0;"/><path d="M413.7432,390.8867 L423.7432,390.8867 C438.7432,390.8867 438.7432,397.3125 453.7432,397.3125 L463.7432,397.3125 " fill="none" style="stroke:#181818;stroke-width:1.0;"/><rect fill="#F1F1F1" height="37.6094" rx="12.5" ry="12.5" style="stroke:#181818;stroke-width:1.5;" width="24.6621" x="463.7432" y="436.1172"/><text fill="#000000" font-family="sans-serif" font-size="14" lengthAdjust="spacing" textLength="4.6621" x="473.7432" y="460.6504">-</text><text fill="#000000" font-family="sans-serif" font-size="14" lengthAdjust="spacing" textLength="79.3652" x="541.4053" y="460.6504">binary minus</text><path d="M488.4053,454.9219 L498.4053,454.9219 C513.4053,454.9219 513.4053,454.9219 528.4053,454.9219 L538.4053,454.9219 " fill="none" style="stroke:#181818;stroke-width:1.0;"/><path d="M413.7432,390.8867 L423.7432,390.8867 C438.7432,390.8867 438.7432,454.9219 453.7432,454.9219 L463.7432,454.9219 " fill="none" style="stroke:#181818;stroke-width:1.0;"/><rect fill="#F1F1F1" height="37.6094" rx="12.5" ry="12.5" style="stroke:#181818;stroke-width:1.5;" width="25.4482" x="463.7432" y="493.7266"/><text fill="#000000" font-family="sans-serif" font-size="14" lengthAdjust="spacing" textLength="5.4482" x="473.7432" y="518.2598">*</text><text fill="#000000" font-family="sans-serif" font-size="14" lengthAdjust="spacing" textLength="89.4756" x="542.1914" y="518.2598">binary multiply</text><path d="M489.1914,512.5313 L499.1914,512.5313 C514.1914,512.5313 514.1914,512.5313 529.1914,512.5313 L539.1914,512.5313 " fill="none" style="stroke:#181818;stroke-width:1.0;"/><path d="M413.7432,390.8867 L423.7432,390.8867 C438.7432,390.8867 438.7432,512.5313 453.7432,512.5313 L463.7432,512.5313 " fill="none" style="stroke:#181818;stroke-width:1.0;"/><rect fill="#F1F1F1" height="37.6094" rx="12.5" ry="12.5" style="stroke:#181818;stroke-width:1.5;" width="23.8896" x="463.7432" y="551.3359"/><text fill="#000000" font-family="sans-serif" font-size="14" lengthAdjust="spacing" textLength="3.8896" x="473.7432" y="575.8691">/</text><text fill="#000000" font-family="sans-serif" font-size="14" lengthAdjust="spacing" textLength="78.5996" x="540.6328" y="575.8691">binary divide</text><path d="M487.6328,570.1406 L497.6328,570.1406 C512.6328,570.1406 512.6328,570.1406 527.6328,570.1406 L537.6328,570.1406 " fill="none" style="stroke:#181818;stroke-width:1.0;"/><path d="M413.7432,390.8867 L423.7432,390.8867 C438.7432,390.8867 438.7432,570.1406 453.7432,570.1406 L463.7432,570.1406 " fill="none" style="stroke:#181818;stroke-width:1.0;"/><rect fill="#F1F1F1" height="37.6094" rx="12.5" ry="12.5" style="stroke:#181818;stroke-width:1.5;" width="52.6621" x="463.7432" y="608.9453"/><text fill="#000000" font-family="sans-serif" font-size="14" lengthAdjust="spacing" textLength="32.6621" x="473.7432" y="633.4785">MOD</text><text fill="#000000" font-family="sans-serif" font-size="14" lengthAdjust="spacing" textLength="94.9375" x="569.4053" y="633.4785">binary modulus</text><path d="M516.4053,627.75 L526.4053,627.75 C541.4053,627.75 541.4053,627.75 556.4053,627.75 L566.4053,627.75 " fill="none" style="stroke:#181818;stroke-width:1.0;"/><path d="M413.7432,390.8867 L423.7432,390.8867 C438.7432,390.8867 438.7432,627.75 453.7432,627.75 L463.7432,627.75 " fill="none" style="stroke:#181818;stroke-width:1.0;"/><rect fill="#F1F1F1" height="37.6094" rx="12.5" ry="12.5" style="stroke:#181818;stroke-width:1.5;" width="32.4482" x="463.7432" y="666.5547"/><text fill="#000000" font-family="sans-serif" font-size="14" lengthAdjust="spacing" textLength="12.4482" x="473.7432" y="691.0879">%</text><text fill="#000000" font-family="sans-serif" font-size="14" lengthAdjust="spacing" textLength="94.9375" x="549.1914" y="691.0879">binary modulus</text><path d="M496.1914,685.3594 L506.1914,685.3594 C521.1914,685.3594 521.1914,685.3594 536.1914,685.3594 L546.1914,685.3594 " fill="none" style="stroke:#181818;stroke-width:1.0;"/><path d="M413.7432,390.8867 L423.7432,390.8867 C438.7432,390.8867 438.7432,685.3594 453.7432,685.3594 L463.7432,685.3594 " fill="none" style="stroke:#181818;stroke-width:1.0;"/><rect fill="#F1F1F1" height="37.6094" rx="12.5" ry="12.5" style="stroke:#181818;stroke-width:1.5;" width="62.7725" x="463.7432" y="724.1641"/><text fill="#000000" font-family="sans-serif" font-size="14" lengthAdjust="spacing" textLength="42.7725" x="473.7432" y="748.6973">UMOD</text><text fill="#000000" font-family="sans-serif" font-size="14" lengthAdjust="spacing" textLength="155.6543" x="579.5156" y="748.6973">unsigned binary modulus</text><path d="M526.5156,742.9688 L536.5156,742.9688 C551.5156,742.9688 551.5156,742.9688 566.5156,742.9688 L576.5156,742.9688 " fill="none" style="stroke:#181818;stroke-width:1.0;"/><path d="M413.7432,390.8867 L423.7432,390.8867 C438.7432,390.8867 438.7432,742.9688 453.7432,742.9688 L463.7432,742.9688 " fill="none" style="stroke:#181818;stroke-width:1.0;"/><rect fill="#F1F1F1" height="37.6094" rx="12.5" ry="12.5" style="stroke:#181818;stroke-width:1.5;" width="26.5693" x="244.7813" y="55.2305"/><text fill="#000000" font-family="sans-serif" font-size="14" lengthAdjust="spacing" textLength="6.5693" x="254.7813" y="79.7637">^</text><text fill="#000000" font-family="sans-serif" font-size="14" lengthAdjust="spacing" textLength="61.4688" x="130.3125" y="79.7637">binary xor</text><path d="M244.7813,74.0352 L234.7813,74.0352 C219.7813,74.0352 219.7813,74.0352 204.7813,74.0352 L194.7813,74.0352 " fill="none" style="stroke:#181818;stroke-width:1.0;"/><path d="M321.3506,390.8867 L311.3506,390.8867 C296.3506,390.8867 296.3506,74.0352 281.3506,74.0352 L271.3506,74.0352 " fill="none" style="stroke:#181818;stroke-width:1.0;"/><rect fill="#F1F1F1" height="37.6094" rx="12.5" ry="12.5" style="stroke:#181818;stroke-width:1.5;" width="29.3379" x="242.0127" y="112.8398"/><text fill="#000000" font-family="sans-serif" font-size="14" lengthAdjust="spacing" textLength="9.3379" x="252.0127" y="137.373">&amp;</text><text fill="#000000" font-family="sans-serif" font-size="14" lengthAdjust="spacing" textLength="65.3789" x="123.6338" y="137.373">binary and</text><path d="M242.0127,131.6445 L232.0127,131.6445 C217.0127,131.6445 217.0127,131.6445 202.0127,131.6445 L192.0127,131.6445 " fill="none" style="stroke:#181818;stroke-width:1.0;"/><path d="M321.3506,390.8867 L311.3506,390.8867 C296.3506,390.8867 296.3506,131.6445 281.3506,131.6445 L271.3506,131.6445 " fill="none" style="stroke:#181818;stroke-width:1.0;"/><rect fill="#F1F1F1" height="37.6094" rx="12.5" ry="12.5" style="stroke:#181818;stroke-width:1.5;" width="23.6367" x="247.7139" y="170.4492"/><text fill="#000000" font-family="sans-serif" font-size="14" lengthAdjust="spacing" textLength="3.6367" x="257.7139" y="194.9824">|</text><text fill="#000000" font-family="sans-serif" font-size="14" lengthAdjust="spacing" textLength="54.4688" x="140.2451" y="194.9824">binary or</text><path d="M247.7139,189.2539 L237.7139,189.2539 C222.7139,189.2539 222.7139,189.2539 207.7139,189.2539 L197.7139,189.2539 " fill="none" style="stroke:#181818;stroke-width:1.0;"/><path d="M321.3506,390.8867 L311.3506,390.8867 C296.3506,390.8867 296.3506,189.2539 281.3506,189.2539 L271.3506,189.2539 " fill="none" style="stroke:#181818;stroke-width:1.0;"/><rect fill="#F1F1F1" height="37.6094" rx="12.5" ry="12.5" style="stroke:#181818;stroke-width:1.5;" width="28.1758" x="243.1748" y="228.0586"/><text fill="#000000" font-family="sans-serif" font-size="14" lengthAdjust="spacing" textLength="8.1758" x="253.1748" y="252.5918">=</text><text fill="#000000" font-family="sans-serif" font-size="14" lengthAdjust="spacing" textLength="71.5928" x="118.582" y="242.7871">assignment</text><path d="M243.1748,246.8633 L233.1748,246.8633 C218.1748,246.8633 218.1748,237.0586 203.1748,237.0586 L193.1748,237.0586 " fill="none" style="stroke:#181818;stroke-width:1.0;"/><text fill="#000000" font-family="sans-serif" font-size="14" lengthAdjust="spacing" textLength="114.3857" x="75.7891" y="262.3965">binary comparison</text><path d="M243.1748,246.8633 L233.1748,246.8633 C218.1748,246.8633 218.1748,256.668 203.1748,256.668 L193.1748,256.668 " fill="none" style="stroke:#181818;stroke-width:1.0;"/><path d="M321.3506,390.8867 L311.3506,390.8867 C296.3506,390.8867 296.3506,246.8633 281.3506,246.8633 L271.3506,246.8633 " fill="none" style="stroke:#181818;stroke-width:1.0;"/><rect fill="#F1F1F1" height="37.6094" rx="12.5" ry="12.5" style="stroke:#181818;stroke-width:1.5;" width="23.8896" x="247.4609" y="285.668"/><text fill="#000000" font-family="sans-serif" font-size="14" lengthAdjust="spacing" textLength="3.8896" x="257.4609" y="310.2012">!</text><text fill="#000000" font-family="sans-serif" font-size="14" lengthAdjust="spacing" textLength="58.3721" x="136.0889" y="310.2012">unary not</text><path d="M247.4609,304.4727 L237.4609,304.4727 C222.4609,304.4727 222.4609,304.4727 207.4609,304.4727 L197.4609,304.4727 " fill="none" style="stroke:#181818;stroke-width:1.0;"/><path d="M321.3506,390.8867 L311.3506,390.8867 C296.3506,390.8867 296.3506,304.4727 281.3506,304.4727 L271.3506,304.4727 " fill="none" style="stroke:#181818;stroke-width:1.0;"/><rect fill="#F1F1F1" height="37.6094" rx="12.5" ry="12.5" style="stroke:#181818;stroke-width:1.5;" width="36.3516" x="234.999" y="343.2773"/><text fill="#000000" font-family="sans-serif" font-size="14" lengthAdjust="spacing" textLength="16.3516" x="244.999" y="367.8105">&lt;&gt;</text><text fill="#000000" font-family="sans-serif" font-size="14" lengthAdjust="spacing" textLength="99.627" x="82.3721" y="367.8105">binary not equal</text><path d="M234.999,362.082 L224.999,362.082 C209.999,362.082 209.999,362.082 194.999,362.082 L184.999,362.082 " fill="none" style="stroke:#181818;stroke-width:1.0;"/><path d="M321.3506,390.8867 L311.3506,390.8867 C296.3506,390.8867 296.3506,362.082 281.3506,362.082 L271.3506,362.082 " fill="none" style="stroke:#181818;stroke-width:1.0;"/><rect fill="#F1F1F1" height="37.6094" rx="12.5" ry="12.5" style="stroke:#181818;stroke-width:1.5;" width="28.1758" x="243.1748" y="400.8867"/><text fill="#000000" font-family="sans-serif" font-size="14" lengthAdjust="spacing" textLength="8.1758" x="253.1748" y="425.4199">&lt;</text><text fill="#000000" font-family="sans-serif" font-size="14" lengthAdjust="spacing" textLength="98.0547" x="92.1201" y="425.4199">binary less than</text><path d="M243.1748,419.6914 L233.1748,419.6914 C218.1748,419.6914 218.1748,419.6914 203.1748,419.6914 L193.1748,419.6914 " fill="none" style="stroke:#181818;stroke-width:1.0;"/><path d="M321.3506,390.8867 L311.3506,390.8867 C296.3506,390.8867 296.3506,419.6914 281.3506,419.6914 L271.3506,419.6914 " fill="none" style="stroke:#181818;stroke-width:1.0;"/><rect fill="#F1F1F1" height="37.6094" rx="12.5" ry="12.5" style="stroke:#181818;stroke-width:1.5;" width="28.1758" x="243.1748" y="458.4961"/><text fill="#000000" font-family="sans-serif" font-size="14" lengthAdjust="spacing" textLength="8.1758" x="253.1748" y="483.0293">&gt;</text><text fill="#000000" font-family="sans-serif" font-size="14" lengthAdjust="spacing" textLength="117.5166" x="72.6582" y="483.0293">binary greater than</text><path d="M243.1748,477.3008 L233.1748,477.3008 C218.1748,477.3008 218.1748,477.3008 203.1748,477.3008 L193.1748,477.3008 " fill="none" style="stroke:#181818;stroke-width:1.0;"/><path d="M321.3506,390.8867 L311.3506,390.8867 C296.3506,390.8867 296.3506,477.3008 281.3506,477.3008 L271.3506,477.3008 " fill="none" style="stroke:#181818;stroke-width:1.0;"/><rect fill="#F1F1F1" height="37.6094" rx="12.5" ry="12.5" style="stroke:#181818;stroke-width:1.5;" width="36.3516" x="234.999" y="516.1055"/><text fill="#000000" font-family="sans-serif" font-size="14" lengthAdjust="spacing" textLength="16.3516" x="244.999" y="540.6387">&lt;=</text><text fill="#000000" font-family="sans-serif" font-size="14" lengthAdjust="spacing" textLength="152.5371" x="29.4619" y="540.6387">binary less than or equal</text><path d="M234.999,534.9102 L224.999,534.9102 C209.999,534.9102 209.999,534.9102 194.999,534.9102 L184.999,534.9102 " fill="none" style="stroke:#181818;stroke-width:1.0;"/><path d="M321.3506,390.8867 L311.3506,390.8867 C296.3506,390.8867 296.3506,534.9102 281.3506,534.9102 L271.3506,534.9102 " fill="none" style="stroke:#181818;stroke-width:1.0;"/><rect fill="#F1F1F1" height="37.6094" rx="12.5" ry="12.5" style="stroke:#181818;stroke-width:1.5;" width="36.3516" x="234.999" y="573.7148"/><text fill="#000000" font-family="sans-serif" font-size="14" lengthAdjust="spacing" textLength="16.3516" x="244.999" y="598.248">&gt;=</text><text fill="#000000" font-family="sans-serif" font-size="14" lengthAdjust="spacing" textLength="171.999" x="10" y="598.248">binary greater than or equal</text><path d="M234.999,592.5195 L224.999,592.5195 C209.999,592.5195 209.999,592.5195 194.999,592.5195 L184.999,592.5195 " fill="none" style="stroke:#181818;stroke-width:1.0;"/><path d="M321.3506,390.8867 L311.3506,390.8867 C296.3506,390.8867 296.3506,592.5195 281.3506,592.5195 L271.3506,592.5195 " fill="none" style="stroke:#181818;stroke-width:1.0;"/><rect fill="#F1F1F1" height="37.6094" rx="12.5" ry="12.5" style="stroke:#181818;stroke-width:1.5;" width="38.6758" x="232.6748" y="631.3242"/><text fill="#000000" font-family="sans-serif" font-size="14" lengthAdjust="spacing" textLength="18.6758" x="242.6748" y="655.8574">&amp;&amp;</text><text fill="#000000" font-family="sans-serif" font-size="14" lengthAdjust="spacing" textLength="108.958" x="70.7168" y="655.8574">binary logical and</text><path d="M232.6748,650.1289 L222.6748,650.1289 C207.6748,650.1289 207.6748,650.1289 192.6748,650.1289 L182.6748,650.1289 " fill="none" style="stroke:#181818;stroke-width:1.0;"/><path d="M321.3506,390.8867 L311.3506,390.8867 C296.3506,390.8867 296.3506,650.1289 281.3506,650.1289 L271.3506,650.1289 " fill="none" style="stroke:#181818;stroke-width:1.0;"/><rect fill="#F1F1F1" height="37.6094" rx="12.5" ry="12.5" style="stroke:#181818;stroke-width:1.5;" width="31.1631" x="240.1875" y="688.9336"/><text fill="#000000" font-family="sans-serif" font-size="14" lengthAdjust="spacing" textLength="11.1631" x="250.1875" y="713.4668">| |</text><text fill="#000000" font-family="sans-serif" font-size="14" lengthAdjust="spacing" textLength="98.0479" x="89.1396" y="713.4668">binary logical or</text><path d="M240.1875,707.7383 L230.1875,707.7383 C215.1875,707.7383 215.1875,707.7383 200.1875,707.7383 L190.1875,707.7383 " fill="none" style="stroke:#181818;stroke-width:1.0;"/><path d="M321.3506,390.8867 L311.3506,390.8867 C296.3506,390.8867 296.3506,707.7383 281.3506,707.7383 L271.3506,707.7383 " fill="none" style="stroke:#181818;stroke-width:1.0;"/><!--SRC=[TLJlRzem4FsUl-BsOHKCw01rOs9jLOrMdIhGgb7wPTgc8pc29SVE79l2VlplEyT0QzHA4KdUU_VkShxZeh9eR25KLc2PjA1qAhKEhT0gQRNW3_pZM-idfBeejLCPiDvIGSfw-Xjy3pGQWnjW5rh7WB02fVYzDsn0CmWMFX63aAAK0Q9rQQYgF9WRxKgXyWDjHgb4WrQRG8X56we7OTDb6nwMGb8RCjtPFYsq6NA458MmNB-oHal9di0UhY9VpSTWi_yci6Iu5uy9AciSzyDGpC1ne0igvcG0qvJhzdXxtwq2GPVqfDRGaOfAZC3SrOcbgEmXwLyAuiG7BFXChQ2PSqrc0wLqTVvEX7B10NuJmqvQKSgDPzv6J2PM8gixC_bo6SVep6rpl7w9cEs3dAf4hYWx57Kwy8D_ElleDNyhWqSHY2hpuDy83CApW67b_UifVAhnGuf6L3ngh7qLE5TJIdifd9v70Om2_N8eQowY99yes2NMLd5KRWZzgUpOqxFd8xdcH_VpinSz8jrHt0kfSy4Rikl9wQpLxGv6v_k7PyNSg-I2UAMtQvtSIbHsDXd3YaozNxtZVhT_SZneJD72b4he3lWQzZuCUmEukhm3JpUJnlNj62hjJ4ey6xmCOkxy8ZQJ6rmXV7NAYeA6uDyQTvCcJAzs85ofbJ0w7DBD_II8uBEsqrBRMlp-fFD9-FI6ouBxIN992-JPvD1KPxofGnYLlVwxVZ96bJlCEHEfPCJ_GzPiXZ2R_WS0]--></g></svg>