<svg xmlns="http://www.w3.org/2000/svg" xmlns:xlink="http://www.w3.org/1999/xlink" contentStyleType="text/css" height="742px" preserveAspectRatio="none" style="width:1088px;height:742px;background:#FFFFFF;" version="1.1" viewBox="0 0 1088 742" width="1088px" zoomAndPan="magnify"><defs/><g><rect fill="#F1F1F1" height="37.6094" rx="12.5" ry="12.5" style="stroke:#181818;stroke-width:1.5;" width="92.3926" x="385.9502" y="351.5313"/><text fill="#000000" font-family="sans-serif" font-size="14" lengthAdjust="spacing" textLength="72.3926" x="395.9502" y="376.0645">punctuation</text><rect fill="#F1F1F1" height="37.6094" rx="12.5" ry="12.5" style="stroke:#181818;stroke-width:1.5;" width="80.6826" x="528.3428" y="50.0234"/><text fill="#000000" font-family="sans-serif" font-size="14" lengthAdjust="spacing" textLength="60.6826" x="538.3428" y="74.5566">arithmetic</text><text fill="#000000" font-family="sans-serif" font-size="14" lengthAdjust="spacing" textLength="37.748" x="662.0254" y="25.5332">+ plus</text><path d="M609.0254,68.8281 L619.0254,68.8281 C634.0254,68.8281 634.0254,19.8047 649.0254,19.8047 L659.0254,19.8047 " fill="none" style="stroke:#181818;stroke-width:1.0;"/><text fill="#000000" font-family="sans-serif" font-size="14" lengthAdjust="spacing" textLength="45.8965" x="662.0254" y="45.1426">- minus</text><path d="M609.0254,68.8281 L619.0254,68.8281 C634.0254,68.8281 634.0254,39.4141 649.0254,39.4141 L659.0254,39.4141 " fill="none" style="stroke:#181818;stroke-width:1.0;"/><ellipse cx="667.5254" cy="60.3281" fill="#000000" rx="2.5" ry="2.5" style="stroke:#000000;stroke-width:0.0;"/><text fill="#000000" font-family="sans-serif" font-size="14" lengthAdjust="spacing" textLength="47.4551" x="674.0254" y="64.752">multiply</text><path d="M609.0254,68.8281 L619.0254,68.8281 C634.0254,68.8281 634.0254,59.0234 649.0254,59.0234 L659.0254,59.0234 " fill="none" style="stroke:#181818;stroke-width:1.0;"/><text fill="#000000" font-family="sans-serif" font-size="14" lengthAdjust="spacing" textLength="44.3584" x="662.0254" y="84.3613">/ divide</text><path d="M609.0254,68.8281 L619.0254,68.8281 C634.0254,68.8281 634.0254,78.6328 649.0254,78.6328 L659.0254,78.6328 " fill="none" style="stroke:#181818;stroke-width:1.0;"/><text fill="#000000" font-family="sans-serif" font-size="14" lengthAdjust="spacing" textLength="122.1445" x="662.0254" y="103.9707">% or MOD modulus</text><path d="M609.0254,68.8281 L619.0254,68.8281 C634.0254,68.8281 634.0254,98.2422 649.0254,98.2422 L659.0254,98.2422 " fill="none" style="stroke:#181818;stroke-width:1.0;"/><text fill="#000000" font-family="sans-serif" font-size="14" lengthAdjust="spacing" textLength="164.1855" x="662.0254" y="123.5801">UMOD  unsigned modulus</text><path d="M609.0254,68.8281 L619.0254,68.8281 C634.0254,68.8281 634.0254,117.8516 649.0254,117.8516 L659.0254,117.8516 " fill="none" style="stroke:#181818;stroke-width:1.0;"/><path d="M478.3428,370.3359 L488.3428,370.3359 C503.3428,370.3359 503.3428,68.8281 518.3428,68.8281 L528.3428,68.8281 " fill="none" style="stroke:#181818;stroke-width:1.0;"/><rect fill="#F1F1F1" height="37.6094" rx="12.5" ry="12.5" style="stroke:#181818;stroke-width:1.5;" width="62.793" x="528.3428" y="226.5078"/><text fill="#000000" font-family="sans-serif" font-size="14" lengthAdjust="spacing" textLength="42.793" x="538.3428" y="251.041">bitwise</text><text fill="#000000" font-family="sans-serif" font-size="14" lengthAdjust="spacing" textLength="75.4961" x="644.1357" y="143.1895">&lt;&lt; Shift Left</text><path d="M591.1357,245.3125 L601.1357,245.3125 C616.1357,245.3125 616.1357,137.4609 631.1357,137.4609 L641.1357,137.4609 " fill="none" style="stroke:#181818;stroke-width:1.0;"/><text fill="#000000" font-family="sans-serif" font-size="14" lengthAdjust="spacing" textLength="84.8271" x="644.1357" y="162.7988">&gt;&gt; Shift Right</text><path d="M591.1357,245.3125 L601.1357,245.3125 C616.1357,245.3125 616.1357,157.0703 631.1357,157.0703 L641.1357,157.0703 " fill="none" style="stroke:#181818;stroke-width:1.0;"/><text fill="#000000" font-family="sans-serif" font-size="14" lengthAdjust="spacing" textLength="81.7305" x="644.1357" y="182.4082">{{ Rotate Left</text><path d="M591.1357,245.3125 L601.1357,245.3125 C616.1357,245.3125 616.1357,176.6797 631.1357,176.6797 L641.1357,176.6797 " fill="none" style="stroke:#181818;stroke-width:1.0;"/><text fill="#000000" font-family="sans-serif" font-size="14" lengthAdjust="spacing" textLength="91.0615" x="644.1357" y="202.0176">}} Rotate Right</text><path d="M591.1357,245.3125 L601.1357,245.3125 C616.1357,245.3125 616.1357,196.2891 631.1357,196.2891 L641.1357,196.2891 " fill="none" style="stroke:#181818;stroke-width:1.0;"/><text fill="#000000" font-family="sans-serif" font-size="14" lengthAdjust="spacing" textLength="151.2656" x="644.1357" y="221.627">NOT(a) 1's Complement</text><path d="M591.1357,245.3125 L601.1357,245.3125 C616.1357,245.3125 616.1357,215.8984 631.1357,215.8984 L641.1357,215.8984 " fill="none" style="stroke:#181818;stroke-width:1.0;"/><text fill="#000000" font-family="sans-serif" font-size="14" lengthAdjust="spacing" textLength="91.0205" x="644.1357" y="241.2363">&amp; Bitwise AND</text><path d="M591.1357,245.3125 L601.1357,245.3125 C616.1357,245.3125 616.1357,235.5078 631.1357,235.5078 L641.1357,235.5078 " fill="none" style="stroke:#181818;stroke-width:1.0;"/><text fill="#000000" font-family="sans-serif" font-size="14" lengthAdjust="spacing" textLength="76.7607" x="644.1357" y="260.8457">| Bitwise OR</text><path d="M591.1357,245.3125 L601.1357,245.3125 C616.1357,245.3125 616.1357,255.1172 631.1357,255.1172 L641.1357,255.1172 " fill="none" style="stroke:#181818;stroke-width:1.0;"/><text fill="#000000" font-family="sans-serif" font-size="14" lengthAdjust="spacing" textLength="89.0313" x="644.1357" y="280.4551">^ Bitwise XOR</text><path d="M591.1357,245.3125 L601.1357,245.3125 C616.1357,245.3125 616.1357,274.7266 631.1357,274.7266 L641.1357,274.7266 " fill="none" style="stroke:#181818;stroke-width:1.0;"/><text fill="#000000" font-family="sans-serif" font-size="14" lengthAdjust="spacing" textLength="29.9072" x="644.1357" y="300.0645">^ xor</text><path d="M591.1357,245.3125 L601.1357,245.3125 C616.1357,245.3125 616.1357,294.3359 631.1357,294.3359 L641.1357,294.3359 " fill="none" style="stroke:#181818;stroke-width:1.0;"/><text fill="#000000" font-family="sans-serif" font-size="14" lengthAdjust="spacing" textLength="36.5859" x="644.1357" y="319.6738">&amp; and</text><path d="M591.1357,245.3125 L601.1357,245.3125 C616.1357,245.3125 616.1357,313.9453 631.1357,313.9453 L641.1357,313.9453 " fill="none" style="stroke:#181818;stroke-width:1.0;"/><text fill="#000000" font-family="sans-serif" font-size="14" lengthAdjust="spacing" textLength="19.9746" x="644.1357" y="339.2832">| or</text><path d="M591.1357,245.3125 L601.1357,245.3125 C616.1357,245.3125 616.1357,333.5547 631.1357,333.5547 L641.1357,333.5547 " fill="none" style="stroke:#181818;stroke-width:1.0;"/><text fill="#000000" font-family="sans-serif" font-size="14" lengthAdjust="spacing" textLength="27.2412" x="644.1357" y="358.8926">! not</text><path d="M591.1357,245.3125 L601.1357,245.3125 C616.1357,245.3125 616.1357,353.1641 631.1357,353.1641 L641.1357,353.1641 " fill="none" style="stroke:#181818;stroke-width:1.0;"/><path d="M478.3428,370.3359 L488.3428,370.3359 C503.3428,370.3359 503.3428,245.3125 518.3428,245.3125 L528.3428,245.3125 " fill="none" style="stroke:#181818;stroke-width:1.0;"/><rect fill="#F1F1F1" height="37.6094" rx="12.5" ry="12.5" style="stroke:#181818;stroke-width:1.5;" width="74.4893" x="528.3428" y="436.3945"/><text fill="#000000" font-family="sans-serif" font-size="14" lengthAdjust="spacing" textLength="54.4893" x="538.3428" y="460.9277">grouping</text><rect fill="#F1F1F1" height="37.6094" rx="12.5" ry="12.5" style="stroke:#181818;stroke-width:1.5;" width="33.2412" x="652.832" y="372.9688"/><text fill="#000000" font-family="sans-serif" font-size="14" lengthAdjust="spacing" textLength="13.2412" x="662.832" y="397.502">{ }</text><text fill="#000000" font-family="sans-serif" font-size="14" lengthAdjust="spacing" textLength="130.7441" x="739.0732" y="397.502">compound statement</text><path d="M686.0732,391.7734 L696.0732,391.7734 C711.0732,391.7734 711.0732,391.7734 726.0732,391.7734 L736.0732,391.7734 " fill="none" style="stroke:#181818;stroke-width:1.0;"/><path d="M602.832,455.1992 L612.832,455.1992 C627.832,455.1992 627.832,391.7734 642.832,391.7734 L652.832,391.7734 " fill="none" style="stroke:#181818;stroke-width:1.0;"/><rect fill="#F1F1F1" height="37.6094" rx="12.5" ry="12.5" style="stroke:#181818;stroke-width:1.5;" width="31.6689" x="652.832" y="430.5781"/><text fill="#000000" font-family="sans-serif" font-size="14" lengthAdjust="spacing" textLength="11.6689" x="662.832" y="455.1113">[ ]</text><text fill="#000000" font-family="sans-serif" font-size="14" lengthAdjust="spacing" textLength="69.2549" x="737.501" y="445.3066">array index</text><path d="M684.501,449.3828 L694.501,449.3828 C709.501,449.3828 709.501,439.5781 724.501,439.5781 L734.501,439.5781 " fill="none" style="stroke:#181818;stroke-width:1.0;"/><text fill="#000000" font-family="sans-serif" font-size="14" lengthAdjust="spacing" textLength="108.1582" x="737.501" y="464.916">array initialization</text><path d="M684.501,449.3828 L694.501,449.3828 C709.501,449.3828 709.501,459.1875 724.501,459.1875 L734.501,459.1875 " fill="none" style="stroke:#181818;stroke-width:1.0;"/><path d="M602.832,455.1992 L612.832,455.1992 C627.832,455.1992 627.832,449.3828 642.832,449.3828 L652.832,449.3828 " fill="none" style="stroke:#181818;stroke-width:1.0;"/><rect fill="#F1F1F1" height="37.6094" rx="12.5" ry="12.5" style="stroke:#181818;stroke-width:1.5;" width="33.2139" x="652.832" y="489.4063"/><text fill="#000000" font-family="sans-serif" font-size="14" lengthAdjust="spacing" textLength="13.2139" x="662.832" y="513.9395">( )</text><text fill="#000000" font-family="sans-serif" font-size="14" lengthAdjust="spacing" textLength="73.9307" x="739.0459" y="484.5254">function call</text><path d="M686.0459,508.2109 L696.0459,508.2109 C711.0459,508.2109 711.0459,478.7969 726.0459,478.7969 L736.0459,478.7969 " fill="none" style="stroke:#181818;stroke-width:1.0;"/><text fill="#000000" font-family="sans-serif" font-size="14" lengthAdjust="spacing" textLength="126.082" x="739.0459" y="504.1348">expression grouping</text><path d="M686.0459,508.2109 L696.0459,508.2109 C711.0459,508.2109 711.0459,498.4063 726.0459,498.4063 L736.0459,498.4063 " fill="none" style="stroke:#181818;stroke-width:1.0;"/><text fill="#000000" font-family="sans-serif" font-size="14" lengthAdjust="spacing" textLength="115.1787" x="739.0459" y="523.7441">function declarator</text><path d="M686.0459,508.2109 L696.0459,508.2109 C711.0459,508.2109 711.0459,518.0156 726.0459,518.0156 L736.0459,518.0156 " fill="none" style="stroke:#181818;stroke-width:1.0;"/><text fill="#000000" font-family="sans-serif" font-size="14" lengthAdjust="spacing" textLength="337.6885" x="739.0459" y="543.3535">if, switch, while, do-while, for: delimit controlling clause</text><path d="M686.0459,508.2109 L696.0459,508.2109 C711.0459,508.2109 711.0459,537.625 726.0459,537.625 L736.0459,537.625 " fill="none" style="stroke:#181818;stroke-width:1.0;"/><path d="M602.832,455.1992 L612.832,455.1992 C627.832,455.1992 627.832,508.2109 642.832,508.2109 L652.832,508.2109 " fill="none" style="stroke:#181818;stroke-width:1.0;"/><path d="M478.3428,370.3359 L488.3428,370.3359 C503.3428,370.3359 503.3428,455.1992 518.3428,455.1992 L528.3428,455.1992 " fill="none" style="stroke:#181818;stroke-width:1.0;"/><rect fill="#F1F1F1" height="37.6094" rx="12.5" ry="12.5" style="stroke:#181818;stroke-width:1.5;" width="74.4619" x="528.3428" y="620.2461"/><text fill="#000000" font-family="sans-serif" font-size="14" lengthAdjust="spacing" textLength="54.4619" x="538.3428" y="644.7793">structure</text><rect fill="#F1F1F1" height="37.6094" rx="12.5" ry="12.5" style="stroke:#181818;stroke-width:1.5;" width="23.8896" x="652.8047" y="557.4297"/><text fill="#000000" font-family="sans-serif" font-size="14" lengthAdjust="spacing" textLength="3.8896" x="662.8047" y="581.9629">;</text><text fill="#000000" font-family="sans-serif" font-size="14" lengthAdjust="spacing" textLength="128.3857" x="729.6943" y="572.1582">statement terminator</text><path d="M676.6943,576.2344 L686.6943,576.2344 C701.6943,576.2344 701.6943,566.4297 716.6943,566.4297 L726.6943,566.4297 " fill="none" style="stroke:#181818;stroke-width:1.0;"/><text fill="#000000" font-family="sans-serif" font-size="14" lengthAdjust="spacing" textLength="121.3721" x="729.6943" y="591.7676">structure terminator</text><path d="M676.6943,576.2344 L686.6943,576.2344 C701.6943,576.2344 701.6943,586.0391 716.6943,586.0391 L726.6943,586.0391 " fill="none" style="stroke:#181818;stroke-width:1.0;"/><path d="M602.8047,639.0508 L612.8047,639.0508 C627.8047,639.0508 627.8047,576.2344 642.8047,576.2344 L652.8047,576.2344 " fill="none" style="stroke:#181818;stroke-width:1.0;"/><rect fill="#F1F1F1" height="37.6094" rx="12.5" ry="12.5" style="stroke:#181818;stroke-width:1.5;" width="23.8896" x="652.8047" y="615.0391"/><text fill="#000000" font-family="sans-serif" font-size="14" lengthAdjust="spacing" textLength="3.8896" x="662.8047" y="639.5723">.</text><text fill="#000000" font-family="sans-serif" font-size="14" lengthAdjust="spacing" textLength="98.8066" x="729.6943" y="639.5723">member access</text><path d="M676.6943,633.8438 L686.6943,633.8438 C701.6943,633.8438 701.6943,633.8438 716.6943,633.8438 L726.6943,633.8438 " fill="none" style="stroke:#181818;stroke-width:1.0;"/><path d="M602.8047,639.0508 L612.8047,639.0508 C627.8047,639.0508 627.8047,633.8438 642.8047,633.8438 L652.8047,633.8438 " fill="none" style="stroke:#181818;stroke-width:1.0;"/><rect fill="#F1F1F1" height="37.6094" rx="12.5" ry="12.5" style="stroke:#181818;stroke-width:1.5;" width="23.8896" x="652.8047" y="672.6484"/><text fill="#000000" font-family="sans-serif" font-size="14" lengthAdjust="spacing" textLength="3.8896" x="662.8047" y="697.1816">,</text><text fill="#000000" font-family="sans-serif" font-size="14" lengthAdjust="spacing" textLength="101.9307" x="729.6943" y="667.7676">comma operator</text><path d="M676.6943,691.4531 L686.6943,691.4531 C701.6943,691.4531 701.6943,662.0391 716.6943,662.0391 L726.6943,662.0391 " fill="none" style="stroke:#181818;stroke-width:1.0;"/><text fill="#000000" font-family="sans-serif" font-size="14" lengthAdjust="spacing" textLength="94.9307" x="729.6943" y="687.377">array separator</text><path d="M676.6943,691.4531 L686.6943,691.4531 C701.6943,691.4531 701.6943,681.6484 716.6943,681.6484 L726.6943,681.6484 " fill="none" style="stroke:#181818;stroke-width:1.0;"/><text fill="#000000" font-family="sans-serif" font-size="14" lengthAdjust="spacing" textLength="143.1787" x="729.6943" y="706.9863">argument list separator</text><path d="M676.6943,691.4531 L686.6943,691.4531 C701.6943,691.4531 701.6943,701.2578 716.6943,701.2578 L726.6943,701.2578 " fill="none" style="stroke:#181818;stroke-width:1.0;"/><text fill="#000000" font-family="sans-serif" font-size="14" lengthAdjust="spacing" textLength="147.8408" x="729.6943" y="726.5957">parameter list separator</text><path d="M676.6943,691.4531 L686.6943,691.4531 C701.6943,691.4531 701.6943,720.8672 716.6943,720.8672 L726.6943,720.8672 " fill="none" style="stroke:#181818;stroke-width:1.0;"/><path d="M602.8047,639.0508 L612.8047,639.0508 C627.8047,639.0508 627.8047,691.4531 642.8047,691.4531 L652.8047,691.4531 " fill="none" style="stroke:#181818;stroke-width:1.0;"/><path d="M478.3428,370.3359 L488.3428,370.3359 C503.3428,370.3359 503.3428,639.0508 518.3428,639.0508 L528.3428,639.0508 " fill="none" style="stroke:#181818;stroke-width:1.0;"/><rect fill="#F1F1F1" height="37.6094" rx="12.5" ry="12.5" style="stroke:#181818;stroke-width:1.5;" width="92.3652" x="243.585" y="263.8984"/><text fill="#000000" font-family="sans-serif" font-size="14" lengthAdjust="spacing" textLength="72.3652" x="253.585" y="288.4316">comparison</text><text fill="#000000" font-family="sans-serif" font-size="14" lengthAdjust="spacing" textLength="51.29" x="139.2949" y="278.627">"= equal</text><path d="M243.585,282.7031 L233.585,282.7031 C218.585,282.7031 218.585,272.8984 203.585,272.8984 L193.585,272.8984 " fill="none" style="stroke:#181818;stroke-width:1.0;"/><text fill="#000000" font-family="sans-serif" font-size="14" lengthAdjust="spacing" textLength="77.8477" x="112.7373" y="298.2363">&lt;&gt; not equal</text><path d="M243.585,282.7031 L233.585,282.7031 C218.585,282.7031 218.585,292.5078 203.585,292.5078 L193.585,292.5078 " fill="none" style="stroke:#181818;stroke-width:1.0;"/><path d="M385.9502,370.3359 L375.9502,370.3359 C360.9502,370.3359 360.9502,282.7031 345.9502,282.7031 L335.9502,282.7031 " fill="none" style="stroke:#181818;stroke-width:1.0;"/><rect fill="#F1F1F1" height="37.6094" rx="12.5" ry="12.5" style="stroke:#181818;stroke-width:1.5;" width="76.8135" x="259.1367" y="351.5313"/><text fill="#000000" font-family="sans-serif" font-size="14" lengthAdjust="spacing" textLength="56.8135" x="269.1367" y="376.0645">relational</text><text fill="#000000" font-family="sans-serif" font-size="14" lengthAdjust="spacing" textLength="105.8408" x="100.2959" y="327.041">&lt; or S&lt; less than</text><path d="M259.1367,370.3359 L249.1367,370.3359 C234.1367,370.3359 234.1367,321.3125 219.1367,321.3125 L209.1367,321.3125 " fill="none" style="stroke:#181818;stroke-width:1.0;"/><text fill="#000000" font-family="sans-serif" font-size="14" lengthAdjust="spacing" textLength="125.3027" x="80.834" y="346.6504">&gt; or S&gt; greater than</text><path d="M259.1367,370.3359 L249.1367,370.3359 C234.1367,370.3359 234.1367,340.9219 219.1367,340.9219 L209.1367,340.9219 " fill="none" style="stroke:#181818;stroke-width:1.0;"/><text fill="#000000" font-family="sans-serif" font-size="14" lengthAdjust="spacing" textLength="176.6748" x="29.4619" y="366.2598">&lt;= or S&lt;= less than or equal</text><path d="M259.1367,370.3359 L249.1367,370.3359 C234.1367,370.3359 234.1367,360.5313 219.1367,360.5313 L209.1367,360.5313 " fill="none" style="stroke:#181818;stroke-width:1.0;"/><text fill="#000000" font-family="sans-serif" font-size="14" lengthAdjust="spacing" textLength="196.1367" x="10" y="385.8691">&gt;= or S&gt;= greater than or equal</text><path d="M259.1367,370.3359 L249.1367,370.3359 C234.1367,370.3359 234.1367,380.1406 219.1367,380.1406 L209.1367,380.1406 " fill="none" style="stroke:#181818;stroke-width:1.0;"/><text fill="#000000" font-family="sans-serif" font-size="14" lengthAdjust="spacing" textLength="89.5029" x="116.6338" y="405.4785">&amp;&amp; logical and</text><path d="M259.1367,370.3359 L249.1367,370.3359 C234.1367,370.3359 234.1367,399.75 219.1367,399.75 L209.1367,399.75 " fill="none" style="stroke:#181818;stroke-width:1.0;"/><text fill="#000000" font-family="sans-serif" font-size="14" lengthAdjust="spacing" textLength="143.3359" x="62.8008" y="425.0879">&lt;Ub+007C&gt; | logical or</text><path d="M259.1367,370.3359 L249.1367,370.3359 C234.1367,370.3359 234.1367,419.3594 219.1367,419.3594 L209.1367,419.3594 " fill="none" style="stroke:#181818;stroke-width:1.0;"/><path d="M385.9502,370.3359 L375.9502,370.3359 C360.9502,370.3359 360.9502,370.3359 345.9502,370.3359 L335.9502,370.3359 " fill="none" style="stroke:#181818;stroke-width:1.0;"/><rect fill="#F1F1F1" height="37.6094" rx="12.5" ry="12.5" style="stroke:#181818;stroke-width:1.5;" width="91.5928" x="244.3574" y="439.1641"/><text fill="#000000" font-family="sans-serif" font-size="14" lengthAdjust="spacing" textLength="71.5928" x="254.3574" y="463.6973">assignment</text><text fill="#000000" font-family="sans-serif" font-size="14" lengthAdjust="spacing" textLength="93.5977" x="97.7598" y="463.6973">"= assignment"</text><path d="M244.3574,457.9688 L234.3574,457.9688 C219.3574,457.9688 219.3574,457.9688 204.3574,457.9688 L194.3574,457.9688 " fill="none" style="stroke:#181818;stroke-width:1.0;"/><path d="M385.9502,370.3359 L375.9502,370.3359 C360.9502,370.3359 360.9502,457.9688 345.9502,457.9688 L335.9502,457.9688 " fill="none" style="stroke:#181818;stroke-width:1.0;"/><!--SRC=[PLHjRzem4FwUNt6hj0u6wG1rOs8qwWRLfWhQ2aerQTegavXWoR4pnwRjklxtdMCdf5qKARxdddk_-BJGHEcCYIGZUT21t8XO6wAP546d0qGnlSsePZ5AdLj00ZU5EuU0PfNm5ZB3DSlvWvFVGS9sBA5EUWrImVno2fbCJErWPH4mec2fe4cj2qE8PPPZw0AJ2CFm5WvEWFusX3jf786GkaP0KLucNEjjjEKOE2qAq5lYdKGb746gAD5KDJJZ4sTniZUnG2Dav1ZuQLg_81qU0fSfYma78XBlUhNkz7h3IOGdVwWuKjaEhvc-OuNlqtWCootRQ9ZHZNPG57bemTAjnnuVOI4rfj7WFJrLM8DuSNdT8ctelobWWYtbDAF2gmxXYuiCdo-c3lfRGvSBX_ogaUzxwBvCl7HXo_Ic5VZApiPEXHHshcN0QePxwC2MdYffSYPIQmYFy6I_wC4ENngHG67BgJA67_3J4uXIv05mPUdz2uHfHZZxKwrl1rhGzfIDNMo40LlFFKRlSuK3jsWpboOxeJ4dYcXN7chOfWl57TFnjWjtMyPf5n8P-jD6gX6QS9OnZNK8hIJdw1NGYIc7Z4KfWt-OAYSEdxpNkbJ0tSBVgX6mDdYXWYDFo6YsneKaSOorb9hklfCP0PdJPW6kLmNDoNCqDMLypWhzdzPAU0jWbETg2ChdbEBruQ-Gu8eJeLVp6UoeAblRFnhq1iT7mzQIQ5ZI77f3V4VzZwF-4Cwcrs3LxQ3rzMe6XJGgfdXtODLiRUm8si4vsH5O6A5PHaTWfTRrl0tBimg4Cx5ZIhfbEx-PEn9yatgPIrsIFno7kCeONc5QS3CFfdH3yCP2qrWcEA8HJFB-uFqWc16H6f9Y92g22IwYLWyZM2t_0G00]--></g></svg>