<svg xmlns="http://www.w3.org/2000/svg" xmlns:xlink="http://www.w3.org/1999/xlink" contentStyleType="text/css" height="660px" preserveAspectRatio="none" style="width:955px;height:660px;background:#FFFFFF;" version="1.1" viewBox="0 0 955 660" width="955px" zoomAndPan="magnify"><defs/><g><rect fill="#F1F1F1" height="37.6094" rx="12.5" ry="12.5" style="stroke:#181818;stroke-width:1.5;" width="88.4756" x="10" y="310.3984"/><text fill="#000000" font-family="sans-serif" font-size="14" lengthAdjust="spacing" textLength="68.4756" x="20" y="334.9316">statements</text><rect fill="#F1F1F1" height="37.6094" rx="12.5" ry="12.5" style="stroke:#181818;stroke-width:1.5;" width="69.8271" x="148.4756" y="29.4141"/><text fill="#000000" font-family="sans-serif" font-size="14" lengthAdjust="spacing" textLength="49.8271" x="158.4756" y="53.9473">Looping</text><text fill="#000000" font-family="sans-serif" font-size="14" lengthAdjust="spacing" textLength="301.6836" x="271.3027" y="25.5332">while(expression){ statements; [continue|break] }</text><path d="M218.3027,48.2188 L228.3027,48.2188 C243.3027,48.2188 243.3027,19.8047 258.3027,19.8047 L268.3027,19.8047 " fill="none" style="stroke:#181818;stroke-width:1.0;"/><text fill="#000000" font-family="sans-serif" font-size="14" lengthAdjust="spacing" textLength="318.8145" x="271.3027" y="45.1426">do{ statements; [continue|break] } until(expression);</text><path d="M218.3027,48.2188 L228.3027,48.2188 C243.3027,48.2188 243.3027,39.4141 258.3027,39.4141 L268.3027,39.4141 " fill="none" style="stroke:#181818;stroke-width:1.0;"/><text fill="#000000" font-family="sans-serif" font-size="14" lengthAdjust="spacing" textLength="363.8223" x="271.3027" y="64.752">for(&lt;variable&gt; = &lt;start_expression&gt; TO &lt;end_expression&gt;</text><text fill="#000000" font-family="sans-serif" font-size="14" lengthAdjust="spacing" textLength="368.6143" x="271.3027" y="82.3613">[STEP &lt;step_expression&gt;])){ statements; [continue|break] }</text><path d="M218.3027,48.2188 L228.3027,48.2188 C243.3027,48.2188 243.3027,67.8281 258.3027,67.8281 L268.3027,67.8281 " fill="none" style="stroke:#181818;stroke-width:1.0;"/><path d="M98.4756,329.2031 L108.4756,329.2031 C123.4756,329.2031 123.4756,48.2188 138.4756,48.2188 L148.4756,48.2188 " fill="none" style="stroke:#181818;stroke-width:1.0;"/><rect fill="#F1F1F1" height="37.6094" rx="12.5" ry="12.5" style="stroke:#181818;stroke-width:1.5;" width="44.8965" x="148.4756" y="136.2656"/><text fill="#000000" font-family="sans-serif" font-size="14" lengthAdjust="spacing" textLength="24.8965" x="158.4756" y="160.7988">wait</text><text fill="#000000" font-family="sans-serif" font-size="14" lengthAdjust="spacing" textLength="440.1865" x="246.3721" y="101.9707">WAIT(&lt;integer|long integer expression&gt;, string identifier){ statements; }</text><path d="M193.3721,155.0703 L203.3721,155.0703 C218.3721,155.0703 218.3721,96.2422 233.3721,96.2422 L243.3721,96.2422 " fill="none" style="stroke:#181818;stroke-width:1.0;"/><text fill="#000000" font-family="sans-serif" font-size="14" lengthAdjust="spacing" textLength="391.9316" x="246.3721" y="121.5801">RetimeWait(&lt;integer|long integer expression&gt;, string identifier);</text><path d="M193.3721,155.0703 L203.3721,155.0703 C218.3721,155.0703 218.3721,115.8516 233.3721,115.8516 L243.3721,115.8516 " fill="none" style="stroke:#181818;stroke-width:1.0;"/><text fill="#000000" font-family="sans-serif" font-size="14" lengthAdjust="spacing" textLength="157.917" x="246.3721" y="141.1895">CANCELWAIT(identifier);</text><path d="M193.3721,155.0703 L203.3721,155.0703 C218.3721,155.0703 218.3721,135.4609 233.3721,135.4609 L243.3721,135.4609 " fill="none" style="stroke:#181818;stroke-width:1.0;"/><text fill="#000000" font-family="sans-serif" font-size="14" lengthAdjust="spacing" textLength="100.3516" x="246.3721" y="160.7988">CancelAllWait();</text><path d="M193.3721,155.0703 L203.3721,155.0703 C218.3721,155.0703 218.3721,155.0703 233.3721,155.0703 L243.3721,155.0703 " fill="none" style="stroke:#181818;stroke-width:1.0;"/><text fill="#000000" font-family="sans-serif" font-size="14" lengthAdjust="spacing" textLength="133.8271" x="246.3721" y="180.4082">PauseWait(identifier);</text><path d="M193.3721,155.0703 L203.3721,155.0703 C218.3721,155.0703 218.3721,174.6797 233.3721,174.6797 L243.3721,174.6797 " fill="none" style="stroke:#181818;stroke-width:1.0;"/><text fill="#000000" font-family="sans-serif" font-size="14" lengthAdjust="spacing" textLength="146.2617" x="246.3721" y="200.0176">ResumeWait(identifier);</text><path d="M193.3721,155.0703 L203.3721,155.0703 C218.3721,155.0703 218.3721,194.2891 233.3721,194.2891 L243.3721,194.2891 " fill="none" style="stroke:#181818;stroke-width:1.0;"/><text fill="#000000" font-family="sans-serif" font-size="14" lengthAdjust="spacing" textLength="108.9033" x="246.3721" y="219.627">ResumeAllWait();</text><path d="M193.3721,155.0703 L203.3721,155.0703 C218.3721,155.0703 218.3721,213.8984 233.3721,213.8984 L243.3721,213.8984 " fill="none" style="stroke:#181818;stroke-width:1.0;"/><path d="M98.4756,329.2031 L108.4756,329.2031 C123.4756,329.2031 123.4756,155.0703 138.4756,155.0703 L148.4756,155.0703 " fill="none" style="stroke:#181818;stroke-width:1.0;"/><rect fill="#F1F1F1" height="37.6094" rx="12.5" ry="12.5" style="stroke:#181818;stroke-width:1.5;" width="170.9922" x="148.4756" y="253.9219"/><text fill="#000000" font-family="sans-serif" font-size="14" lengthAdjust="spacing" textLength="150.9922" x="158.4756" y="278.4551">branching and decissoin</text><text fill="#000000" font-family="sans-serif" font-size="14" lengthAdjust="spacing" textLength="308.1504" x="372.4678" y="239.2363">IF(expression){ statements; }ELSE { statements; }</text><path d="M319.4678,272.7266 L329.4678,272.7266 C344.4678,272.7266 344.4678,233.5078 359.4678,233.5078 L369.4678,233.5078 " fill="none" style="stroke:#181818;stroke-width:1.0;"/><text fill="#000000" font-family="sans-serif" font-size="14" lengthAdjust="spacing" textLength="324.4814" x="372.4678" y="258.8457">IF(expression){ statements; }ELSE IF { statements; }</text><path d="M319.4678,272.7266 L329.4678,272.7266 C344.4678,272.7266 344.4678,253.1172 359.4678,253.1172 L369.4678,253.1172 " fill="none" style="stroke:#181818;stroke-width:1.0;"/><text fill="#000000" font-family="sans-serif" font-size="14" lengthAdjust="spacing" textLength="457.5566" x="372.4678" y="278.4551">IF(expression){ statements; }ELSE IF { statements; } ELSE { statements; }</text><path d="M319.4678,272.7266 L329.4678,272.7266 C344.4678,272.7266 344.4678,272.7266 359.4678,272.7266 L369.4678,272.7266 " fill="none" style="stroke:#181818;stroke-width:1.0;"/><text fill="#000000" font-family="sans-serif" font-size="14" lengthAdjust="spacing" textLength="536.9219" x="372.4678" y="298.0645">SWITCH(integer expression ){ (case expression: {statements};)* default: {statements} }</text><path d="M319.4678,272.7266 L329.4678,272.7266 C344.4678,272.7266 344.4678,292.3359 359.4678,292.3359 L369.4678,292.3359 " fill="none" style="stroke:#181818;stroke-width:1.0;"/><text fill="#000000" font-family="sans-serif" font-size="14" lengthAdjust="spacing" textLength="571.1631" x="372.4678" y="317.6738">CSWITCH(integer expression ){ (case constant: {statements} break;)* default: {statements} }</text><path d="M319.4678,272.7266 L329.4678,272.7266 C344.4678,272.7266 344.4678,311.9453 359.4678,311.9453 L369.4678,311.9453 " fill="none" style="stroke:#181818;stroke-width:1.0;"/><path d="M98.4756,329.2031 L108.4756,329.2031 C123.4756,329.2031 123.4756,272.7266 138.4756,272.7266 L148.4756,272.7266 " fill="none" style="stroke:#181818;stroke-width:1.0;"/><rect fill="#F1F1F1" height="37.6094" rx="12.5" ry="12.5" style="stroke:#181818;stroke-width:1.5;" width="136.7578" x="148.4756" y="312.75"/><text fill="#000000" font-family="sans-serif" font-size="14" lengthAdjust="spacing" textLength="116.7578" x="158.4756" y="337.2832">exception handling</text><text fill="#000000" font-family="sans-serif" font-size="14" lengthAdjust="spacing" textLength="259.1025" x="338.2334" y="337.2832">TRY{ statements; } CATCH{ statements; }</text><path d="M285.2334,331.5547 L295.2334,331.5547 C310.2334,331.5547 310.2334,331.5547 325.2334,331.5547 L335.2334,331.5547 " fill="none" style="stroke:#181818;stroke-width:1.0;"/><path d="M98.4756,329.2031 L108.4756,329.2031 C123.4756,329.2031 123.4756,331.5547 138.4756,331.5547 L148.4756,331.5547 " fill="none" style="stroke:#181818;stroke-width:1.0;"/><rect fill="#F1F1F1" height="37.6094" rx="12.5" ry="12.5" style="stroke:#181818;stroke-width:1.5;" width="151.5098" x="148.4756" y="370.3594"/><text fill="#000000" font-family="sans-serif" font-size="14" lengthAdjust="spacing" textLength="131.5098" x="158.4756" y="394.8926">variable assignments</text><path d="M98.4756,329.2031 L108.4756,329.2031 C123.4756,329.2031 123.4756,389.1641 138.4756,389.1641 L148.4756,389.1641 " fill="none" style="stroke:#181818;stroke-width:1.0;"/><rect fill="#F1F1F1" height="37.6094" rx="12.5" ry="12.5" style="stroke:#181818;stroke-width:1.5;" width="181.0889" x="148.4756" y="427.9688"/><text fill="#000000" font-family="sans-serif" font-size="14" lengthAdjust="spacing" textLength="161.0889" x="158.4756" y="452.502">local variable declarations</text><path d="M98.4756,329.2031 L108.4756,329.2031 C123.4756,329.2031 123.4756,446.7734 138.4756,446.7734 L148.4756,446.7734 " fill="none" style="stroke:#181818;stroke-width:1.0;"/><rect fill="#F1F1F1" height="37.6094" rx="12.5" ry="12.5" style="stroke:#181818;stroke-width:1.5;" width="148.3926" x="148.4756" y="485.5781"/><text fill="#000000" font-family="sans-serif" font-size="14" lengthAdjust="spacing" textLength="128.3926" x="158.4756" y="510.1113">Built In Function Call</text><path d="M98.4756,329.2031 L108.4756,329.2031 C123.4756,329.2031 123.4756,504.3828 138.4756,504.3828 L148.4756,504.3828 " fill="none" style="stroke:#181818;stroke-width:1.0;"/><rect fill="#F1F1F1" height="37.6094" rx="12.5" ry="12.5" style="stroke:#181818;stroke-width:1.5;" width="187.2959" x="148.4756" y="543.1875"/><text fill="#000000" font-family="sans-serif" font-size="14" lengthAdjust="spacing" textLength="167.2959" x="158.4756" y="567.7207">User Defined Function Call</text><path d="M98.4756,329.2031 L108.4756,329.2031 C123.4756,329.2031 123.4756,561.9922 138.4756,561.9922 L148.4756,561.9922 " fill="none" style="stroke:#181818;stroke-width:1.0;"/><rect fill="#F1F1F1" height="37.6094" rx="12.5" ry="12.5" style="stroke:#181818;stroke-width:1.5;" width="173.3027" x="148.4756" y="600.7969"/><text fill="#000000" font-family="sans-serif" font-size="14" lengthAdjust="spacing" textLength="153.3027" x="158.4756" y="625.3301">CSharp type.method call</text><path d="M98.4756,329.2031 L108.4756,329.2031 C123.4756,329.2031 123.4756,619.6016 138.4756,619.6016 L148.4756,619.6016 " fill="none" style="stroke:#181818;stroke-width:1.0;"/><!--SRC=[hLJlRzem4FsUl-8-Xh6XWhen0QjA0wnKi26I5arTLPda06kE7JaERTNol- -SG4jBVscQb0_nlRltdkzi7wQ6QHDp6SKiSSf0IuCnIfCwvJ8Cb4gudDDl-HAk5boWYzU9nZJbIfPkjxARS1ugQRZCy6wgaVsvW5LH5gctyY2ZWDXcRXQbCwNTrf9fpgO23-0Rj7Atbm-P1n3yX1RAw57ijpptW-x8fcEoZLoKtcCQhXWtXOD9kn-uBIuDpb7V2INdi5x05kr7ujJSOX7HyXb7_KHdtOin6XxZXEZ_ZNJT5w_zm-iESc_FW4o6ADf2v3ARw8XbQI6yMp76D8jV1n_HmLIJni9wOpA224EUfehBeg3VU_cChBe3lmlFjkRjidxl_rN2oqRyIJ_mZjtTYG1nko5BSIlMWDi7YbMpz86wCMEPC8-13RVt3d8waLGfdpBav_Dr0Q8BCJ6MRK634VStDnZ_Uhf_hqq-TlSFczi6Z6pDvVrB85J8n0DACnTCCwkLmqSP5mRw4dgP37C77XF28gSfxRE3CounsaKzVy5q0kOcmKgCPg4Y22taE8TqgJVFaZCIr93JuG2MgFDkLIkrlTf-fUxwp82F2UpLwMjKlpQgTUXs0h1moN6_ZmQGgao7P9dR-pJDh7x9EM5B1cFxyCJO0BjoWs49w52iWz2LIwvLtW7dv6nO9C6nCdwYJ9xyPV_J4RVoccp1sT3f5AEXqb15rFq6U4crzhdc39YSPsnEIYWTJv62lcd0gVyN]--></g></svg>