<svg xmlns="http://www.w3.org/2000/svg" xmlns:xlink="http://www.w3.org/1999/xlink" contentStyleType="text/css" height="982px" preserveAspectRatio="none" style="width:1571px;height:982px;background:#FFFFFF;" version="1.1" viewBox="0 0 1571 982" width="1571px" zoomAndPan="magnify"><defs/><g><line style="stroke:#181818;stroke-width:1.5;" x1="46.3467" x2="46.3467" y1="65.0938" y2="85.0938"/><rect fill="#F1F1F1" height="35.0938" style="stroke:#181818;stroke-width:1.5;" width="72.6934" x="10" y="85.0938"/><text fill="#000000" font-family="sans-serif" font-size="12" lengthAdjust="spacing" textLength="52.6934" x="20" y="107.5508">statement</text><line style="stroke:#181818;stroke-width:1.5;" x1="141.709" x2="141.709" y1="65.0938" y2="85.0938"/><rect fill="#F1F1F1" height="35.0938" style="stroke:#181818;stroke-width:1.5;" width="78.0313" x="102.6934" y="85.0938"/><text fill="#000000" font-family="sans-serif" font-size="12" lengthAdjust="spacing" textLength="58.0313" x="112.6934" y="107.5508">expression</text><line style="stroke:#181818;stroke-width:1.5;" x1="141.709" x2="151.709" y1="152.7344" y2="152.7344"/><rect fill="#F1F1F1" height="35.0938" style="stroke:#181818;stroke-width:1.5;" width="69.3477" x="151.709" y="135.1875"/><text fill="#000000" font-family="sans-serif" font-size="12" lengthAdjust="spacing" textLength="49.3477" x="161.709" y="157.6445">comment</text><line style="stroke:#181818;stroke-width:1.5;" x1="141.709" x2="151.709" y1="202.8281" y2="202.8281"/><rect fill="#F1F1F1" height="35.0938" style="stroke:#181818;stroke-width:1.5;" width="182.0762" x="151.709" y="185.2813"/><text fill="#000000" font-family="sans-serif" font-size="12" lengthAdjust="spacing" textLength="162.0762" x="161.709" y="207.7383">expression-operator-xpression</text><line style="stroke:#181818;stroke-width:1.5;" x1="141.709" x2="151.709" y1="252.9219" y2="252.9219"/><rect fill="#F1F1F1" height="35.0938" style="stroke:#181818;stroke-width:1.5;" width="143.3926" x="151.709" y="235.375"/><text fill="#000000" font-family="sans-serif" font-size="12" lengthAdjust="spacing" textLength="123.3926" x="161.709" y="257.832">assignment-expression</text><line style="stroke:#181818;stroke-width:1.5;" x1="141.709" x2="151.709" y1="303.0156" y2="303.0156"/><rect fill="#F1F1F1" height="35.0938" style="stroke:#181818;stroke-width:1.5;" width="132.7227" x="151.709" y="285.4688"/><text fill="#000000" font-family="sans-serif" font-size="12" lengthAdjust="spacing" textLength="112.7227" x="161.709" y="307.9258">expression-operators</text><line style="stroke:#181818;stroke-width:1.5;" x1="141.709" x2="151.709" y1="353.1094" y2="353.1094"/><rect fill="#F1F1F1" height="35.0938" style="stroke:#181818;stroke-width:1.5;" width="120.0605" x="151.709" y="335.5625"/><text fill="#000000" font-family="sans-serif" font-size="12" lengthAdjust="spacing" textLength="100.0605" x="161.709" y="358.0195">invocation-function</text><line style="stroke:#181818;stroke-width:1.5;" x1="141.709" x2="151.709" y1="403.2031" y2="403.2031"/><rect fill="#F1F1F1" height="35.0938" style="stroke:#181818;stroke-width:1.5;" width="48.6758" x="151.709" y="385.6563"/><text fill="#000000" font-family="sans-serif" font-size="12" lengthAdjust="spacing" textLength="28.6758" x="161.709" y="408.1133">literal</text><line style="stroke:#181818;stroke-width:1.5;" x1="176.0469" x2="186.0469" y1="453.2969" y2="453.2969"/><rect fill="#F1F1F1" height="35.0938" style="stroke:#181818;stroke-width:1.5;" width="95.3516" x="186.0469" y="435.75"/><text fill="#000000" font-family="sans-serif" font-size="12" lengthAdjust="spacing" textLength="75.3516" x="196.0469" y="458.207">numeric-literal</text><line style="stroke:#181818;stroke-width:1.5;" x1="176.0469" x2="186.0469" y1="503.3906" y2="503.3906"/><rect fill="#F1F1F1" height="35.0938" style="stroke:#181818;stroke-width:1.5;" width="76.0156" x="186.0469" y="485.8438"/><text fill="#000000" font-family="sans-serif" font-size="12" lengthAdjust="spacing" textLength="56.0156" x="196.0469" y="508.3008">char-literal</text><line style="stroke:#181818;stroke-width:1.5;" x1="176.0469" x2="186.0469" y1="553.4844" y2="553.4844"/><rect fill="#F1F1F1" height="35.0938" style="stroke:#181818;stroke-width:1.5;" width="82.0156" x="186.0469" y="535.9375"/><text fill="#000000" font-family="sans-serif" font-size="12" lengthAdjust="spacing" textLength="62.0156" x="196.0469" y="558.3945">string-literal</text><line style="stroke:#181818;stroke-width:1.5;" x1="176.0469" x2="186.0469" y1="603.5781" y2="603.5781"/><rect fill="#F1F1F1" height="35.0938" style="stroke:#181818;stroke-width:1.5;" width="132.7227" x="186.0469" y="586.0313"/><text fill="#000000" font-family="sans-serif" font-size="12" lengthAdjust="spacing" textLength="112.7227" x="196.0469" y="608.4883">expression-operators</text><line style="stroke:#181818;stroke-width:1.5;" x1="176.0469" x2="176.0469" y1="420.75" y2="603.5781"/><line style="stroke:#181818;stroke-width:1.5;" x1="141.709" x2="151.709" y1="653.6719" y2="653.6719"/><rect fill="#F1F1F1" height="35.0938" style="stroke:#181818;stroke-width:1.5;" width="150.7402" x="151.709" y="636.125"/><text fill="#000000" font-family="sans-serif" font-size="12" lengthAdjust="spacing" textLength="130.7402" x="161.709" y="658.582">prenthesized-expression</text><line style="stroke:#181818;stroke-width:1.5;" x1="141.709" x2="151.709" y1="703.7656" y2="703.7656"/><rect fill="#F1F1F1" height="35.0938" style="stroke:#181818;stroke-width:1.5;" width="65.3574" x="151.709" y="686.2188"/><text fill="#000000" font-family="sans-serif" font-size="12" lengthAdjust="spacing" textLength="45.3574" x="161.709" y="708.6758">identifier</text><line style="stroke:#181818;stroke-width:1.5;" x1="141.709" x2="141.709" y1="120.1875" y2="703.7656"/><line style="stroke:#181818;stroke-width:1.5;" x1="388.8047" x2="388.8047" y1="65.0938" y2="85.0938"/><rect fill="#F1F1F1" height="35.0938" style="stroke:#181818;stroke-width:1.5;" width="70.0391" x="353.7852" y="85.0938"/><text fill="#000000" font-family="sans-serif" font-size="12" lengthAdjust="spacing" textLength="50.0391" x="363.7852" y="107.5508">operands</text><line style="stroke:#181818;stroke-width:1.5;" x1="486.1768" x2="486.1768" y1="65.0938" y2="85.0938"/><rect fill="#F1F1F1" height="35.0938" style="stroke:#181818;stroke-width:1.5;" width="84.7051" x="443.8242" y="85.0938"/><text fill="#000000" font-family="sans-serif" font-size="12" lengthAdjust="spacing" textLength="64.7051" x="453.8242" y="107.5508">declarations</text><line style="stroke:#181818;stroke-width:1.5;" x1="486.1768" x2="496.1768" y1="152.7344" y2="152.7344"/><rect fill="#F1F1F1" height="35.0938" style="stroke:#181818;stroke-width:1.5;" width="46.0215" x="496.1768" y="135.1875"/><text fill="#000000" font-family="sans-serif" font-size="12" lengthAdjust="spacing" textLength="26.0215" x="506.1768" y="157.6445">input</text><line style="stroke:#181818;stroke-width:1.5;" x1="486.1768" x2="496.1768" y1="202.8281" y2="202.8281"/><rect fill="#F1F1F1" height="35.0938" style="stroke:#181818;stroke-width:1.5;" width="53.3633" x="496.1768" y="185.2813"/><text fill="#000000" font-family="sans-serif" font-size="12" lengthAdjust="spacing" textLength="33.3633" x="506.1768" y="207.7383">output</text><line style="stroke:#181818;stroke-width:1.5;" x1="486.1768" x2="496.1768" y1="252.9219" y2="252.9219"/><rect fill="#F1F1F1" height="35.0938" style="stroke:#181818;stroke-width:1.5;" width="74.6914" x="496.1768" y="235.375"/><text fill="#000000" font-family="sans-serif" font-size="12" lengthAdjust="spacing" textLength="54.6914" x="506.1768" y="257.832">parameter</text><line style="stroke:#181818;stroke-width:1.5;" x1="486.1768" x2="496.1768" y1="303.0156" y2="303.0156"/><rect fill="#F1F1F1" height="35.0938" style="stroke:#181818;stroke-width:1.5;" width="62.0234" x="496.1768" y="285.4688"/><text fill="#000000" font-family="sans-serif" font-size="12" lengthAdjust="spacing" textLength="42.0234" x="506.1768" y="307.9258">variable</text><line style="stroke:#181818;stroke-width:1.5;" x1="486.1768" x2="496.1768" y1="353.1094" y2="353.1094"/><rect fill="#F1F1F1" height="35.0938" style="stroke:#181818;stroke-width:1.5;" width="62.0293" x="496.1768" y="335.5625"/><text fill="#000000" font-family="sans-serif" font-size="12" lengthAdjust="spacing" textLength="42.0293" x="506.1768" y="358.0195">function</text><line style="stroke:#181818;stroke-width:1.5;" x1="486.1768" x2="496.1768" y1="403.2031" y2="403.2031"/><rect fill="#F1F1F1" height="35.0938" style="stroke:#181818;stroke-width:1.5;" width="65.3633" x="496.1768" y="385.6563"/><text fill="#000000" font-family="sans-serif" font-size="12" lengthAdjust="spacing" textLength="45.3633" x="506.1768" y="408.1133">constant</text><line style="stroke:#181818;stroke-width:1.5;" x1="486.1768" x2="496.1768" y1="453.2969" y2="453.2969"/><rect fill="#F1F1F1" height="35.0938" style="stroke:#181818;stroke-width:1.5;" width="62.6855" x="496.1768" y="435.75"/><text fill="#000000" font-family="sans-serif" font-size="12" lengthAdjust="spacing" textLength="42.6855" x="506.1768" y="458.207">SIMPL#</text><line style="stroke:#181818;stroke-width:1.5;" x1="527.5195" x2="537.5195" y1="503.3906" y2="503.3906"/><rect fill="#F1F1F1" height="35.0938" style="stroke:#181818;stroke-width:1.5;" width="48.6816" x="537.5195" y="485.8438"/><text fill="#000000" font-family="sans-serif" font-size="12" lengthAdjust="spacing" textLength="28.6816" x="547.5195" y="508.3008">types</text><line style="stroke:#181818;stroke-width:1.5;" x1="527.5195" x2="537.5195" y1="553.4844" y2="553.4844"/><rect fill="#F1F1F1" height="35.0938" style="stroke:#181818;stroke-width:1.5;" width="72.043" x="537.5195" y="535.9375"/><text fill="#000000" font-family="sans-serif" font-size="12" lengthAdjust="spacing" textLength="52.043" x="547.5195" y="558.3945">delegates</text><line style="stroke:#181818;stroke-width:1.5;" x1="527.5195" x2="537.5195" y1="603.5781" y2="603.5781"/><rect fill="#F1F1F1" height="35.0938" style="stroke:#181818;stroke-width:1.5;" width="55.3555" x="537.5195" y="586.0313"/><text fill="#000000" font-family="sans-serif" font-size="12" lengthAdjust="spacing" textLength="35.3555" x="547.5195" y="608.4883">events</text><line style="stroke:#181818;stroke-width:1.5;" x1="527.5195" x2="537.5195" y1="653.6719" y2="653.6719"/><rect fill="#F1F1F1" height="35.0938" style="stroke:#181818;stroke-width:1.5;" width="73.3613" x="537.5195" y="636.125"/><text fill="#000000" font-family="sans-serif" font-size="12" lengthAdjust="spacing" textLength="53.3613" x="547.5195" y="658.582">properties</text><line style="stroke:#181818;stroke-width:1.5;" x1="527.5195" x2="527.5195" y1="470.8438" y2="653.6719"/><line style="stroke:#181818;stroke-width:1.5;" x1="486.1768" x2="496.1768" y1="703.7656" y2="703.7656"/><rect fill="#F1F1F1" height="35.0938" style="stroke:#181818;stroke-width:1.5;" width="92.6914" x="496.1768" y="686.2188"/><text fill="#000000" font-family="sans-serif" font-size="12" lengthAdjust="spacing" textLength="72.6914" x="506.1768" y="708.6758">parameter list</text><line style="stroke:#181818;stroke-width:1.5;" x1="486.1768" x2="496.1768" y1="753.8594" y2="753.8594"/><rect fill="#F1F1F1" height="35.0938" style="stroke:#181818;stroke-width:1.5;" width="65.3574" x="496.1768" y="736.3125"/><text fill="#000000" font-family="sans-serif" font-size="12" lengthAdjust="spacing" textLength="45.3574" x="506.1768" y="758.7695">identifier</text><line style="stroke:#181818;stroke-width:1.5;" x1="486.1768" x2="486.1768" y1="120.1875" y2="753.8594"/><line style="stroke:#181818;stroke-width:1.5;" x1="690.5625" x2="690.5625" y1="65.0938" y2="85.0938"/><rect fill="#F1F1F1" height="35.0938" style="stroke:#181818;stroke-width:1.5;" width="119.3633" x="630.8809" y="85.0938"/><text fill="#000000" font-family="sans-serif" font-size="12" lengthAdjust="spacing" textLength="99.3633" x="640.8809" y="107.5508">compiler directives</text><line style="stroke:#181818;stroke-width:1.5;" x1="690.5625" x2="700.5625" y1="152.7344" y2="152.7344"/><rect fill="#F1F1F1" height="35.0938" style="stroke:#181818;stroke-width:1.5;" width="69.3477" x="700.5625" y="135.1875"/><text fill="#000000" font-family="sans-serif" font-size="12" lengthAdjust="spacing" textLength="49.3477" x="710.5625" y="157.6445">comment</text><line style="stroke:#181818;stroke-width:1.5;" x1="690.5625" x2="700.5625" y1="202.8281" y2="202.8281"/><rect fill="#F1F1F1" height="35.0938" style="stroke:#181818;stroke-width:1.5;" width="176.082" x="700.5625" y="185.2813"/><text fill="#000000" font-family="sans-serif" font-size="12" lengthAdjust="spacing" textLength="156.082" x="710.5625" y="207.7383">preprocessor-define-constant</text><line style="stroke:#181818;stroke-width:1.5;" x1="690.5625" x2="700.5625" y1="252.9219" y2="252.9219"/><rect fill="#F1F1F1" height="35.0938" style="stroke:#181818;stroke-width:1.5;" width="170.0703" x="700.5625" y="235.375"/><text fill="#000000" font-family="sans-serif" font-size="12" lengthAdjust="spacing" textLength="150.0703" x="710.5625" y="257.832">preprocessor-if-ifnot-defined</text><line style="stroke:#181818;stroke-width:1.5;" x1="690.5625" x2="700.5625" y1="303.0156" y2="303.0156"/><rect fill="#F1F1F1" height="35.0938" style="stroke:#181818;stroke-width:1.5;" width="120.0488" x="700.5625" y="285.4688"/><text fill="#000000" font-family="sans-serif" font-size="12" lengthAdjust="spacing" textLength="100.0488" x="710.5625" y="307.9258">preprocessor-endif</text><line style="stroke:#181818;stroke-width:1.5;" x1="690.5625" x2="700.5625" y1="353.1094" y2="353.1094"/><rect fill="#F1F1F1" height="35.0938" style="stroke:#181818;stroke-width:1.5;" width="140.0527" x="700.5625" y="335.5625"/><text fill="#000000" font-family="sans-serif" font-size="12" lengthAdjust="spacing" textLength="120.0527" x="710.5625" y="358.0195">preprocessor-category</text><line style="stroke:#181818;stroke-width:1.5;" x1="690.5625" x2="700.5625" y1="403.2031" y2="403.2031"/><rect fill="#F1F1F1" height="35.0938" style="stroke:#181818;stroke-width:1.5;" width="126.6992" x="700.5625" y="385.6563"/><text fill="#000000" font-family="sans-serif" font-size="12" lengthAdjust="spacing" textLength="106.6992" x="710.5625" y="408.1133">preprocessor-library</text><line style="stroke:#181818;stroke-width:1.5;" x1="690.5625" x2="700.5625" y1="453.2969" y2="453.2969"/><rect fill="#F1F1F1" height="35.0938" style="stroke:#181818;stroke-width:1.5;" width="159.4063" x="700.5625" y="435.75"/><text fill="#000000" font-family="sans-serif" font-size="12" lengthAdjust="spacing" textLength="139.4063" x="710.5625" y="458.207">preprocessor-include-path</text><line style="stroke:#181818;stroke-width:1.5;" x1="690.5625" x2="700.5625" y1="503.3906" y2="503.3906"/><rect fill="#F1F1F1" height="35.0938" style="stroke:#181818;stroke-width:1.5;" width="166.0508" x="700.5625" y="485.8438"/><text fill="#000000" font-family="sans-serif" font-size="12" lengthAdjust="spacing" textLength="146.0508" x="710.5625" y="508.3008">preprocessor-symbol-name</text><line style="stroke:#181818;stroke-width:1.5;" x1="690.5625" x2="700.5625" y1="553.4844" y2="553.4844"/><rect fill="#F1F1F1" height="35.0938" style="stroke:#181818;stroke-width:1.5;" width="113.375" x="700.5625" y="535.9375"/><text fill="#000000" font-family="sans-serif" font-size="12" lengthAdjust="spacing" textLength="93.375" x="710.5625" y="558.3945">preprocessor-hint</text><line style="stroke:#181818;stroke-width:1.5;" x1="690.5625" x2="700.5625" y1="603.5781" y2="603.5781"/><rect fill="#F1F1F1" height="35.0938" style="stroke:#181818;stroke-width:1.5;" width="116.7148" x="700.5625" y="586.0313"/><text fill="#000000" font-family="sans-serif" font-size="12" lengthAdjust="spacing" textLength="96.7148" x="710.5625" y="608.4883">preprocessor-help</text><line style="stroke:#181818;stroke-width:1.5;" x1="690.5625" x2="700.5625" y1="653.6719" y2="653.6719"/><rect fill="#F1F1F1" height="35.0938" style="stroke:#181818;stroke-width:1.5;" width="232.7773" x="700.5625" y="636.125"/><text fill="#000000" font-family="sans-serif" font-size="12" lengthAdjust="spacing" textLength="212.7773" x="710.5625" y="658.582">preprocessor-default-nonvolatile-volatile</text><line style="stroke:#181818;stroke-width:1.5;" x1="690.5625" x2="700.5625" y1="703.7656" y2="703.7656"/><rect fill="#F1F1F1" height="35.0938" style="stroke:#181818;stroke-width:1.5;" width="208.7773" x="700.5625" y="686.2188"/><text fill="#000000" font-family="sans-serif" font-size="12" lengthAdjust="spacing" textLength="188.7773" x="710.5625" y="708.6758">preprocessor-analog-digital-expand</text><line style="stroke:#181818;stroke-width:1.5;" x1="690.5625" x2="700.5625" y1="753.8594" y2="753.8594"/><rect fill="#F1F1F1" height="35.0938" style="stroke:#181818;stroke-width:1.5;" width="153.3945" x="700.5625" y="736.3125"/><text fill="#000000" font-family="sans-serif" font-size="12" lengthAdjust="spacing" textLength="133.3945" x="710.5625" y="758.7695">preprocessor-output-shift</text><line style="stroke:#181818;stroke-width:1.5;" x1="690.5625" x2="700.5625" y1="803.9531" y2="803.9531"/><rect fill="#F1F1F1" height="35.0938" style="stroke:#181818;stroke-width:1.5;" width="220.0684" x="700.5625" y="786.4063"/><text fill="#000000" font-family="sans-serif" font-size="12" lengthAdjust="spacing" textLength="200.0684" x="710.5625" y="808.8633">preprocessor-max-internal-buffer-size</text><line style="stroke:#181818;stroke-width:1.5;" x1="690.5625" x2="700.5625" y1="854.0469" y2="854.0469"/><rect fill="#F1F1F1" height="35.0938" style="stroke:#181818;stroke-width:1.5;" width="125.3809" x="700.5625" y="836.5"/><text fill="#000000" font-family="sans-serif" font-size="12" lengthAdjust="spacing" textLength="105.3809" x="710.5625" y="858.957">preprocessor-single</text><line style="stroke:#181818;stroke-width:1.5;" x1="690.5625" x2="700.5625" y1="904.1406" y2="904.1406"/><rect fill="#F1F1F1" height="35.0938" style="stroke:#181818;stroke-width:1.5;" width="239.4336" x="700.5625" y="886.5938"/><text fill="#000000" font-family="sans-serif" font-size="12" lengthAdjust="spacing" textLength="219.4336" x="710.5625" y="909.0508">preprocessor-begin-parameter-properties</text><line style="stroke:#181818;stroke-width:1.5;" x1="690.5625" x2="700.5625" y1="954.2344" y2="954.2344"/><rect fill="#F1F1F1" height="35.0938" style="stroke:#181818;stroke-width:1.5;" width="233.375" x="700.5625" y="936.6875"/><text fill="#000000" font-family="sans-serif" font-size="12" lengthAdjust="spacing" textLength="210.0938" x="710.5625" y="959.1445">preprocessor-end-parameter-properties</text><line style="stroke:#181818;stroke-width:1.5;" x1="690.5625" x2="690.5625" y1="120.1875" y2="954.2344"/><line style="stroke:#181818;stroke-width:1.5;" x1="1001.0215" x2="1001.0215" y1="65.0938" y2="85.0938"/><rect fill="#F1F1F1" height="35.0938" style="stroke:#181818;stroke-width:1.5;" width="82.0508" x="959.9961" y="85.0938"/><text fill="#000000" font-family="sans-serif" font-size="12" lengthAdjust="spacing" textLength="62.0508" x="969.9961" y="107.5508">punctuation</text><line style="stroke:#181818;stroke-width:1.5;" x1="1001.0215" x2="1011.0215" y1="152.7344" y2="152.7344"/><rect fill="#F1F1F1" height="35.0938" style="stroke:#181818;stroke-width:1.5;" width="138.0605" x="1011.0215" y="135.1875"/><text fill="#000000" font-family="sans-serif" font-size="12" lengthAdjust="spacing" textLength="118.0605" x="1021.0215" y="157.6445">punctuation-arithmetic</text><line style="stroke:#181818;stroke-width:1.5;" x1="1001.0215" x2="1011.0215" y1="202.8281" y2="202.8281"/><rect fill="#F1F1F1" height="35.0938" style="stroke:#181818;stroke-width:1.5;" width="122.7266" x="1011.0215" y="185.2813"/><text fill="#000000" font-family="sans-serif" font-size="12" lengthAdjust="spacing" textLength="102.7266" x="1021.0215" y="207.7383">punctuation-bitwise</text><line style="stroke:#181818;stroke-width:1.5;" x1="1001.0215" x2="1011.0215" y1="252.9219" y2="252.9219"/><rect fill="#F1F1F1" height="35.0938" style="stroke:#181818;stroke-width:1.5;" width="148.0742" x="1011.0215" y="235.375"/><text fill="#000000" font-family="sans-serif" font-size="12" lengthAdjust="spacing" textLength="128.0742" x="1021.0215" y="257.832">punctuation-comparison</text><line style="stroke:#181818;stroke-width:1.5;" x1="1001.0215" x2="1011.0215" y1="303.0156" y2="303.0156"/><rect fill="#F1F1F1" height="35.0938" style="stroke:#181818;stroke-width:1.5;" width="134.7441" x="1011.0215" y="285.4688"/><text fill="#000000" font-family="sans-serif" font-size="12" lengthAdjust="spacing" textLength="114.7441" x="1021.0215" y="307.9258">punctuation-relational</text><line style="stroke:#181818;stroke-width:1.5;" x1="1001.0215" x2="1011.0215" y1="353.1094" y2="353.1094"/><rect fill="#F1F1F1" height="35.0938" style="stroke:#181818;stroke-width:1.5;" width="147.4121" x="1011.0215" y="335.5625"/><text fill="#000000" font-family="sans-serif" font-size="12" lengthAdjust="spacing" textLength="127.4121" x="1021.0215" y="358.0195">punctuation-assignment</text><line style="stroke:#181818;stroke-width:1.5;" x1="1001.0215" x2="1011.0215" y1="403.2031" y2="403.2031"/><rect fill="#F1F1F1" height="35.0938" style="stroke:#181818;stroke-width:1.5;" width="132.752" x="1011.0215" y="385.6563"/><text fill="#000000" font-family="sans-serif" font-size="12" lengthAdjust="spacing" textLength="112.752" x="1021.0215" y="408.1133">punctuation-grouping</text><line style="stroke:#181818;stroke-width:1.5;" x1="1077.3975" x2="1087.3975" y1="453.2969" y2="453.2969"/><rect fill="#F1F1F1" height="35.0938" style="stroke:#181818;stroke-width:1.5;" width="172.0859" x="1087.3975" y="435.75"/><text fill="#000000" font-family="sans-serif" font-size="12" lengthAdjust="spacing" textLength="152.0859" x="1097.3975" y="458.207">punctuation-square-brackets</text><line style="stroke:#181818;stroke-width:1.5;" x1="1077.3975" x2="1087.3975" y1="503.3906" y2="503.3906"/><rect fill="#F1F1F1" height="35.0938" style="stroke:#181818;stroke-width:1.5;" width="152.0938" x="1087.3975" y="485.8438"/><text fill="#000000" font-family="sans-serif" font-size="12" lengthAdjust="spacing" textLength="132.0938" x="1097.3975" y="508.3008">punctuation-parentheses</text><line style="stroke:#181818;stroke-width:1.5;" x1="1077.3975" x2="1077.3975" y1="420.75" y2="503.3906"/><line style="stroke:#181818;stroke-width:1.5;" x1="1001.0215" x2="1011.0215" y1="553.4844" y2="553.4844"/><rect fill="#F1F1F1" height="35.0938" style="stroke:#181818;stroke-width:1.5;" width="132.7285" x="1011.0215" y="535.9375"/><text fill="#000000" font-family="sans-serif" font-size="12" lengthAdjust="spacing" textLength="112.7285" x="1021.0215" y="558.3945">punctuation-structure</text><line style="stroke:#181818;stroke-width:1.5;" x1="1077.3857" x2="1087.3857" y1="603.5781" y2="603.5781"/><rect fill="#F1F1F1" height="35.0938" style="stroke:#181818;stroke-width:1.5;" width="125.3867" x="1087.3857" y="586.0313"/><text fill="#000000" font-family="sans-serif" font-size="12" lengthAdjust="spacing" textLength="105.3867" x="1097.3857" y="608.4883">punctuation-comma</text><line style="stroke:#181818;stroke-width:1.5;" x1="1077.3857" x2="1087.3857" y1="653.6719" y2="653.6719"/><rect fill="#F1F1F1" height="35.0938" style="stroke:#181818;stroke-width:1.5;" width="140.0703" x="1087.3857" y="636.125"/><text fill="#000000" font-family="sans-serif" font-size="12" lengthAdjust="spacing" textLength="120.0703" x="1097.3857" y="658.582">punctuation-semicolon</text><line style="stroke:#181818;stroke-width:1.5;" x1="1077.3857" x2="1087.3857" y1="703.7656" y2="703.7656"/><rect fill="#F1F1F1" height="35.0938" style="stroke:#181818;stroke-width:1.5;" width="102.7285" x="1087.3857" y="686.2188"/><text fill="#000000" font-family="sans-serif" font-size="12" lengthAdjust="spacing" textLength="82.7285" x="1097.3857" y="708.6758">punctuation-dot</text><line style="stroke:#181818;stroke-width:1.5;" x1="1077.3857" x2="1077.3857" y1="571.0313" y2="703.7656"/><line style="stroke:#181818;stroke-width:1.5;" x1="1001.0215" x2="1001.0215" y1="120.1875" y2="553.4844"/><line style="stroke:#181818;stroke-width:1.5;" x1="1317.1572" x2="1317.1572" y1="65.0938" y2="85.0938"/><rect fill="#F1F1F1" height="35.0938" style="stroke:#181818;stroke-width:1.5;" width="75.3477" x="1279.4834" y="85.0938"/><text fill="#000000" font-family="sans-serif" font-size="12" lengthAdjust="spacing" textLength="55.3477" x="1289.4834" y="107.5508">comments</text><line style="stroke:#181818;stroke-width:1.5;" x1="1317.1572" x2="1327.1572" y1="152.7344" y2="152.7344"/><rect fill="#F1F1F1" height="35.0938" style="stroke:#181818;stroke-width:1.5;" width="92.0234" x="1327.1572" y="135.1875"/><text fill="#000000" font-family="sans-serif" font-size="12" lengthAdjust="spacing" textLength="72.0234" x="1337.1572" y="157.6445">comment-line</text><line style="stroke:#181818;stroke-width:1.5;" x1="1317.1572" x2="1327.1572" y1="202.8281" y2="202.8281"/><rect fill="#F1F1F1" height="35.0938" style="stroke:#181818;stroke-width:1.5;" width="101.3574" x="1327.1572" y="185.2813"/><text fill="#000000" font-family="sans-serif" font-size="12" lengthAdjust="spacing" textLength="81.3574" x="1337.1572" y="207.7383">comment-block</text><line style="stroke:#181818;stroke-width:1.5;" x1="1317.1572" x2="1327.1572" y1="252.9219" y2="252.9219"/><rect fill="#F1F1F1" height="35.0938" style="stroke:#181818;stroke-width:1.5;" width="233.375" x="1327.1572" y="235.375"/><text fill="#000000" font-family="sans-serif" font-size="12" lengthAdjust="spacing" textLength="155.3848" x="1337.1572" y="257.832">comment-block-preprocessor</text><line style="stroke:#181818;stroke-width:1.5;" x1="1317.1572" x2="1317.1572" y1="120.1875" y2="252.9219"/><line style="stroke:#181818;stroke-width:1.5;" x1="46.3467" x2="1317.1572" y1="65.0938" y2="65.0938"/><rect fill="#F1F1F1" height="35.0938" style="stroke:#181818;stroke-width:1.5;" width="64.6895" x="649.4072" y="10"/><text fill="#000000" font-family="sans-serif" font-size="12" lengthAdjust="spacing" textLength="44.6895" x="659.4072" y="32.457">Patterns</text><line style="stroke:#181818;stroke-width:1.5;" x1="681.752" x2="681.752" y1="45.0938" y2="65.0938"/><line style="stroke:#181818;stroke-width:1.0;" x1="221.0566" x2="1279.4834" y1="151.1983" y2="104.3096"/><polygon fill="#181818" points="1279.4834,104.3096,1270.3152,100.7118,1274.4883,104.5309,1270.6692,108.704,1279.4834,104.3096" style="stroke:#181818;stroke-width:1.0;"/><line style="stroke:#181818;stroke-width:1.0;" x1="769.9102" x2="1279.4834" y1="149.7495" y2="105.8837"/><polygon fill="#181818" points="1279.4834,105.8837,1270.1735,102.6704,1274.5018,106.3125,1270.8596,110.6409,1279.4834,105.8837" style="stroke:#181818;stroke-width:1.0;"/><!--SRC=[TLN1Rjim33tNNo5qbnQ5YYRerY67eLXRR2iI85ZQtcMRTeJAaYPHQREl7oN7QHnxW0ya7ocIugDywr4uVCjzTi6M0X6Szjd91ICpGWCQemBlre7tqkZiXDJJmZGHEcN2HupKPFzmuyQ24sWSxqSA4ciTO_dHcIEnFW5IRqmXC09Lq0Ls0KfIhKAHJ8eE3JXPy9wnM0lNjtXqKjTzstyJardZ6hpy2-LnjR8aJ5OINBoU5AVBT6yb54guL6zNlmsO91Em4osvD80ndBIDS5Ba2fBIQxAWKr3eDcZrQx6SVsghngq5tuebAAXfM3iLDbJQJhOkbeOIV3yhNPx7aKRYOArKv51A1rJ61dmQidNM3KSVhTtiwNeeMq5tH4CleP8QUA_wdeEiwDC6Tvxbq0DqAQkXcPW0jN7R8Q9axiGO87MXGWdS2bmFKRzjSgEufeiPWcivLlmQb1tjMGI5N1iYh282AE2TCFGMMYXJyrBM4eMAz2823TrQod2_bjL88Oruf-xYoj8HUQWge7w8hYDT4kt7oiYXbfhlUS6F2NCqaL7FayGS6saR4kzRRf3Udl41SE8vhYbU3g5SuflqCB17HbAOtot48UH09I5jyb6Y_JipW6fdWgNhs6t80UB_1E604usALzYlq8435T8-2Ttr70QZ2wGu68R5bH4ZwQ2HXL6fiIEeD9WTB5kxWzscxOn4U0qzGwvCyJgqyCCfKggiVR4Pvz_IcRijtkktDEZuFyYMYdRtUJ5d6t3nvMEJo-dLzFhovcmbaAt0igiR-cQJhxF93NkuVs8HFi_EVYpdp9lW2g1t9BwvUOXjdMUFOYFOxq0lJWCp5hMpfyKvMprqHlQWDzAPTdAFBulMYVqqkB86a_ENQ_vTnlIEoc8lY-o-NJmABKn9WvsnEpkPVfvcSw7h86hA13gxCvJ1RMViUVKF]--></g></svg>